<svg width="80" height="80" viewBox="0 0 80 80" fill="none" xmlns="http://www.w3.org/2000/svg">
<path d="M62.645 4.06042C48.7826 5.30371 37.917 16.95 37.917 31.1359C37.917 42.0825 44.3871 51.5162 53.7109 55.826C58.6342 55.3843 63.1796 53.6314 66.9943 50.9171L76.4811 53.459L73.902 43.834L73.8115 43.9245C76.7325 39.5906 78.4376 34.3693 78.4376 28.7498C78.4376 17.8039 71.9681 8.37042 62.645 4.06042Z" fill="#0FD08B"/>
<path d="M15.5878 63.7497C15.5878 52.8531 24.3021 43.9929 35.1414 43.7554C31.575 40.4554 26.8049 38.4376 21.5628 38.4376C10.5172 38.4376 1.56299 47.392 1.56299 58.4375C1.56299 62.7632 2.93658 66.7679 5.27096 70.04L3.41205 76.9775L10.4761 75.0847C12.8517 76.67 15.5855 77.7604 18.5305 78.2087L19.2958 75.3523C16.9614 72.0801 15.5878 68.0753 15.5878 63.7497Z" fill="#FFE05F"/>
<path d="M41.5617 58.4376C41.5617 52.6341 39.0889 47.4089 35.1405 43.7556C24.301 43.993 15.5869 52.8534 15.5869 63.7497C15.5869 68.0755 16.9605 72.0801 19.2949 75.3522L18.5296 78.2086C19.5185 78.3591 20.531 78.4375 21.5619 78.4375C32.6075 78.4375 41.5617 69.4831 41.5617 58.4376Z" fill="#F96440"/>
<path d="M44 34C44 37.866 47.134 41 51 41C54.866 41 58 37.866 58 34H44Z" fill="white"/>
<path d="M61.981 24.3534C62.0483 24.3119 62.1155 24.2703 62.1828 24.2288L61.981 24.3534Z" fill="#FFDCDC"/>
<path d="M40.5112 24.3534C40.5786 24.3119 40.6458 24.2703 40.7131 24.2288L40.5112 24.3534Z" fill="#FFDCDC"/>
<path d="M75.5825 44.0691C78.4753 39.4847 80 34.2072 80 28.7498C80 12.8972 67.1028 0 51.2502 0C45.9402 0 40.7521 1.45953 36.2471 4.22078C35.5113 4.67172 35.2803 5.63359 35.7314 6.36938C36.1822 7.105 37.1441 7.33609 37.88 6.885C41.8935 4.42516 46.5169 3.125 51.2503 3.125C65.3799 3.125 76.8752 14.6202 76.8752 28.7498C76.8752 33.8744 75.3678 38.8198 72.5158 43.0514C72.1375 43.6127 72.1699 44.3383 72.5591 44.8594L74.2713 51.2494L67.3988 49.4078C66.9486 49.2872 66.4681 49.3736 66.0885 49.6439C61.7388 52.7389 56.6078 54.3747 51.2503 54.3747C48.1983 54.3747 45.2131 53.8416 42.3741 52.7927C40.3755 45.4325 34.5681 39.625 27.208 37.6266C26.1589 34.7875 25.6255 31.8028 25.6255 28.7498C25.6255 23.9639 26.9528 19.2966 29.4641 15.2522C29.9192 14.5191 29.6939 13.5558 28.9608 13.1005C28.228 12.6453 27.2644 12.8705 26.8091 13.6038C23.9902 18.1434 22.5003 23.3808 22.5003 28.7497C22.5003 31.5602 22.9038 34.3198 23.6991 36.9809C22.9961 36.9116 22.2836 36.8752 21.5628 36.8752C9.6733 36.8752 0.000488281 46.5481 0.000488281 58.4375C0.000488281 62.7045 1.23424 66.8006 3.57518 70.3316L1.90299 76.573C1.75846 77.1122 1.91268 77.6875 2.30736 78.0823C2.70205 78.477 3.27721 78.6311 3.81658 78.4867L10.2127 76.7728C13.6189 78.8863 17.5277 80 21.5628 80C25.6699 80 29.6647 78.8406 33.1155 76.6472C33.8438 76.1842 34.0588 75.2186 33.596 74.4903C33.133 73.762 32.167 73.547 31.4391 74.0098C28.49 75.8844 25.0752 76.875 21.5628 76.875C17.9066 76.875 14.3727 75.8066 11.3435 73.785C10.9696 73.5355 10.5063 73.4589 10.0717 73.5755L5.62174 74.7678L6.78018 70.4445C6.90096 69.9938 6.81393 69.5125 6.54283 69.1327C4.30705 65.9989 3.12533 62.3006 3.12533 58.4375C3.12533 48.2711 11.3964 40.0002 21.5627 40.0002C31.7289 40.0002 40.0002 48.2713 40.0002 58.4377C40.0002 60.6087 39.6269 62.7336 38.8906 64.7533C38.595 65.5639 39.0127 66.4608 39.8235 66.7564C40.6341 67.0519 41.5311 66.6344 41.8266 65.8236C42.6883 63.46 43.1252 60.975 43.1252 58.4377C43.1252 57.7169 43.0889 57.0045 43.0196 56.3017C45.6808 57.0969 48.4408 57.4997 51.2503 57.4997C57.0121 57.4997 62.541 55.8128 67.2888 52.6136L76.0766 54.9683C76.6161 55.1128 77.1911 54.9586 77.586 54.5639C77.9806 54.1692 78.1349 53.5939 77.9903 53.0545L75.5825 44.0691Z" fill="#2A1846"/>
<path d="M58.6047 32H44.3951C43.6246 32 43 32.6312 43 33.4099C43 38.1465 46.8131 42 51.5 42C56.1869 42 60 38.1465 60 33.4099C59.9999 32.6312 59.3751 32 58.6047 32ZM51.5 39.1801C48.8328 39.1801 46.5868 37.3221 45.9627 34.8197H57.0375C56.413 37.3221 54.167 39.1801 51.5 39.1801Z" fill="#2A1846"/>
<path d="M61.9822 25.9162C62.2623 25.9162 62.5461 25.8409 62.802 25.6826L63.0022 25.559C63.7369 25.1064 63.9656 24.1439 63.5129 23.4092C63.0601 22.6743 62.0975 22.4459 61.3631 22.8984L61.1594 23.0242C60.4253 23.4778 60.1978 24.4406 60.6515 25.1746C60.947 25.6531 61.4586 25.9162 61.9822 25.9162Z" fill="#2A1846"/>
<path d="M39.8944 22.8984L39.6906 23.0242C38.9564 23.4778 38.7291 24.4406 39.1828 25.1746C39.4783 25.6529 39.9899 25.9161 40.5135 25.9161C40.7936 25.9161 41.0774 25.8407 41.3333 25.6825L41.5335 25.5589C42.2681 25.1062 42.4969 24.1437 42.0442 23.409C41.5914 22.6743 40.6286 22.4459 39.8944 22.8984Z" fill="#2A1846"/>
<path d="M11.8636 57.3327C11.5729 57.6233 11.4058 58.0264 11.4058 58.4374C11.4058 58.8483 11.5729 59.2514 11.8636 59.5421C12.1542 59.8327 12.5573 59.9999 12.9683 59.9999C13.3792 59.9999 13.7823 59.8327 14.0729 59.5421C14.3636 59.2514 14.5308 58.8483 14.5308 58.4374C14.5308 58.0264 14.3636 57.6233 14.0729 57.3327C13.7823 57.0421 13.3792 56.8749 12.9683 56.8749C12.5573 56.8749 12.1544 57.0421 11.8636 57.3327Z" fill="#2A1846"/>
<path d="M20.4573 57.3327C20.1667 57.6233 19.9995 58.0264 19.9995 58.4374C19.9995 58.8483 20.1667 59.2514 20.4573 59.5421C20.7479 59.8327 21.1511 59.9999 21.562 59.9999C21.9729 59.9999 22.3761 59.8327 22.6667 59.5421C22.9573 59.2514 23.1245 58.8483 23.1245 58.4374C23.1245 58.0264 22.9573 57.6233 22.6667 57.3327C22.3761 57.0421 21.9729 56.8749 21.562 56.8749C21.1511 56.8749 20.7481 57.0421 20.4573 57.3327Z" fill="#2A1846"/>
<path d="M29.0516 57.3327C28.7609 57.6233 28.5938 58.0264 28.5938 58.4374C28.5938 58.8483 28.7609 59.2514 29.0516 59.5421C29.3422 59.8327 29.7453 59.9999 30.1562 59.9999C30.5672 59.9999 30.9703 59.8327 31.2609 59.5421C31.5516 59.2514 31.7188 58.8483 31.7188 58.4374C31.7188 58.0264 31.5516 57.6233 31.2609 57.3327C30.9703 57.0421 30.5672 56.8749 30.1562 56.8749C29.7453 56.8749 29.3423 57.0421 29.0516 57.3327Z" fill="#2A1846"/>
<path d="M37.1504 69.4059C36.7379 69.4059 36.3363 69.5731 36.0457 69.8637C35.7551 70.1543 35.5879 70.5574 35.5879 70.9684C35.5879 71.3793 35.7551 71.7824 36.0457 72.0731C36.3363 72.3637 36.7379 72.5309 37.1504 72.5309C37.5613 72.5309 37.9645 72.3637 38.2551 72.0731C38.5457 71.7824 38.7129 71.3793 38.7129 70.9684C38.7129 70.5574 38.5457 70.1543 38.2551 69.8637C37.9645 69.5731 37.5613 69.4059 37.1504 69.4059Z" fill="black"/>
<path d="M32.0786 11.036C32.4896 11.036 32.8927 10.8704 33.1833 10.5798C33.4739 10.2892 33.6411 9.88603 33.6411 9.4751C33.6411 9.0626 33.4739 8.66104 33.1833 8.36885C32.8927 8.07822 32.4896 7.9126 32.0786 7.9126C31.6661 7.9126 31.2646 8.07822 30.9739 8.36885C30.6817 8.66104 30.5161 9.0626 30.5161 9.4751C30.5161 9.88603 30.6817 10.2892 30.9739 10.5798C31.2646 10.8704 31.666 11.036 32.0786 11.036Z" fill="#2A1846"/>
</svg>
