<svg width="80" height="80" viewBox="0 0 80 80" fill="none" xmlns="http://www.w3.org/2000/svg">
<g clip-path="url(#clip0)">
<path d="M77.7324 46.217C75.8385 39.1492 70.493 33.9282 63.9958 31.8799C53.502 35.163 47.3759 46.1719 50.2483 56.8909C52.1422 63.9594 57.4876 69.1803 63.9848 71.2286C74.478 67.9456 80.6041 56.9366 77.7324 46.217Z" fill="#FFE05F"/>
<path d="M42.1007 46.217C40.1128 38.7976 34.3218 33.4131 27.3864 31.5979C27.3369 31.6113 27.2869 31.6229 27.2368 31.6364C16.2365 34.5837 9.70817 45.8905 12.6562 56.8909C14.6441 64.3109 20.4351 69.6948 27.3699 71.51C27.42 71.4972 27.47 71.4856 27.52 71.4722C38.5204 68.5248 45.0487 57.2174 42.1007 46.217Z" fill="#0FD08B"/>
<path fill-rule="evenodd" clip-rule="evenodd" d="M40.0259 16.8348C39.1628 16.8348 38.4634 16.1347 38.4634 15.2723V7.81256C38.4634 6.94952 39.1628 6.25006 40.0259 6.25006C40.8889 6.25006 41.5884 6.94952 41.5884 7.81256V15.2723C41.5884 16.1353 40.8889 16.8348 40.0259 16.8348ZM79.2419 45.813C76.7651 36.5698 68.6877 29.9762 59.1418 29.4049C58.2788 29.3549 57.5403 30.0104 57.489 30.8716C57.4377 31.7334 58.0939 32.4731 58.9557 32.525C67.1558 33.0151 74.0955 38.6804 76.2231 46.6217C78.9429 56.7725 72.8973 67.243 62.7472 69.9628C61.1243 70.3979 59.4794 70.6073 57.8516 70.6073C51.4734 70.6073 45.3497 67.3907 41.803 61.9006C43.4381 58.8104 44.3665 55.2917 44.3665 51.5594C44.3665 47.8271 43.4387 44.3085 41.8036 41.2189C43.299 38.9026 45.2997 36.9141 47.6154 35.4486C48.3441 34.9872 48.5614 34.0216 48.1 33.2922C47.6385 32.5635 46.673 32.3462 45.9442 32.8076C43.6481 34.2609 41.6187 36.1548 39.9921 38.3484C35.9454 32.9077 29.4696 29.3762 22.1832 29.3762C9.95117 29.3762 0 39.3274 0 51.5594C0 63.7915 9.95117 73.7427 22.1832 73.7427C29.4714 73.7427 35.9497 70.2093 39.9957 64.7656C42.3798 67.9694 45.6329 70.5218 49.3451 72.0581C52.0618 73.1824 54.9121 73.7482 57.7832 73.7482C59.7095 73.7482 61.6455 73.4936 63.5559 72.9816C75.3705 69.8157 82.4078 57.6276 79.2419 45.813ZM22.1832 70.6171C11.6742 70.6171 3.125 62.0679 3.125 51.5594C3.125 41.051 11.6742 32.5012 22.1832 32.5012C32.6917 32.5012 41.2408 41.051 41.2408 51.5594C41.2408 62.0679 32.6917 70.6171 22.1832 70.6171ZM50.9691 32.0441C51.1571 32.7405 51.7876 33.1995 52.4761 33.1995C52.6116 33.1995 52.7489 33.1818 52.885 33.1445L52.9235 33.1342C53.7578 32.9163 54.2583 32.0624 54.0398 31.228C53.8219 30.3925 52.968 29.8926 52.133 30.1111L52.0696 30.1282C51.2364 30.3528 50.7439 31.2109 50.9691 32.0441ZM60.8658 47.6233C61.5268 48.0047 62.2598 48.1994 63.0026 48.1994C63.3749 48.1994 63.7497 48.1506 64.1195 48.0517C65.2255 47.7551 66.1502 47.0459 66.7227 46.0541C67.2952 45.0622 67.4478 43.9068 67.1512 42.8009C66.9278 41.9671 66.0708 41.4721 65.2377 41.6961C64.404 41.9195 63.909 42.7759 64.1324 43.6096C64.2129 43.9093 64.172 44.2224 64.0164 44.4916C63.8614 44.7607 63.6105 44.953 63.3102 45.0329C63.0111 45.1135 62.6974 45.0726 62.4289 44.917C62.1597 44.7619 61.9674 44.5111 61.8869 44.2114C61.6635 43.3777 60.8066 42.8827 59.9734 43.1067C59.1397 43.3301 58.6447 44.1864 58.8681 45.0201C59.1647 46.1261 59.8739 47.0508 60.8658 47.6233ZM49.487 51.8213C48.7442 51.8213 48.0111 51.626 47.3501 51.2452C46.3583 50.6727 45.6491 49.748 45.3525 48.6414C45.1291 47.8083 45.6241 46.9513 46.4578 46.7279C47.2909 46.5039 48.1479 46.9989 48.3713 47.8327C48.4518 48.1324 48.6441 48.3832 48.9132 48.5382C49.1818 48.6939 49.4949 48.7348 49.7952 48.6542C50.0949 48.5743 50.3457 48.382 50.5008 48.1128C50.6564 47.8437 50.6973 47.5306 50.6167 47.2309C50.3933 46.3971 50.8883 45.5408 51.7221 45.3174C52.5552 45.0934 53.4121 45.5884 53.6355 46.4222C53.9322 47.5281 53.7796 48.6835 53.2071 49.6753C52.6346 50.6672 51.7099 51.3764 50.6039 51.673C50.234 51.7725 49.8593 51.8213 49.487 51.8213ZM55.6955 61.195C56.6855 61.7669 57.7835 62.0586 58.8968 62.0586C59.4547 62.0586 60.0162 61.9854 60.5692 61.8365C63.9902 60.9203 66.0275 57.3913 65.1108 53.9703C64.8874 53.1371 64.0305 52.6415 63.1973 52.8655C62.3636 53.0889 61.8692 53.9459 62.0926 54.779C62.5632 56.5356 61.517 58.3477 59.7605 58.8183C58.9096 59.046 58.021 58.9288 57.2586 58.4887C56.4957 58.0486 55.95 57.337 55.7218 56.4868C55.4984 55.653 54.642 55.158 53.8083 55.3814C52.9746 55.6048 52.4802 56.4617 52.7036 57.2955C53.1473 58.9526 54.2099 60.3375 55.6955 61.195ZM16.3486 48.2452C16.3486 49.1083 17.0487 49.8077 17.9117 49.8077C18.7742 49.8077 19.4742 49.1083 19.4742 48.2452C19.4742 45.8813 17.5504 43.9581 15.1865 43.9581C12.8226 43.9581 10.8994 45.8813 10.8994 48.2452C10.8994 49.1083 11.5989 49.8077 12.4619 49.8077C13.325 49.8077 14.0244 49.1083 14.0244 48.2452C14.0244 47.6044 14.5457 47.0831 15.1865 47.0831C15.8274 47.0831 16.3486 47.6044 16.3486 48.2452ZM31.9039 49.8077C31.0409 49.8077 30.3414 49.1083 30.3414 48.2452C30.3414 47.6044 29.8202 47.0831 29.1793 47.0831C28.5385 47.0831 28.0172 47.6044 28.0172 48.2452C28.0172 49.1083 27.3171 49.8077 26.4547 49.8077C25.5917 49.8077 24.8916 49.1083 24.8916 48.2452C24.8916 45.8813 26.8154 43.9581 29.1793 43.9581C31.5432 43.9581 33.4664 45.8813 33.4664 48.2452C33.4664 49.1083 32.767 49.8077 31.9039 49.8077ZM15.7603 55.7819C15.7603 59.3237 18.6411 62.2046 22.183 62.2046C25.7242 62.2046 28.6057 59.3237 28.6057 55.7819C28.6057 54.9194 27.9062 54.2194 27.0432 54.2194C26.1802 54.2194 25.4807 54.9194 25.4807 55.7819C25.4807 57.6001 24.0012 59.0796 22.183 59.0796C20.3647 59.0796 18.8853 57.6007 18.8853 55.7819C18.8853 54.9194 18.1858 54.2194 17.3228 54.2194C16.4597 54.2194 15.7603 54.9194 15.7603 55.7819ZM38.9204 22.9755C39.2122 23.2661 39.6138 23.4333 40.0251 23.4333C40.4371 23.4333 40.8387 23.2661 41.1299 22.9755C41.4216 22.685 41.5876 22.2822 41.5876 21.8708C41.5876 21.46 41.4216 21.0566 41.1299 20.7661C40.8387 20.4755 40.4371 20.3083 40.0251 20.3083C39.6138 20.3083 39.2122 20.4755 38.9204 20.7661C38.6293 21.0566 38.4639 21.46 38.4639 21.8708C38.4639 22.2822 38.6293 22.685 38.9204 22.9755ZM31.9648 20.7251C31.565 20.7251 31.1652 20.5725 30.86 20.2673L25.68 15.0873C25.0702 14.4775 25.0702 13.4882 25.68 12.8778C26.2903 12.2675 27.2797 12.2675 27.89 12.8778L33.0701 18.0579C33.6798 18.6676 33.6798 19.657 33.0701 20.2673C32.7649 20.5725 32.3651 20.7251 31.9648 20.7251ZM47.0775 20.1306C47.3827 20.4352 47.7819 20.5878 48.1816 20.5878C48.582 20.5878 48.9818 20.4352 49.287 20.13L54.323 15.091C54.9327 14.4806 54.9327 13.4912 54.3224 12.8809C53.712 12.2711 52.7227 12.2718 52.1123 12.8815L47.0763 17.9206C46.4666 18.5315 46.4666 19.5203 47.0775 20.1306Z" fill="#2A1846"/>
</g>
<defs>
<clipPath id="clip0">
<rect width="80" height="80" fill="white"/>
</clipPath>
</defs>
</svg>
