<svg width="80" height="80" viewBox="0 0 80 80" fill="none" xmlns="http://www.w3.org/2000/svg">
<path d="M65.021 49.4105V33.0708C65.021 30.7408 63.1322 28.8521 60.8022 28.8521C58.4722 28.8521 56.5835 30.7408 56.5835 33.0708V29.7153C56.5835 27.3853 54.6947 25.4966 52.3647 25.4966C50.0347 25.4966 48.146 27.3853 48.146 29.7153C48.146 27.3853 46.2572 25.4966 43.9272 25.4966C42.3194 25.4966 40.9221 26.3961 40.2101 27.7192V41.0574L35.1197 32.705C34.2752 31.3192 32.7885 30.5606 31.271 30.5824V45.0517L34.5485 51.8381C38.0091 59.0038 45.2649 63.5572 53.2224 63.5572C55.8237 63.5572 58.3124 63.0769 60.6066 62.2023C63.3718 58.6786 65.021 54.2372 65.021 49.4105Z" fill="#FFE05F"/>
<path fill-rule="evenodd" clip-rule="evenodd" d="M57.9063 28.0705C58.7587 27.575 59.7474 27.2897 60.8022 27.2897C63.9901 27.2897 66.5835 29.8831 66.5835 33.0708V49.4103C66.5835 50.7619 66.4615 52.1158 66.221 53.4347C66.0833 54.1889 65.4258 54.7172 64.6855 54.7172C64.5924 54.7172 64.4982 54.7087 64.4033 54.6916C63.5544 54.5367 62.9918 53.7231 63.1466 52.8741C63.3537 51.7397 63.4585 50.5744 63.4585 49.4105V33.0708C63.4585 31.6061 62.2669 30.4145 60.8022 30.4145C59.3376 30.4145 58.146 31.6061 58.146 33.0708V35.7731V39.9389C58.146 40.8019 57.4465 41.5014 56.5835 41.5014C55.7205 41.5014 55.021 40.8019 55.021 39.9389V35.7731V33.0708V29.7153C55.021 28.2506 53.8294 27.0591 52.3647 27.0591C50.9001 27.0591 49.7085 28.2506 49.7085 29.7153V31.2233V39.9388C49.7085 40.8017 49.009 41.5013 48.146 41.5013C47.283 41.5013 46.5835 40.8017 46.5835 39.9388V31.2233V29.7153C46.5835 28.2506 45.3919 27.0591 43.9272 27.0591C42.4626 27.0591 41.271 28.2506 41.271 29.7153V39.9388C41.271 40.8017 40.5715 41.5013 39.7085 41.5013C38.8455 41.5013 38.146 40.8017 38.146 39.9388V13.7812C38.146 12.3166 36.9544 11.125 35.4897 11.125C34.0251 11.125 32.8335 12.3166 32.8335 13.7812V22.0198C32.8335 22.8828 32.134 23.5823 31.271 23.5823C30.408 23.5823 29.7085 22.8828 29.7085 22.0198V13.7812C29.7085 10.5934 32.3019 8 35.4897 8C38.6776 8 41.271 10.5934 41.271 13.7812V24.583C42.0671 24.1694 42.9699 23.9341 43.9272 23.9341C45.5901 23.9341 47.0904 24.6408 48.146 25.7684C49.2018 24.6408 50.7018 23.9341 52.3647 23.9341C54.9812 23.9341 57.196 25.6817 57.9063 28.0705ZM44.2829 68.5856C49.1554 68.5856 53.7998 66.7563 57.3604 63.4345C57.9912 62.8459 58.9801 62.8802 59.5687 63.5111C60.1574 64.1422 60.1231 65.1308 59.4921 65.7195C55.3509 69.583 49.9496 71.7106 44.2831 71.7106C40.0845 71.7106 35.9854 70.5309 32.4292 68.2991C28.8729 66.0673 26.0281 62.8892 24.2021 59.1084L17.0048 44.2056C15.6476 41.3958 16.7015 37.9725 19.4038 36.4124C22.2446 34.772 25.8074 35.6814 27.5146 38.4827L29.7084 42.082V32.3356C29.7084 31.4727 30.4079 30.7731 31.2709 30.7731C32.1339 30.7731 32.8334 31.4727 32.8334 32.3356V47.6481C32.8334 48.3484 32.3674 48.9633 31.6932 49.1525C31.019 49.3417 30.3012 49.0592 29.9367 48.4613L24.8462 40.1089C24.0431 38.7914 22.3029 38.3472 20.9664 39.1186C19.6737 39.865 19.1695 41.5025 19.8187 42.8466L27.016 57.7494C30.1951 64.3322 36.9728 68.5856 44.2829 68.5856ZM62.5063 57.7528C62.0954 57.7528 61.6923 57.92 61.4017 58.2106C61.111 58.5012 60.9438 58.9044 60.9438 59.3153C60.9438 59.7278 61.111 60.1294 61.4017 60.42C61.6923 60.7106 62.0954 60.8778 62.5063 60.8778C62.9173 60.8778 63.3204 60.7106 63.611 60.42C63.9017 60.1294 64.0688 59.7278 64.0688 59.3153C64.0688 58.9044 63.9017 58.5012 63.611 58.2106C63.3204 57.92 62.9173 57.7528 62.5063 57.7528ZM32.3757 28.4403C32.0851 28.7309 31.6819 28.8981 31.271 28.8981C30.8601 28.8981 30.4569 28.7309 30.1663 28.4403C29.8757 28.1497 29.7085 27.7466 29.7085 27.3356C29.7085 26.9247 29.8757 26.5216 30.1663 26.2309C30.4569 25.9403 30.8601 25.7731 31.271 25.7731C31.6819 25.7731 32.0851 25.9403 32.3757 26.2309C32.6663 26.5216 32.8335 26.9247 32.8335 27.3356C32.8335 27.7466 32.6663 28.1497 32.3757 28.4403Z" fill="#2A1846"/>
</svg>
