<svg width="196" height="28" viewBox="0 0 196 28" fill="none" xmlns="http://www.w3.org/2000/svg">
<path d="M41.9147 10.0951L37.6947 3.00513C36.7197 1.36013 34.9947 0.380127 33.0797 0.380127C31.1647 0.380127 29.4397 1.36013 28.4647 3.00513L20.6147 16.2002C20.1797 16.9252 19.4197 17.3602 18.5747 17.3602C18.5747 17.3602 18.5747 17.3602 18.5697 17.3602C17.7247 17.3602 16.9597 16.9252 16.5297 16.1952L12.9497 10.1451C12.4197 9.25014 11.5897 8.62014 10.6247 8.34014L12.8897 4.53514C13.3247 3.81513 14.0847 3.38013 14.9297 3.38013C15.7747 3.38013 16.5347 3.81513 16.9697 4.54013L19.6697 9.07514C20.0947 9.78514 21.0147 10.0201 21.7247 9.59514C22.4347 9.17014 22.6697 8.25014 22.2447 7.54014L19.5447 3.00513C18.5697 1.36013 16.8447 0.380127 14.9297 0.380127C13.0147 0.380127 11.2897 1.36013 10.3147 3.00513L0.794634 19.0052C-0.245368 20.7502 -0.265368 22.8452 0.739634 24.6152C1.71464 26.3302 3.46464 27.3552 5.40964 27.3552H42.5997C44.5497 27.3552 46.2947 26.3302 47.2697 24.6152C48.2747 22.8502 48.2547 20.7502 47.2147 19.0052L41.9147 10.0951ZM31.0397 4.54013C31.4697 3.81513 32.2347 3.38013 33.0797 3.38013C33.9247 3.38013 34.6847 3.81513 35.1197 4.54013L37.3597 8.30014C36.3947 8.58014 35.5597 9.21014 35.0297 10.1151L31.4747 16.1652C31.0447 16.8952 30.2847 17.3352 29.4347 17.3352H29.4297C28.5847 17.3352 27.8197 16.9002 27.3897 16.1752L25.7547 13.4252L31.0397 4.54013ZM44.6647 23.1352C44.2247 23.9152 43.4697 24.3602 42.5997 24.3602H5.40964C4.53964 24.3602 3.78964 23.9152 3.34464 23.1352C2.87964 22.3202 2.88964 21.3502 3.36964 20.5452L5.32964 17.2502L6.67965 14.9802L8.64965 11.6751C8.90965 11.2351 9.33465 11.1851 9.50965 11.1851C9.68965 11.1751 10.1097 11.2301 10.3697 11.6751L13.9447 17.7202C14.9197 19.3702 16.6447 20.3552 18.5647 20.3602C18.5697 20.3602 18.5697 20.3602 18.5747 20.3602C20.4897 20.3602 22.2147 19.3802 23.1947 17.7352L24.0097 16.3652L24.8147 17.7152C25.7947 19.3602 27.5197 20.3402 29.4347 20.3402C29.4397 20.3402 29.4447 20.3402 29.4497 20.3402C31.3697 20.3352 33.0947 19.3402 34.0697 17.6852L37.6247 11.6351C37.8847 11.1901 38.3147 11.1401 38.4847 11.1401C38.4847 11.1401 38.4847 11.1401 38.4897 11.1401C38.6647 11.1401 39.0847 11.1901 39.3497 11.6301L42.1897 16.4052L44.6497 20.5452C45.1197 21.3452 45.1297 22.3152 44.6647 23.1352Z" fill="#0FD08B"/>
<path fill-rule="evenodd" clip-rule="evenodd" d="M124.36 7.18008C124.36 5.93508 125.315 4.95508 126.56 4.95508C127.805 4.95508 128.775 5.93508 128.77 7.18008C128.77 8.42509 127.805 9.38009 126.56 9.38009C125.315 9.38009 124.36 8.42509 124.36 7.18008ZM84.2098 11.0352C85.9698 11.0352 87.1998 11.7502 88.0498 12.7952V11.3802H91.4248V24.2102H88.0498V22.7952C87.2148 23.8302 85.9698 24.5452 84.2098 24.5452C80.6748 24.5452 77.9998 21.6452 77.9998 17.7902C77.9998 13.9352 80.6748 11.0352 84.2098 11.0352ZM81.5348 17.7902C81.5348 19.7502 82.8198 21.3252 84.8448 21.3252C86.8198 21.3252 88.1548 19.8152 88.1548 17.7902C88.1548 15.7652 86.8198 14.2552 84.8448 14.2552C82.8198 14.2552 81.5348 15.8302 81.5348 17.7902ZM70.7948 20.3851L67.8798 11.3801H64.2348L61.3598 20.3451L58.6198 11.3801H54.9397L59.2848 24.2152H63.2048L66.0248 15.5401L68.8698 24.2152H72.8198L77.1648 11.3801H73.5498L70.7948 20.3851ZM100.59 17.9751L97.0698 11.3801H93.1448L98.6848 21.4851L95.1948 27.7602H98.9548L107.795 11.3801H104.01L100.59 17.9751ZM116.605 11.0352C115.15 11.0352 113.745 11.5252 112.83 12.8902V11.3802H109.465V24.2152H112.92V17.1802C112.92 15.2452 114.15 14.2802 115.635 14.2802C117.21 14.2802 118.14 15.3002 118.14 17.1552V24.2152H121.595V16.0402C121.595 13.0602 119.515 11.0352 116.605 11.0352ZM128.31 11.3801H124.855V24.2152H128.31V11.3801ZM143.05 13.2352C144.045 11.6052 145.73 11.0352 147.41 11.0352C150.43 11.0352 152.47 13.0602 152.465 16.0402V24.2152H149.02V17.1552C149.02 15.3002 148.08 14.2802 146.515 14.2802C145.03 14.2802 143.8 15.2452 143.8 17.1802V24.2152H140.345V17.1552C140.345 15.3002 139.415 14.2802 137.84 14.2802C136.355 14.2802 135.125 15.2452 135.125 17.1802V24.2152H131.67V11.3802H135.035V12.8902C135.95 11.5252 137.355 11.0352 138.81 11.0352C140.665 11.0352 142.19 11.8702 143.05 13.2352ZM166.35 5.36523H162.215L159.555 9.54024H162.85L166.35 5.36523ZM154.935 17.7902C154.935 13.9202 157.875 11.0352 161.86 11.0352C165.86 11.0352 168.81 13.9202 168.815 17.7902C168.815 21.6602 165.86 24.5452 161.86 24.5452C157.875 24.5452 154.935 21.6602 154.935 17.7902ZM158.455 17.7902C158.455 19.8702 159.915 21.3252 161.86 21.3252C163.805 21.3252 165.275 19.8702 165.275 17.7902C165.275 15.7102 163.805 14.2552 161.86 14.2552C159.91 14.2552 158.455 15.7102 158.455 17.7902ZM176.505 20.5701L173.18 11.3801H169.42L174.495 24.2152H178.48L183.5 11.3801H179.855L176.505 20.5701ZM184.795 7.18008C184.795 5.93508 185.75 4.95508 186.995 4.95508C188.24 4.95508 189.205 5.93508 189.205 7.18008C189.205 8.42509 188.24 9.38009 186.995 9.38009C185.75 9.38009 184.795 8.42509 184.795 7.18008ZM188.74 11.3801H185.285V24.2152H188.74V11.3801ZM192.01 5.14014H195.465V24.2152H192.01V5.14014Z" fill="#2A1846"/>
</svg>
