<svg width="60" height="60" viewBox="0 0 60 60" fill="none" xmlns="http://www.w3.org/2000/svg">
<circle cx="30" cy="30" r="20" stroke="#442E83" stroke-width="2"/>
<path d="M24.62 26.16V37.16H26.74V23.16H25.88L22 25.48V27.72L24.62 26.16Z" fill="#0FD08B"/>
<path d="M29.3442 33.04C29.3442 35.74 31.4242 37.32 33.8242 37.32C36.2242 37.32 38.3042 35.74 38.3042 33.04C38.3042 31.44 37.5242 30.28 36.3842 29.62C37.2442 28.92 37.7842 27.96 37.7842 26.78C37.7842 24.7 36.1642 23 33.8242 23C31.4842 23 29.8642 24.7 29.8642 26.78C29.8642 27.96 30.4042 28.92 31.2642 29.62C30.1242 30.28 29.3442 31.44 29.3442 33.04ZM31.4642 33.04C31.4642 31.54 32.5242 30.76 33.8242 30.76C35.1242 30.76 36.1842 31.54 36.1842 33.04C36.1842 34.54 35.1242 35.4 33.8242 35.4C32.5242 35.4 31.4642 34.54 31.4642 33.04ZM31.9242 26.8C31.9242 25.68 32.7042 24.84 33.8242 24.84C34.9442 24.84 35.7242 25.68 35.7242 26.8C35.7242 27.94 34.9442 28.78 33.8242 28.78C32.7042 28.78 31.9242 27.94 31.9242 26.8Z" fill="#0FD08B"/>
</svg>
