<svg width="60" height="60" viewBox="0 0 60 60" fill="none" xmlns="http://www.w3.org/2000/svg">
<g id="Illustrations / Banco">
<path id="Bank" fill-rule="evenodd" clip-rule="evenodd" d="M30 7.86084L51.9577 19.8378C52.6002 20.1882 53 20.8617 53 21.5936V25.9999C53 27.1045 52.1046 27.9999 51 27.9999H9C7.89543 27.9999 7 27.1045 7 25.9999V21.5936C7 20.8617 7.39977 20.1882 8.0423 19.8378L30 7.86084ZM30 10.139L9 21.5936V25.9999H51V21.5936L30 10.139ZM35 44.9999V30.9999H37V44.9999H47V30.9999H49V44.9999H51C52.1046 44.9999 53 45.8954 53 46.9999V50.9999C53 51.0846 52.9947 51.168 52.9845 51.2499H56V53.2499H4V51.2499H7.01547C7.00526 51.168 7 51.0846 7 50.9999V46.9999C7 45.8954 7.89543 44.9999 9 44.9999H11V30.9999H13V44.9999H23V30.9999H25V44.9999H35ZM9 51V47H51V51H9Z" fill="#442E83"/>
<rect id="Green" x="9" y="48" width="42" height="2" fill="#0FD08B"/>
<path id="Subtract" fill-rule="evenodd" clip-rule="evenodd" d="M26 19C26 21.2091 27.7909 23 30 23C32.2091 23 34 21.2091 34 19C34 16.7909 32.2091 15 30 15C27.7909 15 26 16.7909 26 19ZM32 19C32 20.1046 31.1046 21 30 21C28.8954 21 28 20.1046 28 19C28 17.8954 28.8954 17 30 17C31.1046 17 32 17.8954 32 19Z" fill="#0FD08B"/>
</g>
</svg>
