<svg width="48" height="48" viewBox="0 0 48 48" fill="none" xmlns="http://www.w3.org/2000/svg">
<path d="M46.417 24C46.417 36.7141 36.2386 47 23.7085 47C11.1784 47 1 36.7141 1 24C1 11.2859 11.1784 1 23.7085 1C36.2386 1 46.417 11.2859 46.417 24Z" stroke="#0FD08B" stroke-width="2"/>
<path d="M23.248 30.203C22.6 30.203 21.988 30.077 21.412 29.825C20.836 29.573 20.335 29.216 19.909 28.754C19.489 28.292 19.186 27.746 19 27.116L21.097 26.549C21.247 27.065 21.52 27.464 21.916 27.746C22.318 28.022 22.759 28.157 23.239 28.151C23.665 28.151 24.046 28.052 24.382 27.854C24.718 27.656 24.982 27.389 25.174 27.053C25.366 26.711 25.462 26.33 25.462 25.91C25.462 25.268 25.255 24.731 24.841 24.299C24.427 23.867 23.893 23.651 23.239 23.651C23.041 23.651 22.846 23.678 22.654 23.732C22.468 23.786 22.288 23.861 22.114 23.957L21.124 22.247L25.48 18.521L25.669 19.043H19.504V17H27.451V19.052L23.95 22.418L23.932 21.779C24.718 21.833 25.387 22.052 25.939 22.436C26.497 22.82 26.923 23.315 27.217 23.921C27.517 24.527 27.667 25.19 27.667 25.91C27.667 26.726 27.466 27.458 27.064 28.106C26.668 28.754 26.134 29.267 25.462 29.645C24.796 30.017 24.058 30.203 23.248 30.203Z" fill="#0FD08B"/>
</svg>
