<svg width="48" height="48" viewBox="0 0 48 48" fill="none" xmlns="http://www.w3.org/2000/svg">
<path d="M46.417 24C46.417 36.7141 36.2386 47 23.7085 47C11.1784 47 1 36.7141 1 24C1 11.2859 11.1784 1 23.7085 1C36.2386 1 46.417 11.2859 46.417 24Z" stroke="#0FD08B" stroke-width="2"/>
<path d="M19 30.212V28.322L24.544 23.381C24.976 22.997 25.276 22.634 25.444 22.292C25.612 21.95 25.696 21.62 25.696 21.302C25.696 20.87 25.603 20.486 25.417 20.15C25.231 19.808 24.973 19.538 24.643 19.34C24.319 19.142 23.944 19.043 23.518 19.043C23.068 19.043 22.669 19.148 22.321 19.358C21.979 19.562 21.712 19.835 21.52 20.177C21.328 20.519 21.238 20.888 21.25 21.284H19.018C19.018 20.42 19.21 19.667 19.594 19.025C19.984 18.383 20.518 17.885 21.196 17.531C21.88 17.177 22.669 17 23.563 17C24.391 17 25.135 17.186 25.795 17.558C26.455 17.924 26.974 18.434 27.352 19.088C27.73 19.736 27.919 20.483 27.919 21.329C27.919 21.947 27.835 22.466 27.667 22.886C27.499 23.306 27.247 23.693 26.911 24.047C26.581 24.401 26.17 24.794 25.678 25.226L21.745 28.709L21.547 28.169H27.919V30.212H19Z" fill="#0FD08B"/>
</svg>
