<svg width="60" height="60" viewBox="0 0 60 60" fill="none" xmlns="http://www.w3.org/2000/svg">
<path d="M5 20V26H55V20H5Z" fill="#0FD08B"/>
<path d="M46 38V40H51V38H46Z" fill="#0FD08B"/>
<path d="M9 38V40H38V38H9Z" fill="#0FD08B"/>
<path fill-rule="evenodd" clip-rule="evenodd" d="M52 12H8C5.23858 12 3 14.2386 3 17V43C3 45.7614 5.23858 48 8 48H22.0619C22.554 51.9463 25.9204 55 30 55C34.0796 55 37.446 51.9463 37.9381 48H52C54.7614 48 57 45.7614 57 43V17C57 14.2386 54.7614 12 52 12ZM37.9381 46H52C53.6569 46 55 44.6569 55 43V17C55 15.3431 53.6569 14 52 14H8C6.34315 14 5 15.3431 5 17V43C5 44.6569 6.34315 46 8 46H22.0619C22.554 42.0537 25.9204 39 30 39C34.0796 39 37.446 42.0537 37.9381 46ZM36 47C36 50.3137 33.3137 53 30 53C26.6863 53 24 50.3137 24 47C24 43.6863 26.6863 41 30 41C33.3137 41 36 43.6863 36 47Z" fill="#442E83"/>
<path d="M9 34V36H15V34H9Z" fill="#0FD08B"/>
<path d="M30 34V36H38V34H30Z" fill="#0FD08B"/>
<path d="M17 34V36H28V34H17Z" fill="#0FD08B"/>
<path fill-rule="evenodd" clip-rule="evenodd" d="M33.4142 44.9999L28 50.4141L26.5858 48.9999L32 43.5857L33.4142 44.9999Z" fill="#442E83"/>
<path fill-rule="evenodd" clip-rule="evenodd" d="M28 43.5857L33.4142 48.9999L32 50.4141L26.5858 44.9999L28 43.5857Z" fill="#442E83"/>
</svg>
