<svg width="60" height="60" viewBox="0 0 60 60" fill="none" xmlns="http://www.w3.org/2000/svg">
<path fill-rule="evenodd" clip-rule="evenodd" d="M52 12H8C5.23858 12 3 14.2386 3 17V43C3 45.7614 5.23858 48 8 48H52C54.7614 48 57 45.7614 57 43V17C57 14.2386 54.7614 12 52 12ZM5 17C5 15.3431 6.34315 14 8 14H52C53.6569 14 55 15.3431 55 17V43C55 44.6569 53.6569 46 52 46H8C6.34315 46 5 44.6569 5 43V17Z" fill="#442E83"/>
<path d="M5 20V26H55V20H5Z" fill="#0FD08B"/>
<path d="M46 38V40H51V38H46Z" fill="#0FD08B"/>
<path d="M9 38V40H38V38H9Z" fill="#0FD08B"/>
<path d="M9 34V36H15V34H9Z" fill="#0FD08B"/>
<path d="M30 34V36H38V34H30Z" fill="#0FD08B"/>
<path d="M17 34V36H28V34H17Z" fill="#0FD08B"/>
</svg>
