<svg width="60" height="60" viewBox="0 0 60 60" fill="none" xmlns="http://www.w3.org/2000/svg">
<path fill-rule="evenodd" clip-rule="evenodd" d="M52 12H8C5.23858 12 3 14.2386 3 17V43C3 45.7614 5.23858 48 8 48H52C54.7614 48 57 45.7614 57 43V17C57 14.2386 54.7614 12 52 12ZM8 14C6.34315 14 5 15.3431 5 17V43C5 44.6569 6.34315 46 8 46H52C53.6569 46 55 44.6569 55 43V17C55 15.3431 53.6569 14 52 14H8ZM27 39V21H9V39H27ZM31 23V21H51V23H31ZM18 31C16.8954 31 16 29.9926 16 28.75V27.25C16 26.0074 16.8954 25 18 25C19.1046 25 20 26.0074 20 27.25V28.75C20 29.9926 19.1046 31 18 31ZM20.5 31H20.1208C19.526 31.496 18.7968 31.8 18 31.8C17.2032 31.8 16.474 31.496 15.8792 31H15.5C14.1193 31 13 32.2536 13 33.8C13 34.4627 13.4797 35 14.0714 35H21.9286C22.5203 35 23 34.4627 23 33.8C23 32.2536 21.8807 31 20.5 31ZM31 28V30H43V28H31ZM31 37V35H47V37H31ZM11 23V37H25V23H11Z" fill="#442E83"/>
<path fill-rule="evenodd" clip-rule="evenodd" d="M31 21V23H51V21H31ZM31 28V30H43V28H31ZM31 37V35H47V37H31Z" fill="#0FD08B"/>
</svg>
