<svg width="24" height="25" viewBox="0 0 24 25" fill="none" xmlns="http://www.w3.org/2000/svg">
<path d="M20.8958 2.99805L3.10417 2.99805C2.49417 2.99805 2 3.49221 2 4.10221L2 21.8947C2 22.5039 2.49417 22.998 3.10417 22.998H12.6833L12.6833 15.253H10.0767V12.2347H12.6833V10.0089C12.6833 7.42555 14.2608 6.01888 16.5658 6.01888C17.67 6.01888 18.6183 6.10138 18.895 6.13805V8.83805L17.2967 8.83888C16.0433 8.83888 15.8008 9.43471 15.8008 10.308V12.2355L18.79 12.2355L18.4008 15.2539H15.8008L15.8008 22.998H20.8975C21.5058 22.998 22 22.5039 22 21.8939L22 4.10221C22 3.49221 21.5058 2.99805 20.8958 2.99805Z" fill="white"/>
</svg>
