<svg width="72" height="64" viewBox="0 0 72 64" fill="none" xmlns="http://www.w3.org/2000/svg">
<g clip-path="url(#clip0)">
<path d="M68.0344 21.8754C66.4207 15.839 61.8528 11.3821 56.3116 9.63184C47.3467 12.4323 42.1214 21.8327 44.5718 30.9855C46.1855 37.0219 50.7534 41.4787 56.3031 43.229C65.2595 40.4285 70.4933 31.0282 68.0344 21.8754Z" fill="#FFCC3E"/>
<path d="M37.6133 21.8752C35.9143 15.54 30.9707 10.9465 25.0539 9.39258C25.0112 9.40112 24.9685 9.40965 24.9258 9.42673C15.534 11.9455 9.95862 21.5934 12.4773 30.9853C14.1764 37.3205 19.1199 41.914 25.0368 43.4679C25.0795 43.4593 25.1222 43.4508 25.1649 43.4337C34.5567 40.9236 40.1321 31.267 37.6133 21.8752Z" fill="#0FD08B"/>
<path fill-rule="evenodd" clip-rule="evenodd" d="M20.6054 44.0395C10.8977 44.0395 3 36.1418 3 26.434C3 16.7263 10.8977 8.82861 20.6054 8.82861C30.3132 8.82861 38.2109 16.7263 38.2109 26.434C38.2109 36.1418 30.3217 44.0395 20.6054 44.0395Z" stroke="#2A1846" stroke-width="2" stroke-miterlimit="10" stroke-linecap="round" stroke-linejoin="round"/>
<path d="M51.9315 20.851C52.1877 21.7987 52.7939 22.5842 53.6391 23.0709C54.2026 23.3953 54.8259 23.5661 55.4663 23.5661C55.7822 23.5661 56.1066 23.5234 56.4225 23.438C57.3702 23.1819 58.1557 22.5757 58.6424 21.7304C59.1291 20.8852 59.2657 19.8948 59.0095 18.9556" stroke="#2A1846" stroke-width="2" stroke-miterlimit="10" stroke-linecap="round" stroke-linejoin="round"/>
<path d="M47.4662 22.0459C47.7224 22.9936 47.5858 23.9755 47.0991 24.8208C46.6124 25.666 45.8184 26.2722 44.8792 26.5284C44.5633 26.6137 44.2474 26.6564 43.9229 26.6564C43.2911 26.6564 42.6593 26.4857 42.0958 26.1612C41.2505 25.6746 40.6443 24.8805 40.3882 23.9413" stroke="#2A1846" stroke-width="2" stroke-miterlimit="10" stroke-linecap="round" stroke-linejoin="round"/>
<path d="M46.6721 31.3354C47.0478 32.7527 47.9614 33.9309 49.225 34.6652C50.0703 35.1519 51.0094 35.3995 51.9572 35.3995C52.4353 35.3995 52.9134 35.3397 53.383 35.2116C56.303 34.4261 58.0448 31.4122 57.2593 28.4922" stroke="#2A1846" stroke-width="2" stroke-miterlimit="10" stroke-linecap="round" stroke-linejoin="round"/>
<path d="M18.3002 23.6086C18.3002 21.5936 16.6609 19.9458 14.6374 19.9458C12.6139 19.9458 10.9746 21.5851 10.9746 23.6086" stroke="#2A1846" stroke-width="2" stroke-miterlimit="10" stroke-linecap="round" stroke-linejoin="round"/>
<path d="M22.9193 23.6086C22.9193 21.5936 24.5586 19.9458 26.5821 19.9458C28.6056 19.9458 30.2449 21.5851 30.2449 23.6086" stroke="#2A1846" stroke-width="2" stroke-miterlimit="10" stroke-linecap="round" stroke-linejoin="round"/>
<path d="M15.1241 30.0376C15.1241 33.0601 17.5831 35.519 20.6056 35.519C23.628 35.519 26.087 33.0601 26.087 30.0376" stroke="#2A1846" stroke-width="2" stroke-miterlimit="10" stroke-linecap="round" stroke-linejoin="round"/>
<path fill-rule="evenodd" clip-rule="evenodd" d="M51.0351 8.82031C44.5462 8.82031 38.8769 12.3636 35.8203 17.606C37.3401 20.2101 38.2195 23.2154 38.2195 26.4343C38.2195 29.6531 37.3401 32.6585 35.8203 35.2626C38.8769 40.505 44.5376 44.0397 51.0351 44.0397C60.7428 44.0397 68.6405 36.142 68.6405 26.4343C68.6405 16.718 60.7428 8.82031 51.0351 8.82031Z" stroke="#2A1846" stroke-width="2" stroke-miterlimit="10" stroke-linecap="round" stroke-linejoin="round"/>
<path d="M36.0599 53.1553L37.8719 63.7947" stroke="#2A1846" stroke-width="2" stroke-miterlimit="10" stroke-linecap="round" stroke-linejoin="round"/>
<path d="M38.8258 49.0254L46.6833 54.1891" stroke="#2A1846" stroke-width="2" stroke-miterlimit="10" stroke-linecap="round" stroke-linejoin="round"/>
<path d="M32.2087 50.6665L26.795 58.9045" stroke="#2A1846" stroke-width="2" stroke-miterlimit="10" stroke-linecap="round" stroke-linejoin="round"/>
</g>
<defs>
<clipPath id="clip0">
<rect width="72" height="64" fill="white"/>
</clipPath>
</defs>
</svg>
