<svg width="64" height="64" viewBox="0 0 64 64" fill="none" xmlns="http://www.w3.org/2000/svg">
<path d="M63.9412 32.0063C63.9412 36.4197 63.0596 40.6197 61.4596 44.4397C59.84 48.313 57.489 51.793 54.5828 54.6863C54.3673 54.9063 54.1453 55.1197 53.9233 55.3263C48.4049 60.5063 41.0449 63.673 32.9665 63.673C31.5428 63.673 30.1453 63.613 28.7804 63.493C28.5649 63.473 28.3428 63.453 28.1339 63.4263C24.4963 63.0463 21.0743 62.2197 17.9788 60.8663C17.7175 60.7597 17.4628 60.6397 17.2081 60.5197C12.4669 58.293 8.54203 54.7997 5.86448 49.8063C3.3959 45.2063 1.99182 39.333 1.99182 32.0063C1.99182 14.513 15.8563 0.333008 32.9665 0.333008C50.0702 0.333008 63.9412 11.8463 63.9412 32.0063Z" fill="white"/>
<path d="M1.47523 32.4183C1.3351 30.5147 1.38379 28.6274 1.59879 26.7804C2.86025 15.9433 9.95183 6.37738 20.1617 2.45312" stroke="#2A1846" stroke-miterlimit="10" stroke-linecap="round" stroke-linejoin="round"/>
<path d="M61.4596 44.4396C59.84 48.3129 57.489 51.7929 54.5829 54.6862C54.3674 54.9062 54.1453 55.1196 53.9233 55.3262C48.4049 60.5062 41.0449 63.6729 32.9665 63.6729C31.5429 63.6729 30.1453 63.6129 28.7804 63.4929C28.5649 63.4729 28.3429 63.4529 28.1339 63.4262C24.4963 63.0462 21.0743 62.2196 17.9788 60.8662C21.7404 51.2329 27.0041 41.3196 35.1216 36.9796C38.1519 35.3529 41.587 34.5062 45.4923 34.7462C47.2686 34.8529 48.9078 35.1796 50.4033 35.6662C55.5494 37.3462 59.1021 40.9662 61.4596 44.4396Z" fill="#0FD08B"/>
<path d="M37.7927 36.3264L37.0286 35.113L36.7217 35.153C36.3821 35.1997 36.0359 35.2264 35.7029 35.2264C31.2947 35.2264 28.2515 31.093 26.4751 27.6264C25.0123 24.7664 24.6139 21.5597 25.3519 18.5997C26.0833 15.653 27.8531 13.3064 30.3413 11.9797C31.7192 11.2464 33.2147 10.873 34.7886 10.873C38.9551 10.873 43.0172 13.5397 45.1331 17.673L45.3486 18.093L45.7992 17.953C46.7135 17.5264 47.6017 17.313 48.4441 17.313C49.698 17.313 50.8082 17.8197 51.4808 18.6997C52.1078 19.513 52.3037 20.553 52.0425 21.613C51.5135 23.7597 49.6131 26.1864 46.6874 26.433L46.1976 26.473L46.8898 35.393" stroke="#2A1846" stroke-miterlimit="10" stroke-linecap="round" stroke-linejoin="round"/>
<path d="M43.2915 19.4068C44.0817 18.9001 45.2441 18.3601 46.0213 17.8334C45.9886 17.7134 45.5641 17.5668 45.5641 17.4401C45.551 9.45343 36.2972 4.56009 32.1306 10.3734C31.1641 10.8868 26.4947 10.3734 26.1682 13.4534C23.556 12.3401 19.8662 14.5934 22.1388 17.7868C22.5241 18.3268 23.8041 19.2001 24.6204 19.7934C26.867 19.7001 29.0874 19.3668 31.3013 18.8001C33.3584 18.2734 35.1021 17.0268 37.1004 16.5134C39.7649 15.8268 40.5813 17.9001 42.5274 19.0601C42.7821 19.2001 43.0368 19.3068 43.2915 19.4068Z" fill="#2A1846" stroke="#2A1846" stroke-miterlimit="10" stroke-linecap="round" stroke-linejoin="round"/>
<path d="M33.7959 24.6201C34.2648 24.6201 34.6449 24.232 34.6449 23.7534C34.6449 23.2747 34.2648 22.8867 33.7959 22.8867C33.3271 22.8867 32.947 23.2747 32.947 23.7534C32.947 24.232 33.3271 24.6201 33.7959 24.6201Z" fill="#2A1846"/>
<path d="M45.5445 23.1134C45.6033 21.4867 47.0596 20.4134 48.5943 20.84" stroke="#2A1846" stroke-miterlimit="10" stroke-linecap="round" stroke-linejoin="round"/>
<path d="M32.0784 30.8596C30.8245 28.9063 30.0343 26.7663 29.7469 24.4463" stroke="#2A1846" stroke-miterlimit="10" stroke-linecap="round" stroke-linejoin="round"/>
<path d="M27.6441 62.3604C27.7943 59.0871 27.8988 55.7004 27.9445 52.2871" stroke="#2A1846" stroke-miterlimit="10" stroke-linecap="round" stroke-linejoin="round"/>
<path d="M54.0932 53.7599C54.1132 52.6399 54.1132 51.5932 54.0865 50.5732" stroke="#2A1846" stroke-miterlimit="10" stroke-linecap="round" stroke-linejoin="round"/>
</svg>
