<svg width="24" height="24" viewBox="0 0 24 24" fill="none" xmlns="http://www.w3.org/2000/svg">
<g clip-path="url(#clip0)">
<path d="M11.5 18.9999C10.672 18.9999 10 18.3279 10 17.4999C10 16.6719 10.672 15.9999 11.5 15.9999C12.328 15.9999 13 16.6719 13 17.4999C13 18.3279 12.328 18.9999 11.5 18.9999ZM15.811 10.1269C15.502 10.6219 14.915 11.1779 14.049 11.7959C12.648 12.8319 12.686 13.0619 12.686 13.9999H10.229C10.229 13.2669 10.213 12.7039 10.609 12.0189C10.862 11.5799 11.326 11.1129 12 10.6189C12.809 10.0409 13.595 9.48394 13.595 8.51394C13.595 7.60494 12.817 7.28094 11.908 7.28094C10.981 7.28094 9.924 7.58394 8.737 8.18994L7.726 6.15994C9.883 4.95094 13.287 4.40394 15.148 5.91894C16.514 7.03194 16.522 8.98894 15.811 10.1269Z" fill="#2A1846"/>
<path fill-rule="evenodd" clip-rule="evenodd" d="M12 22C17.5228 22 22 17.5228 22 12C22 6.47715 17.5228 2 12 2C6.47715 2 2 6.47715 2 12C2 17.5228 6.47715 22 12 22ZM12 24C18.6274 24 24 18.6274 24 12C24 5.37258 18.6274 0 12 0C5.37258 0 0 5.37258 0 12C0 18.6274 5.37258 24 12 24Z" fill="#2A1846"/>
</g>
<defs>
<clipPath id="clip0">
<path d="M0 0L24 0L24 24L0 24L0 0Z" fill="white"/>
</clipPath>
</defs>
</svg>
