<svg width="24" height="24" viewBox="0 0 24 24" fill="none" xmlns="http://www.w3.org/2000/svg">
<path fill-rule="evenodd" clip-rule="evenodd" d="M24 12C24 18.6274 18.6274 24 12 24C5.37258 24 0 18.6274 0 12C0 5.37258 5.37258 0 12 0C18.6274 0 24 5.37258 24 12ZM10 17.4999C10 18.3279 10.672 18.9999 11.5 18.9999C12.328 18.9999 13 18.3279 13 17.4999C13 16.6719 12.328 15.9999 11.5 15.9999C10.672 15.9999 10 16.6719 10 17.4999ZM14.049 11.7959C14.915 11.1779 15.502 10.6219 15.811 10.1269C16.522 8.98894 16.514 7.03194 15.148 5.91894C13.287 4.40394 9.88301 4.95094 7.72601 6.15994L8.73701 8.18994C9.92401 7.58394 10.981 7.28094 11.908 7.28094C12.817 7.28094 13.595 7.60494 13.595 8.51394C13.595 9.47941 12.8163 10.0357 12.0113 10.6109L12 10.6189C11.326 11.1129 10.862 11.5799 10.609 12.0189C10.2279 12.6781 10.2284 13.2243 10.229 13.9178C10.229 13.9449 10.229 13.9723 10.229 13.9999H12.686C12.686 13.9753 12.686 13.9512 12.686 13.9276C12.685 13.0493 12.6847 12.8048 14.049 11.7959Z" fill="#2A1846"/>
</svg>
