<svg width="16" height="16" viewBox="0 0 16 16" fill="none" xmlns="http://www.w3.org/2000/svg">
<g clip-path="url(#clip0)">
<path d="M7.66667 12.6663C7.11467 12.6663 6.66667 12.2183 6.66667 11.6663C6.66667 11.1143 7.11467 10.6663 7.66667 10.6663C8.21867 10.6663 8.66667 11.1143 8.66667 11.6663C8.66667 12.2183 8.21867 12.6663 7.66667 12.6663ZM10.5407 6.75097C10.3347 7.08097 9.94333 7.45163 9.366 7.86363C8.432 8.5543 8.45733 8.70763 8.45733 9.33297H6.81933C6.81933 8.8443 6.80867 8.46897 7.07267 8.0123C7.24133 7.71963 7.55067 7.4083 8 7.07897C8.53933 6.69363 9.06333 6.3223 9.06333 5.67563C9.06333 5.06963 8.54467 4.85363 7.93867 4.85363C7.32067 4.85363 6.616 5.05563 5.82467 5.45963L5.15067 4.1063C6.58867 3.3003 8.858 2.93563 10.0987 3.94563C11.0093 4.68763 11.0147 5.9923 10.5407 6.75097Z" fill="#0FD08B"/>
<path fill-rule="evenodd" clip-rule="evenodd" d="M8 14.6667C11.6819 14.6667 14.6667 11.6819 14.6667 8C14.6667 4.3181 11.6819 1.33333 8 1.33333C4.3181 1.33333 1.33333 4.3181 1.33333 8C1.33333 11.6819 4.3181 14.6667 8 14.6667ZM8 16C12.4183 16 16 12.4183 16 8C16 3.58172 12.4183 0 8 0C3.58172 0 0 3.58172 0 8C0 12.4183 3.58172 16 8 16Z" fill="#0FD08B"/>
</g>
<defs>
<clipPath id="clip0">
<rect width="16" height="16" fill="white"/>
</clipPath>
</defs>
</svg>
