<svg width="393" height="423" viewBox="0 0 393 423" fill="none" xmlns="http://www.w3.org/2000/svg">
<g clip-path="url(#clip0)">
<g clip-path="url(#clip1)">
<path d="M0 393C0 175.952 175.952 0 393 0V407.366C393 411.784 389.418 415.366 385 415.366H0V393Z" fill="#0FD08B"/>
<rect x="174.134" y="345.073" width="218.866" height="70.2927" fill="#478FF2"/>
<rect x="252.415" y="274.78" width="140.585" height="70.2927" fill="white"/>
<rect x="322.707" y="204.488" width="70.2927" height="70.2927" fill="#442E83"/>
<path d="M83.1549 168.714C71.5672 167.775 62.9439 157.606 63.9112 146.02C64.8751 134.475 75.0011 125.888 86.5487 126.823L171.307 133.686L167.81 175.568L166.122 189.958L147.812 173.955L83.1549 168.714Z" fill="#FFCC3E"/>
<path d="M92.659 135.793C87.1458 137.262 83.0732 142.427 83.0732 148.574C83.0732 154.72 87.1458 159.886 92.659 161.355C98.1722 159.886 102.245 154.72 102.245 148.574C102.245 142.427 98.1722 137.262 92.659 135.793Z" fill="white"/>
<path d="M90.1677 151.893H88.608C88.1645 151.893 87.8037 151.55 87.8037 151.13C87.8037 150.727 87.4601 150.401 87.0361 150.401C86.6122 150.401 86.2686 150.727 86.2686 151.13C86.2686 152.353 87.318 153.349 88.608 153.349H88.6963V154.236C88.6963 154.638 89.0399 154.964 89.4638 154.964C89.8878 154.964 90.2314 154.638 90.2314 154.236V153.347C91.5758 153.315 92.6591 152.268 92.6591 150.985V150.209C92.6591 148.906 91.5414 147.845 90.1676 147.845H89.6362H89.2914H88.7599C88.2326 147.845 87.8036 147.438 87.8036 146.938V146.161C87.8036 145.661 88.2326 145.254 88.7599 145.254H90.3196C90.7631 145.254 91.1239 145.596 91.1239 146.017C91.1239 146.419 91.4675 146.745 91.8915 146.745C92.3154 146.745 92.6591 146.419 92.6591 146.017C92.6591 144.793 91.6096 143.798 90.3196 143.798H90.2314V142.911C90.2314 142.509 89.8878 142.183 89.4638 142.183C89.0399 142.183 88.6963 142.509 88.6963 142.911V143.799C87.3519 143.832 86.2686 144.878 86.2686 146.161V146.938C86.2686 148.241 87.3862 149.302 88.76 149.302H89.2914H89.6362H90.1677C90.695 149.302 91.124 149.708 91.124 150.209V150.985C91.124 151.486 90.695 151.893 90.1677 151.893Z" fill="#2A1846"/>
<path d="M102.812 148.458C102.812 155.881 96.7718 161.921 89.3479 161.921C81.9241 161.921 75.8843 155.881 75.8843 148.458C75.8843 141.034 81.924 134.994 89.3479 134.994C96.7718 134.994 102.812 141.034 102.812 148.458Z" stroke="#2A1846" stroke-width="1.5"/>
</g>
<path d="M233.394 371.054C227.607 368.762 222.504 368.344 222.495 343.966C222.495 343.558 222.495 343.149 222.495 342.723C222.664 316.257 231.06 300.693 205.801 289.908C202.756 295.158 194.467 309.319 189.195 318.381C189.789 318.78 190.428 319.216 191.201 319.74C190.162 326.305 192.186 339.214 192.603 352.095C193.064 366.203 193.411 379.209 193.411 379.209L238.32 379.289C238.329 379.28 239.278 373.39 233.394 371.054Z" fill="#0FD08B" stroke="#2A1846" stroke-width="1.5" stroke-miterlimit="10" stroke-linecap="round" stroke-linejoin="round"/>
<path d="M223.295 251.902L221.058 245.905C220.738 245.052 219.602 244.972 219.025 245.763L217.339 248.109C218.191 248.126 218.724 248.348 218.857 248.961C219.753 249.255 220.41 250.09 220.41 251.094C220.41 252.338 219.407 253.341 218.164 253.341C217.33 253.341 216.611 252.879 216.221 252.213C215.448 252.471 214.659 252.622 214.037 252.702L209.839 258.539C209.156 259.498 208.969 260.707 209.351 261.737L211.579 267.699C211.898 268.551 213.034 268.631 213.611 267.841L214.499 266.606C213.487 264.314 216.656 263.043 216.656 263.043C215.768 259.934 219.301 259.934 219.301 259.934L222.815 255.047C223.49 254.097 223.667 252.906 223.295 251.902Z" fill="white" stroke="#0FD08B" stroke-miterlimit="10" stroke-linecap="round" stroke-linejoin="round"/>
<path d="M184.43 204.178C183.818 201.192 182.238 198.518 179.61 196.981C174.108 193.747 166.741 196.111 163.146 202.25C163.128 202.267 163.128 202.285 163.111 202.312C162.738 202.96 162.445 203.618 162.187 204.275C159.134 204.249 157.332 207.518 157.874 210.237C158.353 212.635 160.048 214.466 162.773 214.794C163.679 216.545 164.974 218.064 166.59 219.21C173.974 224.416 180.542 220.862 183.054 213.941C184.173 210.859 185.105 207.429 184.43 204.178Z" fill="#FFCC3E"/>
<path d="M175.146 210.218C175.636 210.218 176.033 209.821 176.033 209.33C176.033 208.839 175.636 208.442 175.146 208.442C174.656 208.442 174.258 208.839 174.258 209.33C174.258 209.821 174.656 210.218 175.146 210.218Z" fill="#2A1846"/>
<path d="M178.785 215.851C179.548 214.012 180.045 212.093 180.267 210.112" stroke="#2A1846" stroke-width="1.5" stroke-miterlimit="10" stroke-linecap="round" stroke-linejoin="round"/>
<path d="M160.998 207.624C162.693 207.704 164.131 208.895 164.442 210.583" stroke="#2A1846" stroke-width="1.5" stroke-miterlimit="10" stroke-linecap="round" stroke-linejoin="round"/>
<path d="M179.61 196.981C176.095 194.911 170.965 194.636 167.033 197.132C165.391 197.274 163.634 197.665 161.779 198.394C161.229 198.607 160.767 198.918 160.333 199.211C157.572 197.923 154.093 198.181 151.528 200.197C150.729 200.828 150.099 201.548 149.593 202.329C147.508 201.947 145.005 202.321 143.381 203.04C140.274 204.417 138.748 208.282 139.289 211.595C137.896 212.999 136.928 214.838 136.839 216.766C136.804 217.583 136.928 218.338 137.159 219.031C136.946 220.542 137.354 222.141 138.606 223.678C141.668 227.409 147.934 228.013 152.407 227.533C155.016 227.249 157.537 226.432 159.809 225.161C160.617 225.543 161.531 225.641 162.48 225.517C166.013 225.819 170.193 224.344 171.542 221.474C169.962 221.137 168.303 220.408 166.599 219.209C164.983 218.072 163.687 216.544 162.782 214.794C160.057 214.474 158.362 212.635 157.883 210.236C157.342 207.535 159.134 204.275 162.161 204.275C162.88 204.515 165.862 205.465 166.545 206.061C167.353 208.255 169.288 205.297 174.613 203.84C176.974 203.191 183.772 208.255 188.272 203.946C192.577 199.256 183.195 195.302 179.61 196.981Z" fill="#2A1846" stroke="#2A1846" stroke-miterlimit="10" stroke-linecap="round" stroke-linejoin="round"/>
<path d="M223.401 358.216C213.265 359.434 203.094 360.34 192.896 360.979C193.207 371.223 193.42 379.209 193.42 379.209L238.329 379.289C238.329 379.289 239.279 373.399 233.395 371.063C229.063 369.339 225.114 368.673 223.401 358.216Z" fill="#2A1846" stroke="#2A1846" stroke-miterlimit="10" stroke-linecap="round" stroke-linejoin="round"/>
<path d="M220.862 369.144L228.433 363.387" stroke="#F96440" stroke-width="1.5" stroke-miterlimit="10" stroke-linecap="round" stroke-linejoin="round"/>
<path d="M226.667 371.436C227.75 369.384 229.161 367.625 230.918 366.114" stroke="#F96440" stroke-width="1.5" stroke-miterlimit="10" stroke-linecap="round" stroke-linejoin="round"/>
<path d="M205.801 289.908C199.064 285.679 189.665 281.841 176.556 277.985C162.64 273.89 166.226 275.32 166.226 275.32L163.776 277.088C163.687 276.688 163.643 276.466 163.643 276.466L132.774 279.016C130.067 289.286 131.825 312.988 128.754 331.875C129.349 331.982 162.729 338.21 167.22 338.538C169.119 331.529 169.305 322.085 168.728 312.686C177.151 320.842 182.175 324.644 184.633 326.305C185.574 324.493 201.336 297.61 205.801 289.908Z" fill="#442E83" stroke="#442E83" stroke-miterlimit="10" stroke-linecap="round" stroke-linejoin="round"/>
<path d="M131.994 397.155C122.675 392.979 113.497 388.502 104.427 383.793C99.4301 392.739 95.4983 399.687 95.4983 399.687L133.955 422.909C133.955 422.909 137.798 418.343 133.955 413.315C131.124 409.601 128.089 406.998 131.994 397.155Z" fill="#2A1846" stroke="#2A1846" stroke-miterlimit="10" stroke-linecap="round" stroke-linejoin="round"/>
<path d="M124.201 405.213L133.654 404.182" stroke="#F96440" stroke-width="1.5" stroke-miterlimit="10" stroke-linecap="round" stroke-linejoin="round"/>
<path d="M127.991 410.17C129.97 408.97 132.091 408.189 134.372 407.798" stroke="#F96440" stroke-width="1.5" stroke-miterlimit="10" stroke-linecap="round" stroke-linejoin="round"/>
<path d="M175.67 299.493C172.679 301.741 169.856 302.656 168.747 302.94C168.64 304.069 168.392 307.16 168.392 311.141" stroke="white" stroke-width="1.5" stroke-miterlimit="10" stroke-linecap="round" stroke-linejoin="round"/>
<path d="M216.673 309.781C216.993 311.78 218.573 313.397 220.543 313.788" stroke="#2A1846" stroke-width="1.5" stroke-miterlimit="10" stroke-linecap="round" stroke-linejoin="round"/>
<path d="M152.753 350.15C151.848 348.577 151.866 346.756 152.798 345.201" stroke="#2A1846" stroke-width="1.5" stroke-miterlimit="10" stroke-linecap="round" stroke-linejoin="round"/>
<path d="M150.25 253.341C144.277 249.61 138.357 245.808 132.322 242.183C125.009 255.411 121.823 274.68 136.84 297.335L154.076 287.269C154.076 287.269 148.901 273.925 148.901 261.035C148.883 258.521 149.434 255.882 150.25 253.341Z" fill="#0FD08B" stroke="#2A1846" stroke-width="1.5" stroke-miterlimit="10" stroke-linecap="round" stroke-linejoin="round"/>
<path d="M177.96 256.22C180.249 254.345 182.521 252.337 184.971 250.694C182.921 242.547 181.439 232.117 175.235 226.663C175.013 226.805 174.773 226.929 174.542 227.062C170.087 229.461 163.954 229.497 157.875 221.101C154.458 221.412 151.094 222.558 147.996 224.761C143.621 227.498 137.097 233.548 132.323 242.183C133.556 242.92 134.781 243.675 136.006 244.431C140.772 247.362 145.502 250.374 150.251 253.341C149.434 255.882 148.893 258.52 148.893 261.035C148.893 270.931 151.946 281.095 153.357 285.279C162.747 285.323 173.114 284.959 180.684 283.564C180.684 283.564 175.084 265.272 177.96 256.22Z" fill="#0FD08B" stroke="#2A1846" stroke-width="1.5" stroke-miterlimit="10" stroke-linecap="round" stroke-linejoin="round"/>
<path d="M161.158 337.632C152.336 336.149 136.751 333.244 128.781 331.742C127.822 337.677 126.393 343.14 124.201 347.564C118.894 358.261 95.4983 399.687 95.4983 399.687L133.955 422.909C133.955 422.909 137.798 418.343 133.955 413.315C130.112 408.278 125.861 405.292 139.183 383.402C150.33 365.101 157.315 352.06 161.158 337.632Z" stroke="#2A1846" stroke-width="1.5" stroke-miterlimit="10" stroke-linecap="round" stroke-linejoin="round"/>
<path d="M224.909 255.456L221.235 260.564C223.472 260.218 228.176 259.214 228.176 256.948C228.176 255.313 227.412 254.994 224.909 255.456Z" stroke="#2A1846" stroke-width="1.5" stroke-miterlimit="10" stroke-linecap="round" stroke-linejoin="round"/>
<path d="M215.759 268.178C218.883 270.354 218.688 267.192 221.927 262.874C223.64 260.599 219.3 259.906 219.3 259.906C219.3 259.906 215.768 259.906 216.655 263.016C216.655 263.025 211.987 264.89 215.759 268.178Z" stroke="#2A1846" stroke-width="1.5" stroke-miterlimit="10" stroke-linecap="round" stroke-linejoin="round"/>
<path d="M212.883 248.588C210.088 248.926 208.02 251.866 206.191 256.868C203.28 259.693 198.514 262.954 192.514 262.047C188.29 261.408 186.47 256.664 184.961 250.685C182.512 252.337 180.24 254.336 177.95 256.211C176.459 260.919 177.258 268.133 178.367 273.97C180.71 276.67 183.595 278.971 187.136 280.34C201.78 286.008 212.874 271.607 212.874 271.607L212.866 271.553C212.173 271.722 211.383 271.411 211.073 270.665L207.682 262.669C207.185 261.488 207.336 260.137 208.082 259.098L208.987 257.836L212.874 252.781C212.874 252.781 218.981 252.684 218.883 249.246C218.839 247.531 216.54 248.144 212.883 248.588Z" stroke="#2A1846" stroke-width="1.5" stroke-miterlimit="10" stroke-linecap="round" stroke-linejoin="round"/>
<path d="M225.665 251.467L222.257 243.427C221.786 242.316 220.286 242.147 219.576 243.125L215.928 248.189C217.775 247.984 218.848 248.073 218.884 249.246C218.982 252.684 212.875 252.782 212.875 252.782L208.988 257.828L208.082 259.09C207.337 260.129 207.186 261.48 207.683 262.661L211.073 270.657C211.144 270.826 211.251 270.968 211.366 271.092C211.393 271.128 211.428 271.155 211.464 271.181C211.562 271.27 211.677 271.359 211.801 271.412C211.828 271.421 211.846 271.439 211.872 271.448C212.192 271.59 212.547 271.626 212.884 271.537C213.221 271.457 213.541 271.27 213.763 270.95L215.769 268.161C211.996 264.873 216.656 263.008 216.656 263.008C215.769 259.898 219.301 259.898 219.301 259.898C219.301 259.898 220.384 260.067 221.254 260.529L225.274 254.941C226.002 253.937 226.153 252.613 225.665 251.467Z" stroke="#2A1846" stroke-width="1.5" stroke-miterlimit="10" stroke-linecap="round" stroke-linejoin="round"/>
</g>
<defs>
<clipPath id="clip0">
<rect width="393" height="422.909" fill="white"/>
</clipPath>
<clipPath id="clip1">
<rect width="393" height="415.366" rx="8" fill="white"/>
</clipPath>
</defs>
</svg>
