<svg width="360" height="280" viewBox="0 0 360 280" fill="none" xmlns="http://www.w3.org/2000/svg">
<g clip-path="url(#clip0)">
<rect x="308" y="72" width="52" height="52" fill="#442E83"/>
<rect x="256" y="124" width="104" height="52" fill="#FFCC3E"/>
<rect x="200" y="176" width="160" height="52" fill="#478FF2"/>
<path d="M0 276C0 249.49 21.4903 228 48 228H360V280H0V276Z" fill="#0FD08B"/>
</g>
<path d="M129.508 44.6533C119.949 43.8829 112.838 35.5483 113.635 26.0512C114.43 16.5816 122.789 9.53675 132.32 10.3042L202.188 15.9306L199.305 50.2726L197.912 62.0727L182.815 48.9503L129.508 44.6533Z" fill="#FFCC3E"/>
<path d="M134.538 18.7265C130.473 19.801 127.47 23.5796 127.47 28.0761C127.47 32.5726 130.473 36.3512 134.538 37.4257C138.603 36.3512 141.606 32.5726 141.606 28.0761C141.606 23.5796 138.603 19.801 134.538 18.7265Z" fill="white"/>
<path d="M132.701 30.5042H131.551C131.224 30.5042 130.958 30.2538 130.958 29.946C130.958 29.6519 130.705 29.4133 130.392 29.4133C130.08 29.4133 129.826 29.6519 129.826 29.946C129.826 30.8412 130.6 31.5695 131.551 31.5695H131.616V32.2182C131.616 32.5124 131.87 32.7509 132.182 32.7509C132.495 32.7509 132.748 32.5124 132.748 32.2182V31.5684C133.74 31.5448 134.538 30.7791 134.538 29.8406V29.2723C134.538 28.319 133.714 27.5434 132.701 27.5434H132.309H132.055H131.663C131.275 27.5434 130.958 27.2457 130.958 26.8798V26.3116C130.958 25.9457 131.275 25.648 131.663 25.648H132.813C133.14 25.648 133.406 25.8983 133.406 26.2061C133.406 26.5002 133.66 26.7388 133.972 26.7388C134.285 26.7388 134.538 26.5002 134.538 26.2061C134.538 25.3109 133.765 24.5826 132.813 24.5826H132.748V23.934C132.748 23.6398 132.495 23.4013 132.182 23.4013C131.87 23.4013 131.616 23.6398 131.616 23.934V24.5837C130.625 24.6073 129.826 25.373 129.826 26.3116V26.8798C129.826 27.8331 130.651 28.6088 131.663 28.6088H132.055H132.31H132.701C133.09 28.6088 133.406 28.9064 133.406 29.2723V29.8406C133.406 30.2065 133.09 30.5042 132.701 30.5042Z" fill="#2A1846"/>
<path d="M142.024 27.9912C142.024 33.4219 137.571 37.8401 132.097 37.8401C126.623 37.8401 122.17 33.4218 122.17 27.9911C122.17 22.5604 126.623 18.1421 132.097 18.1421C137.571 18.1421 142.024 22.5605 142.024 27.9912Z" stroke="#2A1846"/>
<path d="M189.048 170.383C182.543 169.298 171.051 167.172 165.174 166.074C164.467 170.415 163.414 174.412 161.797 177.649C157.884 185.474 140.633 215.779 140.633 215.779L168.989 232.768C168.989 232.768 171.823 229.427 168.989 225.749C166.156 222.064 163.021 219.88 172.844 203.866C181.064 190.478 186.214 180.938 189.048 170.383Z" fill="white" stroke="#2A1846" stroke-miterlimit="10" stroke-linecap="round" stroke-linejoin="round"/>
<path d="M242.313 194.833C238.046 193.156 234.283 192.85 234.276 175.017C234.276 174.718 234.276 174.419 234.276 174.107C234.401 154.746 240.591 143.36 221.966 135.47C219.721 139.311 213.609 149.67 209.722 156.299C210.16 156.592 210.631 156.91 211.201 157.294C210.435 162.097 211.927 171.54 212.235 180.964C212.575 191.284 212.83 200.799 212.83 200.799L245.945 200.857C245.951 200.851 246.652 196.542 242.313 194.833Z" fill="white" stroke="#2A1846" stroke-miterlimit="10" stroke-linecap="round" stroke-linejoin="round"/>
<path d="M234.865 107.667L233.216 103.28C232.98 102.656 232.143 102.597 231.717 103.176L230.474 104.892C231.102 104.905 231.495 105.067 231.593 105.515C232.254 105.73 232.738 106.341 232.738 107.075C232.738 107.985 231.999 108.719 231.083 108.719C230.467 108.719 229.937 108.382 229.649 107.894C229.08 108.083 228.498 108.193 228.039 108.252L224.944 112.521C224.44 113.223 224.303 114.107 224.584 114.861L226.227 119.222C226.462 119.846 227.3 119.904 227.725 119.326L228.38 118.423C227.634 116.746 229.97 115.816 229.97 115.816C229.316 113.542 231.92 113.542 231.92 113.542L234.512 109.967C235.009 109.272 235.14 108.401 234.865 107.667Z" fill="white" stroke="#0FD08B" stroke-miterlimit="10" stroke-linecap="round" stroke-linejoin="round"/>
<path d="M206.207 72.7535C205.756 70.5698 204.591 68.6136 202.654 67.4893C198.596 65.1236 193.164 66.8523 190.514 71.3432C190.501 71.3562 190.501 71.3692 190.488 71.3887C190.213 71.8631 189.997 72.3441 189.807 72.825C187.556 72.8055 186.227 75.1972 186.627 77.1859C186.98 78.9407 188.23 80.2795 190.239 80.5199C190.907 81.8003 191.862 82.9116 193.053 83.75C198.498 87.5585 203.341 84.9588 205.193 79.896C206.017 77.6408 206.705 75.1322 206.207 72.7535Z" fill="#FFCC3E"/>
<path d="M199.362 77.1729C199.723 77.1729 200.016 76.8819 200.016 76.523C200.016 76.164 199.723 75.873 199.362 75.873C199 75.873 198.707 76.164 198.707 76.523C198.707 76.8819 199 77.1729 199.362 77.1729Z" fill="#2A1846"/>
<path d="M202.045 81.2933C202.608 79.948 202.974 78.5442 203.138 77.0949" stroke="#2A1846" stroke-miterlimit="10" stroke-linecap="round" stroke-linejoin="round"/>
<path d="M188.93 75.2751C190.18 75.3336 191.24 76.2045 191.469 77.4394" stroke="#2A1846" stroke-miterlimit="10" stroke-linecap="round" stroke-linejoin="round"/>
<path d="M202.654 67.4893C200.062 65.975 196.28 65.7735 193.38 67.5997C192.17 67.7037 190.874 67.9897 189.506 68.5226C189.1 68.6786 188.76 68.9061 188.439 69.1205C186.404 68.1782 183.839 68.3666 181.947 69.8419C181.358 70.3034 180.894 70.8298 180.521 71.4017C178.983 71.1223 177.137 71.3952 175.94 71.9216C173.649 72.929 172.524 75.7561 172.923 78.1803C171.895 79.2071 171.182 80.5525 171.116 81.9628C171.09 82.5607 171.182 83.1131 171.352 83.62C171.195 84.7249 171.496 85.8947 172.419 87.0191C174.677 89.7487 179.297 90.1906 182.595 89.8397C184.519 89.6317 186.378 89.0338 188.053 88.1044C188.649 88.3839 189.323 88.4554 190.023 88.3644C192.628 88.5853 195.71 87.5065 196.705 85.4073C195.54 85.1603 194.316 84.6274 193.06 83.75C191.869 82.9181 190.913 81.8003 190.246 80.52C188.237 80.286 186.987 78.9407 186.633 77.1859C186.234 75.2102 187.556 72.825 189.788 72.825C190.318 73.0005 192.517 73.6959 193.02 74.1313C193.616 75.7366 195.043 73.5724 198.969 72.5066C200.71 72.0321 205.723 75.7366 209.041 72.5846C212.215 69.153 205.298 66.2609 202.654 67.4893Z" fill="#2A1846" stroke="#2A1846" stroke-miterlimit="10" stroke-linecap="round" stroke-linejoin="round"/>
<path d="M234.944 185.441C227.47 186.332 219.97 186.995 212.451 187.463C212.68 194.956 212.837 200.799 212.837 200.799L245.951 200.857C245.951 200.857 246.652 196.548 242.313 194.839C239.119 193.578 236.207 193.091 234.944 185.441Z" fill="#2A1846" stroke="#2A1846" stroke-miterlimit="10" stroke-linecap="round" stroke-linejoin="round"/>
<path d="M233.072 193.435L238.654 189.224" stroke="#F96440" stroke-miterlimit="10" stroke-linecap="round" stroke-linejoin="round"/>
<path d="M237.352 195.112C238.15 193.611 239.191 192.324 240.487 191.219" stroke="#F96440" stroke-miterlimit="10" stroke-linecap="round" stroke-linejoin="round"/>
<path d="M221.966 135.47C216.999 132.376 210.069 129.569 200.403 126.748C190.141 123.752 192.785 124.798 192.785 124.798L190.979 126.092C190.913 125.799 190.88 125.637 190.88 125.637L168.119 127.502C166.123 135.015 167.419 152.354 165.155 166.172C165.593 166.25 190.206 170.805 193.518 171.046C194.918 165.918 195.056 159.01 194.63 152.134C200.841 158.1 204.545 160.881 206.358 162.097C207.052 160.771 218.674 141.105 221.966 135.47Z" fill="#442E83" stroke="#442E83" stroke-miterlimit="10" stroke-linecap="round" stroke-linejoin="round"/>
<path d="M167.543 213.927C160.672 210.872 153.905 207.597 147.216 204.152C143.532 210.697 140.633 215.779 140.633 215.779L168.989 232.768C168.989 232.768 171.823 229.427 168.989 225.749C166.902 223.032 164.664 221.128 167.543 213.927Z" fill="#2A1846" stroke="#2A1846" stroke-miterlimit="10" stroke-linecap="round" stroke-linejoin="round"/>
<path d="M161.797 219.822L168.767 219.068" stroke="#F96440" stroke-miterlimit="10" stroke-linecap="round" stroke-linejoin="round"/>
<path d="M164.592 223.448C166.051 222.571 167.615 221.999 169.297 221.713" stroke="#F96440" stroke-miterlimit="10" stroke-linecap="round" stroke-linejoin="round"/>
<path d="M199.748 142.482C197.543 144.127 195.461 144.796 194.643 145.004C194.565 145.829 194.382 148.091 194.382 151.003" stroke="white" stroke-miterlimit="10" stroke-linecap="round" stroke-linejoin="round"/>
<path d="M229.983 150.008C230.219 151.471 231.384 152.653 232.836 152.939" stroke="#2A1846" stroke-miterlimit="10" stroke-linecap="round" stroke-linejoin="round"/>
<path d="M182.85 179.54C182.183 178.39 182.196 177.058 182.883 175.92" stroke="#2A1846" stroke-miterlimit="10" stroke-linecap="round" stroke-linejoin="round"/>
<path d="M181.005 108.72C176.6 105.99 172.235 103.208 167.785 100.557C162.393 110.234 160.043 124.33 171.116 140.903L183.825 133.54C183.825 133.54 180.01 123.778 180.01 114.348C179.997 112.508 180.403 110.578 181.005 108.72Z" fill="white" stroke="#2A1846" stroke-miterlimit="10" stroke-linecap="round" stroke-linejoin="round"/>
<path d="M201.436 110.825C203.125 109.454 204.8 107.985 206.606 106.783C205.095 100.823 204.002 93.1932 199.427 89.2027C199.264 89.3067 199.087 89.3977 198.917 89.4952C195.632 91.2499 191.109 91.2759 186.627 85.1343C184.107 85.3617 181.627 86.2001 179.343 87.8119C176.116 89.8136 171.306 94.2395 167.785 100.557C168.695 101.096 169.598 101.648 170.501 102.201C174.016 104.346 177.504 106.549 181.005 108.72C180.403 110.578 180.004 112.508 180.004 114.348C180.004 121.588 182.255 129.023 183.295 132.084C190.219 132.116 197.863 131.85 203.446 130.829C203.446 130.829 199.316 117.448 201.436 110.825Z" fill="#0FD08B" stroke="#2A1846" stroke-miterlimit="10" stroke-linecap="round" stroke-linejoin="round"/>
<path d="M236.056 110.266L233.347 114.003C234.996 113.75 238.464 113.015 238.464 111.358C238.464 110.162 237.902 109.928 236.056 110.266Z" stroke="#2A1846" stroke-miterlimit="10" stroke-linecap="round" stroke-linejoin="round"/>
<path d="M229.309 119.573C231.613 121.165 231.469 118.852 233.857 115.693C235.12 114.029 231.92 113.522 231.92 113.522C231.92 113.522 229.316 113.522 229.97 115.797C229.97 115.804 226.528 117.168 229.309 119.573Z" stroke="#2A1846" stroke-miterlimit="10" stroke-linecap="round" stroke-linejoin="round"/>
<path d="M227.189 105.243C225.127 105.49 223.602 107.641 222.254 111.3C220.108 113.366 216.593 115.752 212.169 115.089C209.054 114.621 207.713 111.15 206.6 106.776C204.794 107.985 203.118 109.447 201.43 110.819C200.331 114.263 200.92 119.541 201.738 123.81C203.465 125.786 205.592 127.469 208.203 128.47C219.002 132.617 227.182 122.082 227.182 122.082L227.176 122.043C226.665 122.166 226.083 121.939 225.854 121.393L223.354 115.544C222.987 114.679 223.098 113.691 223.648 112.931L224.316 112.008L227.182 108.31C227.182 108.31 231.685 108.239 231.613 105.724C231.58 104.469 229.885 104.918 227.189 105.243Z" fill="white" stroke="#2A1846" stroke-miterlimit="10" stroke-linecap="round" stroke-linejoin="round"/>
<path d="M236.613 107.348L234.1 101.467C233.753 100.654 232.647 100.531 232.123 101.246L229.433 104.95C230.795 104.801 231.587 104.866 231.613 105.724C231.685 108.239 227.182 108.31 227.182 108.31L224.316 112.002L223.648 112.924C223.099 113.685 222.987 114.673 223.354 115.537L225.854 121.386C225.906 121.51 225.985 121.614 226.07 121.705C226.089 121.731 226.115 121.75 226.142 121.77C226.214 121.835 226.299 121.9 226.39 121.939C226.41 121.945 226.423 121.958 226.443 121.965C226.678 122.069 226.94 122.095 227.189 122.03C227.437 121.971 227.673 121.835 227.837 121.601L229.316 119.56C226.534 117.155 229.97 115.791 229.97 115.791C229.316 113.516 231.92 113.516 231.92 113.516C231.92 113.516 232.719 113.639 233.36 113.977L236.325 109.889C236.861 109.155 236.973 108.187 236.613 107.348Z" stroke="#2A1846" stroke-miterlimit="10" stroke-linecap="round" stroke-linejoin="round"/>
<defs>
<clipPath id="clip0">
<rect width="360" height="208" fill="white" transform="translate(0 72)"/>
</clipPath>
</defs>
</svg>
