<svg width="96" height="88" viewBox="0 0 96 88" fill="none" xmlns="http://www.w3.org/2000/svg">
<path d="M69.0831 63.9705H60.4412C59.5492 63.9705 58.9266 63.0736 59.2379 62.2274L64.5812 47.9271C64.7664 47.4278 65.246 47.0894 65.7845 47.0894H74.4264C75.3184 47.0894 75.9411 47.9863 75.6297 48.8325L70.2864 63.1328C70.0929 63.6405 69.6132 63.9705 69.0831 63.9705Z" fill="#2A1846"/>
<path d="M95.5605 22.0544L88.8456 10.5464L60 27.5883L66.7149 39.0963L69.1636 42.9718L72.1761 35.8724L95.5605 22.0544Z" fill="white"/>
<path d="M81.3563 23.4421L68.2209 31.21" stroke="#2A1846" stroke-miterlimit="10" stroke-linecap="round" stroke-linejoin="round"/>
<path d="M72.247 59.3085C76.488 55.9238 75.5203 51.5237 71.658 54.5614C68.9905 56.6515 64.6149 57.87 60.3991 58.6823L59.97 57.1C63.1507 57.8784 64.4802 56.7446 64.7579 55.8053C65.2965 53.9776 64.0006 53.4445 62.0484 53.0045C56.5536 51.7606 54.3826 53.2583 53.1962 58.7669C53.1625 63.0063 52.767 66.9325 52.3631 69.8772C52.7333 72.7457 53.3476 75.3858 53.701 76.782C53.8357 76.7397 53.9535 76.7058 54.0965 76.655C62.5533 73.5919 64.1016 72.8303 67.4338 71.1634C70.3789 69.691 71.7085 64.284 71.7085 64.284C74.4517 60.9585 72.247 59.3085 72.247 59.3085Z" fill="#FFCC3E"/>
<path d="M67.9639 62.6169C69.5963 61.9145 71.0268 60.8907 72.2301 59.5791" stroke="#2A1846" stroke-miterlimit="10" stroke-linecap="round" stroke-linejoin="round"/>
<path d="M68.2921 67.0931L70.5136 65.7393" stroke="#2A1846" stroke-miterlimit="10" stroke-linecap="round" stroke-linejoin="round"/>
<path d="M52.3631 69.8855C53.9534 58.3183 55.3923 31.7908 35.4748 29.76C26.2607 28.8207 17.7198 30.9785 12.1829 38.2809C4.13003 47.5296 -2.79526 69.8517 2.34611 80.9789C5.26601 87.2913 13.2852 88.366 24.1907 87.5029C32.6727 86.826 42.8544 84.0082 53.9787 77.8396C53.9871 77.8396 52.9184 74.1079 52.3631 69.8855Z" fill="#478FF2"/>
<path d="M25.5539 44.3308C25.3435 50.2202 25.4698 56.1857 25.9326 62.0666" stroke="white" stroke-miterlimit="10" stroke-linecap="round" stroke-linejoin="round"/>
<path d="M22.9958 62.2278C32.6474 61.0516 41.668 60.3324 51.387 59.9685" stroke="white" stroke-miterlimit="10" stroke-linecap="round" stroke-linejoin="round"/>
<path d="M48.9383 77.5775C46.4055 72.2635 45.8922 66.4588 47.4321 60.7979" stroke="white" stroke-miterlimit="10" stroke-linecap="round" stroke-linejoin="round"/>
<path d="M35.382 10.9381C29.5828 9.20979 23.3384 13.0692 21.4363 19.5609C21.4322 19.5794 21.4302 19.6061 21.4179 19.6265C20.8074 19.4736 20.2235 19.3924 19.6784 19.3975C16.0669 19.3824 14.2255 22.3619 15.4687 25.017C16.5584 27.3354 19.22 29.349 22.3371 28.8769C23.6699 31.405 25.8456 33.4177 28.4881 34.4506C36.4686 37.5884 40.5316 32.3195 42.4338 25.8277C44.3359 19.336 41.1811 12.6664 35.382 10.9381Z" fill="#FFCC3E"/>
<path d="M34.3011 24.2017C34.7521 24.0892 35.0259 23.6305 34.9129 23.177C34.7998 22.7236 34.3426 22.4471 33.8917 22.5596C33.4407 22.672 33.1669 23.1308 33.2799 23.5842C33.393 24.0377 33.8502 24.3141 34.3011 24.2017Z" fill="#2A1846"/>
<path d="M38.9487 28.5803C39.2352 26.7037 39.2502 24.8162 38.9998 22.9426" stroke="#2A1846" stroke-miterlimit="10" stroke-linecap="round" stroke-linejoin="round"/>
<path d="M18.3313 22.8992C19.9112 22.5924 21.5082 23.3628 22.1748 24.8535C22.4018 25.3463 23.1876 25.0544 22.9606 24.5616" stroke="#2A1846" stroke-miterlimit="10" stroke-linecap="round" stroke-linejoin="round"/>
<path d="M39.5691 16.7398C36.8561 17.0238 26.9059 14.4731 26.5568 20.2026C26.47 21.6631 26.8913 22.622 25.4481 22.9209C23.9538 23.0144 23.8724 20.5667 23.8724 20.5667C22.308 19.7533 20.9032 19.406 19.6885 19.4036C18.8412 13.5016 21.7664 10.2431 24.3245 10.3814C24.3245 10.3814 29.9781 -0.403324 34.5263 5.00315C34.5263 5.00315 43.198 -1.74643 46.9568 7.24062C50.7155 16.2277 39.5691 16.7398 39.5691 16.7398Z" fill="#2A1846"/>
</svg>
