<svg width="96" height="88" viewBox="0 0 96 88" fill="none" xmlns="http://www.w3.org/2000/svg">
<path d="M69.0831 63.971H60.4412C59.5492 63.971 58.9266 63.0741 59.2379 62.2279L64.5812 47.9276C64.7664 47.4283 65.246 47.0898 65.7845 47.0898H74.4264C75.3184 47.0898 75.9411 47.9868 75.6297 48.833L70.2864 63.1333C70.0929 63.641 69.6132 63.971 69.0831 63.971Z" fill="#2A1846"/>
<path d="M95.5605 22.0548L88.8456 10.5469L60 27.5888L66.7149 39.0968L69.1636 42.9723L72.1761 35.8729L95.5605 22.0548Z" fill="white"/>
<path d="M81.3563 23.4424L68.2209 31.2103" stroke="#2A1846" stroke-miterlimit="10" stroke-linecap="round" stroke-linejoin="round"/>
<path d="M72.247 59.3082C76.488 55.9235 75.5203 51.5234 71.658 54.5612C68.9905 56.6512 64.6149 57.8697 60.3991 58.6821L59.97 57.0997C63.1507 57.8782 64.4802 56.7443 64.7579 55.8051C65.2965 53.9773 64.0006 53.4442 62.0484 53.0042C56.5536 51.7604 54.3826 53.2581 53.1962 58.7667C53.1625 63.006 52.767 66.9323 52.3631 69.8769C52.7333 72.7455 53.3476 75.3855 53.701 76.7817C53.8357 76.7394 53.9535 76.7056 54.0965 76.6548C62.5533 73.5916 64.1016 72.8301 67.4338 71.1631C70.3789 69.6908 71.7085 64.2837 71.7085 64.2837C74.4517 60.9583 72.247 59.3082 72.247 59.3082Z" fill="#FFCC3E"/>
<path d="M67.9639 62.6169C69.5963 61.9145 71.0268 60.8907 72.2301 59.5791" stroke="#2A1846" stroke-miterlimit="10" stroke-linecap="round" stroke-linejoin="round"/>
<path d="M68.2921 67.0931L70.5136 65.7393" stroke="#2A1846" stroke-miterlimit="10" stroke-linecap="round" stroke-linejoin="round"/>
<path d="M52.3631 69.8853C53.9534 58.3181 55.3923 31.7905 35.4748 29.7597C26.2607 28.8205 17.7198 30.9782 12.1829 38.2807C4.13003 47.5294 -2.79526 69.8514 2.34611 80.9786C5.26601 87.2911 13.2852 88.3657 24.1907 87.5026C32.6727 86.8257 42.8544 84.0079 53.9787 77.8393C53.9871 77.8393 52.9184 74.1077 52.3631 69.8853Z" fill="#0FD08B"/>
<path d="M25.5539 44.3311C25.3435 50.2204 25.4698 56.186 25.9326 62.0669" stroke="white" stroke-miterlimit="10" stroke-linecap="round" stroke-linejoin="round"/>
<path d="M22.9958 62.228C32.6474 61.0519 41.668 60.3326 51.387 59.9688" stroke="white" stroke-miterlimit="10" stroke-linecap="round" stroke-linejoin="round"/>
<path d="M48.9383 77.5775C46.4055 72.2635 45.8922 66.4588 47.4321 60.7979" stroke="white" stroke-miterlimit="10" stroke-linecap="round" stroke-linejoin="round"/>
<path d="M35.382 10.9376C29.5828 9.2093 23.3384 13.0687 21.4363 19.5604C21.4322 19.5789 21.4302 19.6056 21.4179 19.6261C20.8074 19.4731 20.2235 19.3919 19.6784 19.3971C16.0669 19.3819 14.2255 22.3614 15.4687 25.0165C16.5584 27.3349 19.22 29.3485 22.3371 28.8764C23.6699 31.4045 25.8456 33.4172 28.4881 34.4501C36.4686 37.5879 40.5316 32.319 42.4338 25.8273C44.3359 19.3355 41.1811 12.6659 35.382 10.9376Z" fill="#FFCC3E"/>
<path d="M34.3011 24.2021C34.7521 24.0897 35.0259 23.631 34.9129 23.1775C34.7998 22.7241 34.3426 22.4476 33.8917 22.5601C33.4407 22.6725 33.1669 23.1313 33.2799 23.5847C33.393 24.0381 33.8502 24.3146 34.3011 24.2021Z" fill="#2A1846"/>
<path d="M38.9487 28.5798C39.2352 26.7032 39.2502 24.8157 38.9998 22.9421" stroke="#2A1846" stroke-miterlimit="10" stroke-linecap="round" stroke-linejoin="round"/>
<path d="M18.3313 22.8994C19.9112 22.5926 21.5082 23.363 22.1748 24.8537C22.4018 25.3466 23.1876 25.0547 22.9606 24.5619" stroke="#2A1846" stroke-miterlimit="10" stroke-linecap="round" stroke-linejoin="round"/>
<path d="M39.5691 16.7395C36.8561 17.0236 26.9059 14.4729 26.5568 20.2023C26.47 21.6629 26.8913 22.6218 25.4481 22.9206C23.9538 23.0142 23.8724 20.5665 23.8724 20.5665C22.308 19.7531 20.9032 19.4057 19.6885 19.4034C18.8412 13.5014 21.7664 10.2429 24.3245 10.3811C24.3245 10.3811 29.9781 -0.403568 34.5263 5.0029C34.5263 5.0029 43.198 -1.74668 46.9568 7.24038C50.7155 16.2274 39.5691 16.7395 39.5691 16.7395Z" fill="#2A1846"/>
</svg>
