<svg width="80" height="48" viewBox="0 0 80 48" fill="none" xmlns="http://www.w3.org/2000/svg">
<path d="M53.1061 44.6703H28.5779C27.8513 42.2061 26.5932 38.4591 24.7375 34.6462C22.7788 30.6216 20.1193 26.45 16.6544 23.6596L15.6001 24.9687C18.7842 27.533 21.312 31.4487 23.2262 35.3818C24.9133 38.8483 26.0966 42.2712 26.8236 44.6703H22.5786C21.0285 42.4714 18.1409 39.3927 13.1272 37.0023L12.4038 38.5196C16.4047 40.4271 18.9357 42.7823 20.4704 44.6703H5.99998C-0.476439 34.6054 7.78273 36.2033 7.78273 36.2033C1.54889 29.1353 0.798054 19.8235 16.0342 16.5093C31.2742 13.1989 38.821 30.8478 38.821 30.8478C49.1171 25.6873 53.1061 44.6703 53.1061 44.6703Z" fill="#FFCC3E"/>
<path d="M39.6592 44.6702V31.2234H53.1061V17.7765H66.5529V4.32959H79.9998" stroke="#478FF2" stroke-width="4" stroke-miterlimit="10"/>
</svg>
