<svg width="60" height="60" viewBox="0 0 60 60" fill="none" xmlns="http://www.w3.org/2000/svg">
<path d="M47 11V13H13V11H47Z" fill="#00D597"/>
<path d="M47 28V32H13V28H47Z" fill="#00D597"/>
<path fill-rule="evenodd" clip-rule="evenodd" d="M53 26V21.6301L47 14.6301V14V10C47 8.89543 46.1046 8 45 8H15C13.8954 8 13 8.89543 13 10V14V14.6301L7 21.6301V26C7 27.1046 7.89543 28 9 28H11V50H4V52H13H19H41H47H56V50H49V28H51C52.1046 28 53 27.1046 53 26ZM14.4599 16L9 22.3699V26H51V22.3699L45.5401 16H14.4599ZM15 14H45V10H15V14ZM47 28H13V50H19V41C19 39.8954 19.8954 39 21 39H39C40.1046 39 41 39.8954 41 41V50H47V28ZM39 50H21V41H39V50Z" fill="#442E83"/>
</svg>
