<svg width="408" height="355" viewBox="0 0 408 355" fill="none" xmlns="http://www.w3.org/2000/svg">
<path fill-rule="evenodd" clip-rule="evenodd" d="M395.479 39.7506C412.712 62.5892 408.168 95.0738 385.33 112.307L238.009 223.469C215.171 240.702 182.686 236.158 165.453 213.319C148.22 190.481 152.764 157.996 175.603 140.763L322.923 29.6009C345.761 12.3678 378.246 16.9119 395.479 39.7506Z" fill="#0FD08B"/>
<path fill-rule="evenodd" clip-rule="evenodd" d="M269.306 9.3732C292.743 25.7837 298.439 58.0863 282.028 81.523L112.623 323.459C96.2125 346.895 63.91 352.591 40.4733 336.181C17.0366 319.77 11.3408 287.468 27.7513 264.031L197.157 22.0952C213.567 -1.34152 245.87 -7.03734 269.306 9.3732Z" fill="#0FD08B"/>
<path d="M122.05 354.053C121.376 354.053 120.667 353.817 120.171 353.313C119.142 352.336 119.142 350.72 120.171 349.744L150.556 321.062C151.584 320.086 153.286 320.086 154.315 321.062C155.343 322.038 155.343 323.654 154.315 324.63L123.929 353.313C123.397 353.817 122.724 354.053 122.05 354.053Z" fill="#2A1846"/>
<path d="M369.849 192.591C369.175 192.591 368.466 192.356 367.97 191.851C366.941 190.874 366.941 189.258 367.97 188.282L398.355 159.6C399.419 158.624 401.085 158.624 402.149 159.634C403.177 160.61 403.177 162.226 402.149 163.202L371.763 191.884C371.231 192.356 370.558 192.591 369.849 192.591Z" fill="#2A1846"/>
<path d="M36.016 59C36.016 54.5817 39.5977 51 44.016 51H364.016C368.434 51 372.016 54.5817 372.016 59V301C372.016 305.418 368.434 309 364.016 309H44.016C39.5977 309 36.016 305.418 36.016 301V59Z" fill="white"/>
<g clip-path="url(#clip0)">
<path d="M85.8482 81L81.7622 68.04H83.9942L87.4142 78.894L90.8792 68.04H93.1112L89.0252 81H85.8482ZM96.3729 81.27C95.6709 81.27 95.0769 81.138 94.5909 80.874C94.1049 80.604 93.7359 80.247 93.4839 79.803C93.2379 79.359 93.1149 78.87 93.1149 78.336C93.1149 77.868 93.1929 77.448 93.3489 77.076C93.5049 76.698 93.7449 76.374 94.0689 76.104C94.3929 75.828 94.8129 75.603 95.3289 75.429C95.7189 75.303 96.1749 75.189 96.6969 75.087C97.2249 74.985 97.7949 74.892 98.4069 74.808C99.0249 74.718 99.6699 74.622 100.342 74.52L99.5679 74.961C99.5739 74.289 99.4239 73.794 99.1179 73.476C98.8119 73.158 98.2959 72.999 97.5699 72.999C97.1319 72.999 96.7089 73.101 96.3009 73.305C95.8929 73.509 95.6079 73.86 95.4459 74.358L93.4659 73.737C93.7059 72.915 94.1619 72.255 94.8339 71.757C95.5119 71.259 96.4239 71.01 97.5699 71.01C98.4339 71.01 99.1929 71.151 99.8469 71.433C100.507 71.715 100.996 72.177 101.314 72.819C101.488 73.161 101.593 73.512 101.629 73.872C101.665 74.226 101.683 74.613 101.683 75.033V81H99.7839V78.894L100.099 79.236C99.6609 79.938 99.1479 80.454 98.5599 80.784C97.9779 81.108 97.2489 81.27 96.3729 81.27ZM96.8049 79.542C97.2969 79.542 97.7169 79.455 98.0649 79.281C98.4129 79.107 98.6889 78.894 98.8929 78.642C99.1029 78.39 99.2439 78.153 99.3159 77.931C99.4299 77.655 99.4929 77.34 99.5049 76.986C99.5229 76.626 99.5319 76.335 99.5319 76.113L100.198 76.311C99.5439 76.413 98.9829 76.503 98.5149 76.581C98.0469 76.659 97.6449 76.734 97.3089 76.806C96.9729 76.872 96.6759 76.947 96.4179 77.031C96.1659 77.121 95.9529 77.226 95.7789 77.346C95.6049 77.466 95.4699 77.604 95.3739 77.76C95.2839 77.916 95.2389 78.099 95.2389 78.309C95.2389 78.549 95.2989 78.762 95.4189 78.948C95.5389 79.128 95.7129 79.272 95.9409 79.38C96.1749 79.488 96.4629 79.542 96.8049 79.542ZM110.749 81V76.32C110.749 76.014 110.728 75.675 110.686 75.303C110.644 74.931 110.545 74.574 110.389 74.232C110.239 73.884 110.011 73.599 109.705 73.377C109.405 73.155 108.997 73.044 108.481 73.044C108.205 73.044 107.932 73.089 107.662 73.179C107.392 73.269 107.146 73.425 106.924 73.647C106.708 73.863 106.534 74.163 106.402 74.547C106.27 74.925 106.204 75.411 106.204 76.005L104.917 75.456C104.917 74.628 105.076 73.878 105.394 73.206C105.718 72.534 106.192 72 106.816 71.604C107.44 71.202 108.208 71.001 109.12 71.001C109.84 71.001 110.434 71.121 110.902 71.361C111.37 71.601 111.742 71.907 112.018 72.279C112.294 72.651 112.498 73.047 112.63 73.467C112.762 73.887 112.846 74.286 112.882 74.664C112.924 75.036 112.945 75.339 112.945 75.573V81H110.749ZM104.008 81V71.28H105.943V74.295H106.204V81H104.008ZM119.554 81.27C118.57 81.27 117.706 81.057 116.962 80.631C116.218 80.205 115.636 79.614 115.216 78.858C114.802 78.102 114.595 77.232 114.595 76.248C114.595 75.186 114.799 74.265 115.207 73.485C115.615 72.699 116.182 72.09 116.908 71.658C117.634 71.226 118.474 71.01 119.428 71.01C120.436 71.01 121.291 71.247 121.993 71.721C122.701 72.189 123.226 72.852 123.568 73.71C123.91 74.568 124.039 75.579 123.955 76.743H121.804V75.951C121.798 74.895 121.612 74.124 121.246 73.638C120.88 73.152 120.304 72.909 119.518 72.909C118.63 72.909 117.97 73.185 117.538 73.737C117.106 74.283 116.89 75.084 116.89 76.14C116.89 77.124 117.106 77.886 117.538 78.426C117.97 78.966 118.6 79.236 119.428 79.236C119.962 79.236 120.421 79.119 120.805 78.885C121.195 78.645 121.495 78.3 121.705 77.85L123.847 78.498C123.475 79.374 122.899 80.055 122.119 80.541C121.345 81.027 120.49 81.27 119.554 81.27ZM116.206 76.743V75.105H122.893V76.743H116.206ZM129.716 81.27C128.516 81.27 127.541 81 126.791 80.46C126.041 79.92 125.585 79.161 125.423 78.183L127.637 77.841C127.751 78.321 128.003 78.699 128.393 78.975C128.783 79.251 129.275 79.389 129.869 79.389C130.391 79.389 130.793 79.287 131.075 79.083C131.363 78.873 131.507 78.588 131.507 78.228C131.507 78.006 131.453 77.829 131.345 77.697C131.243 77.559 131.015 77.427 130.661 77.301C130.307 77.175 129.764 77.016 129.032 76.824C128.216 76.608 127.568 76.377 127.088 76.131C126.608 75.879 126.263 75.582 126.053 75.24C125.843 74.898 125.738 74.484 125.738 73.998C125.738 73.392 125.897 72.864 126.215 72.414C126.533 71.964 126.977 71.619 127.547 71.379C128.117 71.133 128.789 71.01 129.563 71.01C130.319 71.01 130.988 71.127 131.57 71.361C132.158 71.595 132.632 71.928 132.992 72.36C133.352 72.792 133.574 73.299 133.658 73.881L131.444 74.277C131.39 73.863 131.201 73.536 130.877 73.296C130.559 73.056 130.133 72.921 129.599 72.891C129.089 72.861 128.678 72.939 128.366 73.125C128.054 73.305 127.898 73.56 127.898 73.89C127.898 74.076 127.961 74.235 128.087 74.367C128.213 74.499 128.465 74.631 128.843 74.763C129.227 74.895 129.797 75.057 130.553 75.249C131.327 75.447 131.945 75.675 132.407 75.933C132.875 76.185 133.211 76.488 133.415 76.842C133.625 77.196 133.73 77.625 133.73 78.129C133.73 79.107 133.373 79.875 132.659 80.433C131.951 80.991 130.97 81.27 129.716 81.27ZM138.42 81.27C137.718 81.27 137.124 81.138 136.638 80.874C136.152 80.604 135.783 80.247 135.531 79.803C135.285 79.359 135.162 78.87 135.162 78.336C135.162 77.868 135.24 77.448 135.396 77.076C135.552 76.698 135.792 76.374 136.116 76.104C136.44 75.828 136.86 75.603 137.376 75.429C137.766 75.303 138.222 75.189 138.744 75.087C139.272 74.985 139.842 74.892 140.454 74.808C141.072 74.718 141.717 74.622 142.389 74.52L141.615 74.961C141.621 74.289 141.471 73.794 141.165 73.476C140.859 73.158 140.343 72.999 139.617 72.999C139.179 72.999 138.756 73.101 138.348 73.305C137.94 73.509 137.655 73.86 137.493 74.358L135.513 73.737C135.753 72.915 136.209 72.255 136.881 71.757C137.559 71.259 138.471 71.01 139.617 71.01C140.481 71.01 141.24 71.151 141.894 71.433C142.554 71.715 143.043 72.177 143.361 72.819C143.535 73.161 143.64 73.512 143.676 73.872C143.712 74.226 143.73 74.613 143.73 75.033V81H141.831V78.894L142.146 79.236C141.708 79.938 141.195 80.454 140.607 80.784C140.025 81.108 139.296 81.27 138.42 81.27ZM138.852 79.542C139.344 79.542 139.764 79.455 140.112 79.281C140.46 79.107 140.736 78.894 140.94 78.642C141.15 78.39 141.291 78.153 141.363 77.931C141.477 77.655 141.54 77.34 141.552 76.986C141.57 76.626 141.579 76.335 141.579 76.113L142.245 76.311C141.591 76.413 141.03 76.503 140.562 76.581C140.094 76.659 139.692 76.734 139.356 76.806C139.02 76.872 138.723 76.947 138.465 77.031C138.213 77.121 138 77.226 137.826 77.346C137.652 77.466 137.517 77.604 137.421 77.76C137.331 77.916 137.286 78.099 137.286 78.309C137.286 78.549 137.346 78.762 137.466 78.948C137.586 79.128 137.76 79.272 137.988 79.38C138.222 79.488 138.51 79.542 138.852 79.542ZM145.893 83.295L146.019 82.359C146.295 82.383 146.514 82.335 146.676 82.215C146.838 82.101 146.946 81.936 147 81.72C147.06 81.51 147.075 81.27 147.045 81H145.893V78.687H148.116V81.09C148.116 81.876 147.93 82.47 147.558 82.872C147.186 83.274 146.631 83.415 145.893 83.295ZM159.814 81.27C158.866 81.27 158.071 81.045 157.429 80.595C156.787 80.145 156.304 79.533 155.98 78.759C155.656 77.979 155.494 77.106 155.494 76.14C155.494 75.162 155.656 74.286 155.98 73.512C156.304 72.738 156.778 72.129 157.402 71.685C158.032 71.235 158.809 71.01 159.733 71.01C160.651 71.01 161.446 71.235 162.118 71.685C162.796 72.129 163.321 72.738 163.693 73.512C164.065 74.28 164.251 75.156 164.251 76.14C164.251 77.112 164.068 77.985 163.702 78.759C163.336 79.533 162.82 80.145 162.154 80.595C161.488 81.045 160.708 81.27 159.814 81.27ZM155.125 85.32V71.28H157.042V78.102H157.312V85.32H155.125ZM159.481 79.326C160.045 79.326 160.51 79.185 160.876 78.903C161.242 78.621 161.512 78.24 161.686 77.76C161.866 77.274 161.956 76.734 161.956 76.14C161.956 75.552 161.866 75.018 161.686 74.538C161.506 74.052 161.227 73.668 160.849 73.386C160.471 73.098 159.991 72.954 159.409 72.954C158.857 72.954 158.407 73.089 158.059 73.359C157.711 73.623 157.453 73.995 157.285 74.475C157.123 74.949 157.042 75.504 157.042 76.14C157.042 76.77 157.123 77.325 157.285 77.805C157.453 78.285 157.714 78.66 158.068 78.93C158.428 79.194 158.899 79.326 159.481 79.326ZM170.528 81.27C169.556 81.27 168.707 81.051 167.981 80.613C167.255 80.175 166.691 79.572 166.289 78.804C165.893 78.03 165.695 77.142 165.695 76.14C165.695 75.12 165.899 74.226 166.307 73.458C166.715 72.69 167.282 72.09 168.008 71.658C168.734 71.226 169.574 71.01 170.528 71.01C171.506 71.01 172.358 71.229 173.084 71.667C173.81 72.105 174.374 72.711 174.776 73.485C175.178 74.253 175.379 75.138 175.379 76.14C175.379 77.148 175.175 78.039 174.767 78.813C174.365 79.581 173.801 80.184 173.075 80.622C172.349 81.054 171.5 81.27 170.528 81.27ZM170.528 79.236C171.392 79.236 172.034 78.948 172.454 78.372C172.874 77.796 173.084 77.052 173.084 76.14C173.084 75.198 172.871 74.448 172.445 73.89C172.019 73.326 171.38 73.044 170.528 73.044C169.946 73.044 169.466 73.176 169.088 73.44C168.716 73.698 168.44 74.061 168.26 74.529C168.08 74.991 167.99 75.528 167.99 76.14C167.99 77.082 168.203 77.835 168.629 78.399C169.061 78.957 169.694 79.236 170.528 79.236ZM181.259 81.27C180.365 81.27 179.585 81.045 178.919 80.595C178.253 80.145 177.737 79.533 177.371 78.759C177.005 77.985 176.822 77.112 176.822 76.14C176.822 75.156 177.005 74.28 177.371 73.512C177.743 72.738 178.268 72.129 178.946 71.685C179.624 71.235 180.422 71.01 181.34 71.01C182.264 71.01 183.038 71.235 183.662 71.685C184.292 72.129 184.769 72.738 185.093 73.512C185.417 74.286 185.579 75.162 185.579 76.14C185.579 77.106 185.417 77.979 185.093 78.759C184.769 79.533 184.286 80.145 183.644 80.595C183.002 81.045 182.207 81.27 181.259 81.27ZM181.592 79.326C182.174 79.326 182.642 79.194 182.996 78.93C183.356 78.66 183.617 78.285 183.779 77.805C183.947 77.325 184.031 76.77 184.031 76.14C184.031 75.504 183.947 74.949 183.779 74.475C183.617 73.995 183.362 73.623 183.014 73.359C182.666 73.089 182.216 72.954 181.664 72.954C181.082 72.954 180.602 73.098 180.224 73.386C179.846 73.668 179.567 74.052 179.387 74.538C179.207 75.018 179.117 75.552 179.117 76.14C179.117 76.734 179.204 77.274 179.378 77.76C179.558 78.24 179.831 78.621 180.197 78.903C180.563 79.185 181.028 79.326 181.592 79.326ZM184.031 81V74.178H183.761V68.04H185.948V81H184.031ZM192.89 81.27C191.906 81.27 191.042 81.057 190.298 80.631C189.554 80.205 188.972 79.614 188.552 78.858C188.138 78.102 187.931 77.232 187.931 76.248C187.931 75.186 188.135 74.265 188.543 73.485C188.951 72.699 189.518 72.09 190.244 71.658C190.97 71.226 191.81 71.01 192.764 71.01C193.772 71.01 194.627 71.247 195.329 71.721C196.037 72.189 196.562 72.852 196.904 73.71C197.246 74.568 197.375 75.579 197.291 76.743H195.14V75.951C195.134 74.895 194.948 74.124 194.582 73.638C194.216 73.152 193.64 72.909 192.854 72.909C191.966 72.909 191.306 73.185 190.874 73.737C190.442 74.283 190.226 75.084 190.226 76.14C190.226 77.124 190.442 77.886 190.874 78.426C191.306 78.966 191.936 79.236 192.764 79.236C193.298 79.236 193.757 79.119 194.141 78.885C194.531 78.645 194.831 78.3 195.041 77.85L197.183 78.498C196.811 79.374 196.235 80.055 195.455 80.541C194.681 81.027 193.826 81.27 192.89 81.27ZM189.542 76.743V75.105H196.229V76.743H189.542ZM210.709 81V75.096C210.709 74.43 210.544 73.911 210.214 73.539C209.884 73.161 209.437 72.972 208.873 72.972C208.525 72.972 208.213 73.053 207.937 73.215C207.661 73.371 207.442 73.605 207.28 73.917C207.118 74.223 207.037 74.589 207.037 75.015L206.074 74.448C206.068 73.776 206.218 73.185 206.524 72.675C206.836 72.159 207.256 71.757 207.784 71.469C208.312 71.181 208.9 71.037 209.548 71.037C210.622 71.037 211.444 71.361 212.014 72.009C212.59 72.651 212.878 73.497 212.878 74.547V81H210.709ZM199.018 81V71.28H200.935V74.295H201.205V81H199.018ZM204.877 81V75.123C204.877 74.445 204.712 73.917 204.382 73.539C204.052 73.161 203.602 72.972 203.032 72.972C202.48 72.972 202.036 73.161 201.7 73.539C201.37 73.917 201.205 74.409 201.205 75.015L200.233 74.367C200.233 73.737 200.389 73.17 200.701 72.666C201.013 72.162 201.433 71.766 201.961 71.478C202.495 71.184 203.092 71.037 203.752 71.037C204.478 71.037 205.084 71.193 205.57 71.505C206.062 71.811 206.428 72.231 206.668 72.765C206.914 73.293 207.037 73.89 207.037 74.556V81H204.877ZM219.36 81.27C218.388 81.27 217.539 81.051 216.813 80.613C216.087 80.175 215.523 79.572 215.121 78.804C214.725 78.03 214.527 77.142 214.527 76.14C214.527 75.12 214.731 74.226 215.139 73.458C215.547 72.69 216.114 72.09 216.84 71.658C217.566 71.226 218.406 71.01 219.36 71.01C220.338 71.01 221.19 71.229 221.916 71.667C222.642 72.105 223.206 72.711 223.608 73.485C224.01 74.253 224.211 75.138 224.211 76.14C224.211 77.148 224.007 78.039 223.599 78.813C223.197 79.581 222.633 80.184 221.907 80.622C221.181 81.054 220.332 81.27 219.36 81.27ZM219.36 79.236C220.224 79.236 220.866 78.948 221.286 78.372C221.706 77.796 221.916 77.052 221.916 76.14C221.916 75.198 221.703 74.448 221.277 73.89C220.851 73.326 220.212 73.044 219.36 73.044C218.778 73.044 218.298 73.176 217.92 73.44C217.548 73.698 217.272 74.061 217.092 74.529C216.912 74.991 216.822 75.528 216.822 76.14C216.822 77.082 217.035 77.835 217.461 78.399C217.893 78.957 218.526 79.236 219.36 79.236ZM229.718 81.27C228.518 81.27 227.543 81 226.793 80.46C226.043 79.92 225.587 79.161 225.425 78.183L227.639 77.841C227.753 78.321 228.005 78.699 228.395 78.975C228.785 79.251 229.277 79.389 229.871 79.389C230.393 79.389 230.795 79.287 231.077 79.083C231.365 78.873 231.509 78.588 231.509 78.228C231.509 78.006 231.455 77.829 231.347 77.697C231.245 77.559 231.017 77.427 230.663 77.301C230.309 77.175 229.766 77.016 229.034 76.824C228.218 76.608 227.57 76.377 227.09 76.131C226.61 75.879 226.265 75.582 226.055 75.24C225.845 74.898 225.74 74.484 225.74 73.998C225.74 73.392 225.899 72.864 226.217 72.414C226.535 71.964 226.979 71.619 227.549 71.379C228.119 71.133 228.791 71.01 229.565 71.01C230.321 71.01 230.99 71.127 231.572 71.361C232.16 71.595 232.634 71.928 232.994 72.36C233.354 72.792 233.576 73.299 233.66 73.881L231.446 74.277C231.392 73.863 231.203 73.536 230.879 73.296C230.561 73.056 230.135 72.921 229.601 72.891C229.091 72.861 228.68 72.939 228.368 73.125C228.056 73.305 227.9 73.56 227.9 73.89C227.9 74.076 227.963 74.235 228.089 74.367C228.215 74.499 228.467 74.631 228.845 74.763C229.229 74.895 229.799 75.057 230.555 75.249C231.329 75.447 231.947 75.675 232.409 75.933C232.877 76.185 233.213 76.488 233.417 76.842C233.627 77.196 233.732 77.625 233.732 78.129C233.732 79.107 233.375 79.875 232.661 80.433C231.953 80.991 230.972 81.27 229.718 81.27ZM243.978 81.27C243.03 81.27 242.235 81.045 241.593 80.595C240.951 80.145 240.468 79.533 240.144 78.759C239.82 77.979 239.658 77.106 239.658 76.14C239.658 75.162 239.82 74.286 240.144 73.512C240.468 72.738 240.942 72.129 241.566 71.685C242.196 71.235 242.973 71.01 243.897 71.01C244.815 71.01 245.61 71.235 246.282 71.685C246.96 72.129 247.485 72.738 247.857 73.512C248.229 74.28 248.415 75.156 248.415 76.14C248.415 77.112 248.232 77.985 247.866 78.759C247.5 79.533 246.984 80.145 246.318 80.595C245.652 81.045 244.872 81.27 243.978 81.27ZM239.289 85.32V71.28H241.206V78.102H241.476V85.32H239.289ZM243.645 79.326C244.209 79.326 244.674 79.185 245.04 78.903C245.406 78.621 245.676 78.24 245.85 77.76C246.03 77.274 246.12 76.734 246.12 76.14C246.12 75.552 246.03 75.018 245.85 74.538C245.67 74.052 245.391 73.668 245.013 73.386C244.635 73.098 244.155 72.954 243.573 72.954C243.021 72.954 242.571 73.089 242.223 73.359C241.875 73.623 241.617 73.995 241.449 74.475C241.287 74.949 241.206 75.504 241.206 76.14C241.206 76.77 241.287 77.325 241.449 77.805C241.617 78.285 241.878 78.66 242.232 78.93C242.592 79.194 243.063 79.326 243.645 79.326ZM250.399 81V71.28H252.316V73.647L252.082 73.341C252.202 73.017 252.361 72.723 252.559 72.459C252.763 72.189 253.006 71.967 253.288 71.793C253.528 71.631 253.792 71.505 254.08 71.415C254.374 71.319 254.674 71.262 254.98 71.244C255.286 71.22 255.583 71.232 255.871 71.28V73.305C255.583 73.221 255.25 73.194 254.872 73.224C254.5 73.254 254.164 73.359 253.864 73.539C253.564 73.701 253.318 73.908 253.126 74.16C252.94 74.412 252.802 74.7 252.712 75.024C252.622 75.342 252.577 75.687 252.577 76.059V81H250.399ZM261.832 81.27C260.848 81.27 259.984 81.057 259.24 80.631C258.496 80.205 257.914 79.614 257.494 78.858C257.08 78.102 256.873 77.232 256.873 76.248C256.873 75.186 257.077 74.265 257.485 73.485C257.893 72.699 258.46 72.09 259.186 71.658C259.912 71.226 260.752 71.01 261.706 71.01C262.714 71.01 263.569 71.247 264.271 71.721C264.979 72.189 265.504 72.852 265.846 73.71C266.188 74.568 266.317 75.579 266.233 76.743H264.082V75.951C264.076 74.895 263.89 74.124 263.524 73.638C263.158 73.152 262.582 72.909 261.796 72.909C260.908 72.909 260.248 73.185 259.816 73.737C259.384 74.283 259.168 75.084 259.168 76.14C259.168 77.124 259.384 77.886 259.816 78.426C260.248 78.966 260.878 79.236 261.706 79.236C262.24 79.236 262.699 79.119 263.083 78.885C263.473 78.645 263.773 78.3 263.983 77.85L266.125 78.498C265.753 79.374 265.177 80.055 264.397 80.541C263.623 81.027 262.768 81.27 261.832 81.27ZM258.484 76.743V75.105H265.171V76.743H258.484ZM271.994 81.27C270.794 81.27 269.819 81 269.069 80.46C268.319 79.92 267.863 79.161 267.701 78.183L269.915 77.841C270.029 78.321 270.281 78.699 270.671 78.975C271.061 79.251 271.553 79.389 272.147 79.389C272.669 79.389 273.071 79.287 273.353 79.083C273.641 78.873 273.785 78.588 273.785 78.228C273.785 78.006 273.731 77.829 273.623 77.697C273.521 77.559 273.293 77.427 272.939 77.301C272.585 77.175 272.042 77.016 271.31 76.824C270.494 76.608 269.846 76.377 269.366 76.131C268.886 75.879 268.541 75.582 268.331 75.24C268.121 74.898 268.016 74.484 268.016 73.998C268.016 73.392 268.175 72.864 268.493 72.414C268.811 71.964 269.255 71.619 269.825 71.379C270.395 71.133 271.067 71.01 271.841 71.01C272.597 71.01 273.266 71.127 273.848 71.361C274.436 71.595 274.91 71.928 275.27 72.36C275.63 72.792 275.852 73.299 275.936 73.881L273.722 74.277C273.668 73.863 273.479 73.536 273.155 73.296C272.837 73.056 272.411 72.921 271.877 72.891C271.367 72.861 270.956 72.939 270.644 73.125C270.332 73.305 270.176 73.56 270.176 73.89C270.176 74.076 270.239 74.235 270.365 74.367C270.491 74.499 270.743 74.631 271.121 74.763C271.505 74.895 272.075 75.057 272.831 75.249C273.605 75.447 274.223 75.675 274.685 75.933C275.153 76.185 275.489 76.488 275.693 76.842C275.903 77.196 276.008 77.625 276.008 78.129C276.008 79.107 275.651 79.875 274.937 80.433C274.229 80.991 273.248 81.27 271.994 81.27ZM283.676 81C283.034 81.12 282.404 81.171 281.786 81.153C281.174 81.141 280.625 81.03 280.139 80.82C279.653 80.604 279.284 80.265 279.032 79.803C278.81 79.383 278.693 78.954 278.681 78.516C278.669 78.078 278.663 77.583 278.663 77.031V68.58H280.823V76.905C280.823 77.295 280.826 77.637 280.832 77.931C280.844 78.225 280.907 78.465 281.021 78.651C281.237 79.011 281.582 79.212 282.056 79.254C282.53 79.296 283.07 79.272 283.676 79.182V81ZM276.899 72.981V71.28H283.676V72.981H276.899ZM288.484 81.27C287.782 81.27 287.188 81.138 286.702 80.874C286.216 80.604 285.847 80.247 285.595 79.803C285.349 79.359 285.226 78.87 285.226 78.336C285.226 77.868 285.304 77.448 285.46 77.076C285.616 76.698 285.856 76.374 286.18 76.104C286.504 75.828 286.924 75.603 287.44 75.429C287.83 75.303 288.286 75.189 288.808 75.087C289.336 74.985 289.906 74.892 290.518 74.808C291.136 74.718 291.781 74.622 292.453 74.52L291.679 74.961C291.685 74.289 291.535 73.794 291.229 73.476C290.923 73.158 290.407 72.999 289.681 72.999C289.243 72.999 288.82 73.101 288.412 73.305C288.004 73.509 287.719 73.86 287.557 74.358L285.577 73.737C285.817 72.915 286.273 72.255 286.945 71.757C287.623 71.259 288.535 71.01 289.681 71.01C290.545 71.01 291.304 71.151 291.958 71.433C292.618 71.715 293.107 72.177 293.425 72.819C293.599 73.161 293.704 73.512 293.74 73.872C293.776 74.226 293.794 74.613 293.794 75.033V81H291.895V78.894L292.21 79.236C291.772 79.938 291.259 80.454 290.671 80.784C290.089 81.108 289.36 81.27 288.484 81.27ZM288.916 79.542C289.408 79.542 289.828 79.455 290.176 79.281C290.524 79.107 290.8 78.894 291.004 78.642C291.214 78.39 291.355 78.153 291.427 77.931C291.541 77.655 291.604 77.34 291.616 76.986C291.634 76.626 291.643 76.335 291.643 76.113L292.309 76.311C291.655 76.413 291.094 76.503 290.626 76.581C290.158 76.659 289.756 76.734 289.42 76.806C289.084 76.872 288.787 76.947 288.529 77.031C288.277 77.121 288.064 77.226 287.89 77.346C287.716 77.466 287.581 77.604 287.485 77.76C287.395 77.916 287.35 78.099 287.35 78.309C287.35 78.549 287.41 78.762 287.53 78.948C287.65 79.128 287.824 79.272 288.052 79.38C288.286 79.488 288.574 79.542 288.916 79.542ZM296.137 81V71.28H298.054V73.647L297.82 73.341C297.94 73.017 298.099 72.723 298.297 72.459C298.501 72.189 298.744 71.967 299.026 71.793C299.266 71.631 299.53 71.505 299.818 71.415C300.112 71.319 300.412 71.262 300.718 71.244C301.024 71.22 301.321 71.232 301.609 71.28V73.305C301.321 73.221 300.988 73.194 300.61 73.224C300.238 73.254 299.902 73.359 299.602 73.539C299.302 73.701 299.056 73.908 298.864 74.16C298.678 74.412 298.54 74.7 298.45 75.024C298.36 75.342 298.315 75.687 298.315 76.059V81H296.137ZM309.024 81C308.382 81.12 307.752 81.171 307.134 81.153C306.522 81.141 305.973 81.03 305.487 80.82C305.001 80.604 304.632 80.265 304.38 79.803C304.158 79.383 304.041 78.954 304.029 78.516C304.017 78.078 304.011 77.583 304.011 77.031V68.58H306.171V76.905C306.171 77.295 306.174 77.637 306.18 77.931C306.192 78.225 306.255 78.465 306.369 78.651C306.585 79.011 306.93 79.212 307.404 79.254C307.878 79.296 308.418 79.272 309.024 79.182V81ZM302.247 72.981V71.28H309.024V72.981H302.247ZM315.041 81.27C314.057 81.27 313.193 81.057 312.449 80.631C311.705 80.205 311.123 79.614 310.703 78.858C310.289 78.102 310.082 77.232 310.082 76.248C310.082 75.186 310.286 74.265 310.694 73.485C311.102 72.699 311.669 72.09 312.395 71.658C313.121 71.226 313.961 71.01 314.915 71.01C315.923 71.01 316.778 71.247 317.48 71.721C318.188 72.189 318.713 72.852 319.055 73.71C319.397 74.568 319.526 75.579 319.442 76.743H317.291V75.951C317.285 74.895 317.099 74.124 316.733 73.638C316.367 73.152 315.791 72.909 315.005 72.909C314.117 72.909 313.457 73.185 313.025 73.737C312.593 74.283 312.377 75.084 312.377 76.14C312.377 77.124 312.593 77.886 313.025 78.426C313.457 78.966 314.087 79.236 314.915 79.236C315.449 79.236 315.908 79.119 316.292 78.885C316.682 78.645 316.982 78.3 317.192 77.85L319.334 78.498C318.962 79.374 318.386 80.055 317.606 80.541C316.832 81.027 315.977 81.27 315.041 81.27ZM311.693 76.743V75.105H318.38V76.743H311.693ZM322.17 79.83V77.607H324.393V79.83H322.17ZM322.188 74.673V72.45H324.411V74.673H322.188Z" fill="#2A1846"/>
</g>
<path d="M138.888 142.378V137.164H144.19V142.378H138.888ZM138.888 107.178V101.964H144.19V107.178H138.888ZM141.66 138.66C139.431 138.66 137.436 138.249 135.676 137.428C133.916 136.607 132.472 135.448 131.342 133.952C130.228 132.456 129.516 130.681 129.208 128.628L134.444 127.792C134.855 129.596 135.735 131.033 137.084 132.104C138.448 133.16 140.076 133.688 141.968 133.688C143.787 133.688 145.283 133.263 146.456 132.412C147.63 131.547 148.216 130.454 148.216 129.134C148.216 128.21 147.938 127.462 147.38 126.89C146.823 126.303 145.928 125.819 144.696 125.438L137.062 123.062C132.618 121.683 130.396 118.985 130.396 114.966C130.396 113.089 130.844 111.453 131.738 110.06C132.648 108.652 133.924 107.574 135.566 106.826C137.209 106.063 139.145 105.689 141.374 105.704C143.442 105.719 145.283 106.093 146.896 106.826C148.524 107.559 149.874 108.615 150.944 109.994C152.03 111.373 152.8 113.03 153.254 114.966L147.82 115.956C147.615 114.915 147.212 113.998 146.61 113.206C146.009 112.414 145.254 111.798 144.344 111.358C143.435 110.918 142.423 110.683 141.308 110.654C140.238 110.639 139.277 110.808 138.426 111.16C137.576 111.497 136.901 111.981 136.402 112.612C135.904 113.228 135.654 113.925 135.654 114.702C135.654 115.567 135.999 116.308 136.688 116.924C137.392 117.54 138.5 118.068 140.01 118.508L145.708 120.158C148.451 120.95 150.424 122.028 151.626 123.392C152.844 124.741 153.452 126.538 153.452 128.782C153.452 130.747 152.961 132.471 151.978 133.952C150.996 135.433 149.617 136.592 147.842 137.428C146.068 138.249 144.007 138.66 141.66 138.66ZM168.739 138.66C166.671 138.66 164.809 138.176 163.151 137.208C161.509 136.225 160.203 134.869 159.235 133.138C158.267 131.407 157.783 129.42 157.783 127.176V117.54C157.783 115.135 158.26 113.045 159.213 111.27C160.181 109.495 161.531 108.124 163.261 107.156C165.007 106.188 167.031 105.704 169.333 105.704C170.932 105.704 172.45 105.975 173.887 106.518C175.325 107.046 176.601 107.897 177.715 109.07L173.887 112.788C173.33 112.128 172.648 111.607 171.841 111.226C171.049 110.845 170.213 110.654 169.333 110.654C168.101 110.654 167.023 110.947 166.099 111.534C165.175 112.106 164.457 112.861 163.943 113.8C163.445 114.739 163.195 115.743 163.195 116.814V122.072L162.227 121.016C163.137 119.96 164.229 119.139 165.505 118.552C166.781 117.951 168.116 117.65 169.509 117.65C171.504 117.65 173.264 118.105 174.789 119.014C176.315 119.909 177.517 121.141 178.397 122.71C179.277 124.265 179.717 126.039 179.717 128.034C179.717 130.014 179.211 131.811 178.199 133.424C177.202 135.023 175.875 136.299 174.217 137.252C172.56 138.191 170.734 138.66 168.739 138.66ZM168.739 133.578C169.766 133.578 170.705 133.336 171.555 132.852C172.406 132.353 173.081 131.686 173.579 130.85C174.093 129.999 174.349 129.061 174.349 128.034C174.349 127.007 174.1 126.069 173.601 125.218C173.103 124.367 172.428 123.693 171.577 123.194C170.741 122.681 169.81 122.424 168.783 122.424C167.757 122.424 166.818 122.681 165.967 123.194C165.117 123.693 164.442 124.367 163.943 125.218C163.445 126.069 163.195 127.007 163.195 128.034C163.195 129.031 163.437 129.955 163.921 130.806C164.42 131.642 165.087 132.317 165.923 132.83C166.774 133.329 167.713 133.578 168.739 133.578ZM185.551 138V132.566H190.985V138H185.551ZM208.991 138.66C206.747 138.66 204.767 138.183 203.051 137.23C201.335 136.262 199.993 134.92 199.025 133.204C198.071 131.488 197.595 129.508 197.595 127.264V117.056C197.595 114.812 198.071 112.832 199.025 111.116C199.993 109.4 201.335 108.065 203.051 107.112C204.767 106.144 206.747 105.66 208.991 105.66C211.235 105.66 213.207 106.144 214.909 107.112C216.625 108.065 217.967 109.4 218.935 111.116C219.903 112.832 220.387 114.812 220.387 117.056V127.264C220.387 129.508 219.903 131.488 218.935 133.204C217.967 134.92 216.625 136.262 214.909 137.23C213.207 138.183 211.235 138.66 208.991 138.66ZM208.991 133.622C210.105 133.622 211.117 133.358 212.027 132.83C212.936 132.287 213.655 131.569 214.183 130.674C214.711 129.765 214.975 128.753 214.975 127.638V116.66C214.975 115.531 214.711 114.519 214.183 113.624C213.655 112.715 212.936 111.996 212.027 111.468C211.117 110.925 210.105 110.654 208.991 110.654C207.876 110.654 206.864 110.925 205.955 111.468C205.045 111.996 204.327 112.715 203.799 113.624C203.271 114.519 203.007 115.531 203.007 116.66V127.638C203.007 128.753 203.271 129.765 203.799 130.674C204.327 131.569 205.045 132.287 205.955 132.83C206.864 133.358 207.876 133.622 208.991 133.622ZM237.512 138.66C235.268 138.66 233.288 138.183 231.572 137.23C229.856 136.262 228.514 134.92 227.546 133.204C226.592 131.488 226.116 129.508 226.116 127.264V117.056C226.116 114.812 226.592 112.832 227.546 111.116C228.514 109.4 229.856 108.065 231.572 107.112C233.288 106.144 235.268 105.66 237.512 105.66C239.756 105.66 241.728 106.144 243.43 107.112C245.146 108.065 246.488 109.4 247.456 111.116C248.424 112.832 248.908 114.812 248.908 117.056V127.264C248.908 129.508 248.424 131.488 247.456 133.204C246.488 134.92 245.146 136.262 243.43 137.23C241.728 138.183 239.756 138.66 237.512 138.66ZM237.512 133.622C238.626 133.622 239.638 133.358 240.548 132.83C241.457 132.287 242.176 131.569 242.704 130.674C243.232 129.765 243.496 128.753 243.496 127.638V116.66C243.496 115.531 243.232 114.519 242.704 113.624C242.176 112.715 241.457 111.996 240.548 111.468C239.638 110.925 238.626 110.654 237.512 110.654C236.397 110.654 235.385 110.925 234.476 111.468C233.566 111.996 232.848 112.715 232.32 113.624C231.792 114.519 231.528 115.531 231.528 116.66V127.638C231.528 128.753 231.792 129.765 232.32 130.674C232.848 131.569 233.566 132.287 234.476 132.83C235.385 133.358 236.397 133.622 237.512 133.622ZM266.033 138.66C263.789 138.66 261.809 138.183 260.093 137.23C258.377 136.262 257.035 134.92 256.067 133.204C255.113 131.488 254.637 129.508 254.637 127.264V117.056C254.637 114.812 255.113 112.832 256.067 111.116C257.035 109.4 258.377 108.065 260.093 107.112C261.809 106.144 263.789 105.66 266.033 105.66C268.277 105.66 270.249 106.144 271.951 107.112C273.667 108.065 275.009 109.4 275.977 111.116C276.945 112.832 277.429 114.812 277.429 117.056V127.264C277.429 129.508 276.945 131.488 275.977 133.204C275.009 134.92 273.667 136.262 271.951 137.23C270.249 138.183 268.277 138.66 266.033 138.66ZM266.033 133.622C267.147 133.622 268.159 133.358 269.069 132.83C269.978 132.287 270.697 131.569 271.225 130.674C271.753 129.765 272.017 128.753 272.017 127.638V116.66C272.017 115.531 271.753 114.519 271.225 113.624C270.697 112.715 269.978 111.996 269.069 111.468C268.159 110.925 267.147 110.654 266.033 110.654C264.918 110.654 263.906 110.925 262.997 111.468C262.087 111.996 261.369 112.715 260.841 113.624C260.313 114.519 260.049 115.531 260.049 116.66V127.638C260.049 128.753 260.313 129.765 260.841 130.674C261.369 131.569 262.087 132.287 262.997 132.83C263.906 133.358 264.918 133.622 266.033 133.622Z" fill="#2A1846"/>
<g clip-path="url(#clip1)">
<rect opacity="0.5" x="48.016" y="167" width="312" height="4" rx="2" fill="#D1D1D7"/>
<rect x="48.016" y="167" width="188" height="4" rx="2" fill="#0FD08B"/>
<g filter="url(#filter0_d)">
<rect x="216.016" y="157" width="40" height="24" rx="12" fill="#0FD08B"/>
<path d="M242.016 165L246.016 169L242.016 173" stroke="white" stroke-miterlimit="10" stroke-linecap="round" stroke-linejoin="round"/>
<path d="M230.016 173L226.016 169L230.016 165" stroke="white" stroke-miterlimit="10" stroke-linecap="round" stroke-linejoin="round"/>
</g>
</g>
<path d="M51.635 198.393V196.734H53.322V198.393H51.635ZM51.635 187.193V185.534H53.322V187.193H51.635ZM52.517 197.21C51.8077 197.21 51.173 197.079 50.613 196.818C50.053 196.557 49.5933 196.188 49.234 195.712C48.8793 195.236 48.653 194.671 48.555 194.018L50.221 193.752C50.3517 194.326 50.6317 194.783 51.061 195.124C51.495 195.46 52.013 195.628 52.615 195.628C53.1937 195.628 53.6697 195.493 54.043 195.222C54.4163 194.947 54.603 194.599 54.603 194.179C54.603 193.885 54.5143 193.647 54.337 193.465C54.1597 193.278 53.875 193.124 53.483 193.003L51.054 192.247C49.64 191.808 48.933 190.95 48.933 189.671C48.933 189.074 49.0753 188.553 49.36 188.11C49.6493 187.662 50.0553 187.319 50.578 187.081C51.1007 186.838 51.7167 186.719 52.426 186.724C53.084 186.729 53.6697 186.848 54.183 187.081C54.701 187.314 55.1303 187.65 55.471 188.089C55.8163 188.528 56.0613 189.055 56.206 189.671L54.477 189.986C54.4117 189.655 54.2833 189.363 54.092 189.111C53.9007 188.859 53.6603 188.663 53.371 188.523C53.0817 188.383 52.7597 188.308 52.405 188.299C52.0643 188.294 51.7587 188.348 51.488 188.46C51.2173 188.567 51.0027 188.721 50.844 188.922C50.6853 189.118 50.606 189.34 50.606 189.587C50.606 189.862 50.7157 190.098 50.935 190.294C51.159 190.49 51.5113 190.658 51.992 190.798L53.805 191.323C54.6777 191.575 55.3053 191.918 55.688 192.352C56.0753 192.781 56.269 193.353 56.269 194.067C56.269 194.692 56.1127 195.241 55.8 195.712C55.4873 196.183 55.0487 196.552 54.484 196.818C53.9193 197.079 53.2637 197.21 52.517 197.21ZM59.537 197V188.761L57.647 189.916V188.054L59.537 186.92H61.259V197H59.537ZM63.6451 197V195.271H65.3741V197H63.6451ZM71.2431 197.21C70.5291 197.21 69.8991 197.058 69.3531 196.755C68.8071 196.447 68.3801 196.02 68.0721 195.474C67.7688 194.928 67.6171 194.298 67.6171 193.584V190.336C67.6171 189.622 67.7688 188.992 68.0721 188.446C68.3801 187.9 68.8071 187.475 69.3531 187.172C69.8991 186.864 70.5291 186.71 71.2431 186.71C71.9571 186.71 72.5848 186.864 73.1261 187.172C73.6721 187.475 74.0991 187.9 74.4071 188.446C74.7151 188.992 74.8691 189.622 74.8691 190.336V193.584C74.8691 194.298 74.7151 194.928 74.4071 195.474C74.0991 196.02 73.6721 196.447 73.1261 196.755C72.5848 197.058 71.9571 197.21 71.2431 197.21ZM71.2431 195.607C71.5978 195.607 71.9198 195.523 72.2091 195.355C72.4984 195.182 72.7271 194.954 72.8951 194.669C73.0631 194.38 73.1471 194.058 73.1471 193.703V190.21C73.1471 189.851 73.0631 189.529 72.8951 189.244C72.7271 188.955 72.4984 188.726 72.2091 188.558C71.9198 188.385 71.5978 188.299 71.2431 188.299C70.8884 188.299 70.5664 188.385 70.2771 188.558C69.9878 188.726 69.7591 188.955 69.5911 189.244C69.4231 189.529 69.3391 189.851 69.3391 190.21V193.703C69.3391 194.058 69.4231 194.38 69.5911 194.669C69.7591 194.954 69.9878 195.182 70.2771 195.355C70.5664 195.523 70.8884 195.607 71.2431 195.607ZM80.4579 197.21C79.7439 197.21 79.1139 197.058 78.5679 196.755C78.0219 196.447 77.5949 196.02 77.2869 195.474C76.9836 194.928 76.8319 194.298 76.8319 193.584V190.336C76.8319 189.622 76.9836 188.992 77.2869 188.446C77.5949 187.9 78.0219 187.475 78.5679 187.172C79.1139 186.864 79.7439 186.71 80.4579 186.71C81.1719 186.71 81.7996 186.864 82.3409 187.172C82.8869 187.475 83.3139 187.9 83.6219 188.446C83.9299 188.992 84.0839 189.622 84.0839 190.336V193.584C84.0839 194.298 83.9299 194.928 83.6219 195.474C83.3139 196.02 82.8869 196.447 82.3409 196.755C81.7996 197.058 81.1719 197.21 80.4579 197.21ZM80.4579 195.607C80.8126 195.607 81.1346 195.523 81.4239 195.355C81.7133 195.182 81.9419 194.954 82.1099 194.669C82.2779 194.38 82.3619 194.058 82.3619 193.703V190.21C82.3619 189.851 82.2779 189.529 82.1099 189.244C81.9419 188.955 81.7133 188.726 81.4239 188.558C81.1346 188.385 80.8126 188.299 80.4579 188.299C80.1033 188.299 79.7813 188.385 79.4919 188.558C79.2026 188.726 78.9739 188.955 78.8059 189.244C78.6379 189.529 78.5539 189.851 78.5539 190.21V193.703C78.5539 194.058 78.6379 194.38 78.8059 194.669C78.9739 194.954 79.2026 195.182 79.4919 195.355C79.7813 195.523 80.1033 195.607 80.4579 195.607ZM89.6728 197.21C88.9588 197.21 88.3288 197.058 87.7828 196.755C87.2368 196.447 86.8098 196.02 86.5018 195.474C86.1984 194.928 86.0468 194.298 86.0468 193.584V190.336C86.0468 189.622 86.1984 188.992 86.5018 188.446C86.8098 187.9 87.2368 187.475 87.7828 187.172C88.3288 186.864 88.9588 186.71 89.6728 186.71C90.3868 186.71 91.0144 186.864 91.5558 187.172C92.1018 187.475 92.5288 187.9 92.8368 188.446C93.1448 188.992 93.2988 189.622 93.2988 190.336V193.584C93.2988 194.298 93.1448 194.928 92.8368 195.474C92.5288 196.02 92.1018 196.447 91.5558 196.755C91.0144 197.058 90.3868 197.21 89.6728 197.21ZM89.6728 195.607C90.0274 195.607 90.3494 195.523 90.6388 195.355C90.9281 195.182 91.1568 194.954 91.3248 194.669C91.4928 194.38 91.5768 194.058 91.5768 193.703V190.21C91.5768 189.851 91.4928 189.529 91.3248 189.244C91.1568 188.955 90.9281 188.726 90.6388 188.558C90.3494 188.385 90.0274 188.299 89.6728 188.299C89.3181 188.299 88.9961 188.385 88.7068 188.558C88.4174 188.726 88.1888 188.955 88.0208 189.244C87.8528 189.529 87.7688 189.851 87.7688 190.21V193.703C87.7688 194.058 87.8528 194.38 88.0208 194.669C88.1888 194.954 88.4174 195.182 88.7068 195.355C88.9961 195.523 89.3181 195.607 89.6728 195.607Z" fill="#575372"/>
<path d="M307.594 198.393V196.734H309.281V198.393H307.594ZM307.594 187.193V185.534H309.281V187.193H307.594ZM308.476 197.21C307.767 197.21 307.132 197.079 306.572 196.818C306.012 196.557 305.552 196.188 305.193 195.712C304.838 195.236 304.612 194.671 304.514 194.018L306.18 193.752C306.311 194.326 306.591 194.783 307.02 195.124C307.454 195.46 307.972 195.628 308.574 195.628C309.153 195.628 309.629 195.493 310.002 195.222C310.375 194.947 310.562 194.599 310.562 194.179C310.562 193.885 310.473 193.647 310.296 193.465C310.119 193.278 309.834 193.124 309.442 193.003L307.013 192.247C305.599 191.808 304.892 190.95 304.892 189.671C304.892 189.074 305.034 188.553 305.319 188.11C305.608 187.662 306.014 187.319 306.537 187.081C307.06 186.838 307.676 186.719 308.385 186.724C309.043 186.729 309.629 186.848 310.142 187.081C310.66 187.314 311.089 187.65 311.43 188.089C311.775 188.528 312.02 189.055 312.165 189.671L310.436 189.986C310.371 189.655 310.242 189.363 310.051 189.111C309.86 188.859 309.619 188.663 309.33 188.523C309.041 188.383 308.719 188.308 308.364 188.299C308.023 188.294 307.718 188.348 307.447 188.46C307.176 188.567 306.962 188.721 306.803 188.922C306.644 189.118 306.565 189.34 306.565 189.587C306.565 189.862 306.675 190.098 306.894 190.294C307.118 190.49 307.47 190.658 307.951 190.798L309.764 191.323C310.637 191.575 311.264 191.918 311.647 192.352C312.034 192.781 312.228 193.353 312.228 194.067C312.228 194.692 312.072 195.241 311.759 195.712C311.446 196.183 311.008 196.552 310.443 196.818C309.878 197.079 309.223 197.21 308.476 197.21ZM315.496 197V188.761L313.606 189.916V188.054L315.496 186.92H317.218V197H315.496ZM323.511 197.21C322.797 197.21 322.167 197.058 321.621 196.755C321.075 196.447 320.648 196.02 320.34 195.474C320.036 194.928 319.885 194.298 319.885 193.584V190.336C319.885 189.622 320.036 188.992 320.34 188.446C320.648 187.9 321.075 187.475 321.621 187.172C322.167 186.864 322.797 186.71 323.511 186.71C324.225 186.71 324.852 186.864 325.394 187.172C325.94 187.475 326.367 187.9 326.675 188.446C326.983 188.992 327.137 189.622 327.137 190.336V193.584C327.137 194.298 326.983 194.928 326.675 195.474C326.367 196.02 325.94 196.447 325.394 196.755C324.852 197.058 324.225 197.21 323.511 197.21ZM323.511 195.607C323.865 195.607 324.187 195.523 324.477 195.355C324.766 195.182 324.995 194.954 325.163 194.669C325.331 194.38 325.415 194.058 325.415 193.703V190.21C325.415 189.851 325.331 189.529 325.163 189.244C324.995 188.955 324.766 188.726 324.477 188.558C324.187 188.385 323.865 188.299 323.511 188.299C323.156 188.299 322.834 188.385 322.545 188.558C322.255 188.726 322.027 188.955 321.859 189.244C321.691 189.529 321.607 189.851 321.607 190.21V193.703C321.607 194.058 321.691 194.38 321.859 194.669C322.027 194.954 322.255 195.182 322.545 195.355C322.834 195.523 323.156 195.607 323.511 195.607ZM329.38 197V195.271H331.109V197H329.38ZM336.977 197.21C336.263 197.21 335.633 197.058 335.087 196.755C334.541 196.447 334.114 196.02 333.806 195.474C333.503 194.928 333.351 194.298 333.351 193.584V190.336C333.351 189.622 333.503 188.992 333.806 188.446C334.114 187.9 334.541 187.475 335.087 187.172C335.633 186.864 336.263 186.71 336.977 186.71C337.691 186.71 338.319 186.864 338.86 187.172C339.406 187.475 339.833 187.9 340.141 188.446C340.449 188.992 340.603 189.622 340.603 190.336V193.584C340.603 194.298 340.449 194.928 340.141 195.474C339.833 196.02 339.406 196.447 338.86 196.755C338.319 197.058 337.691 197.21 336.977 197.21ZM336.977 195.607C337.332 195.607 337.654 195.523 337.943 195.355C338.233 195.182 338.461 194.954 338.629 194.669C338.797 194.38 338.881 194.058 338.881 193.703V190.21C338.881 189.851 338.797 189.529 338.629 189.244C338.461 188.955 338.233 188.726 337.943 188.558C337.654 188.385 337.332 188.299 336.977 188.299C336.623 188.299 336.301 188.385 336.011 188.558C335.722 188.726 335.493 188.955 335.325 189.244C335.157 189.529 335.073 189.851 335.073 190.21V193.703C335.073 194.058 335.157 194.38 335.325 194.669C335.493 194.954 335.722 195.182 336.011 195.355C336.301 195.523 336.623 195.607 336.977 195.607ZM346.192 197.21C345.478 197.21 344.848 197.058 344.302 196.755C343.756 196.447 343.329 196.02 343.021 195.474C342.718 194.928 342.566 194.298 342.566 193.584V190.336C342.566 189.622 342.718 188.992 343.021 188.446C343.329 187.9 343.756 187.475 344.302 187.172C344.848 186.864 345.478 186.71 346.192 186.71C346.906 186.71 347.534 186.864 348.075 187.172C348.621 187.475 349.048 187.9 349.356 188.446C349.664 188.992 349.818 189.622 349.818 190.336V193.584C349.818 194.298 349.664 194.928 349.356 195.474C349.048 196.02 348.621 196.447 348.075 196.755C347.534 197.058 346.906 197.21 346.192 197.21ZM346.192 195.607C346.547 195.607 346.869 195.523 347.158 195.355C347.448 195.182 347.676 194.954 347.844 194.669C348.012 194.38 348.096 194.058 348.096 193.703V190.21C348.096 189.851 348.012 189.529 347.844 189.244C347.676 188.955 347.448 188.726 347.158 188.558C346.869 188.385 346.547 188.299 346.192 188.299C345.838 188.299 345.516 188.385 345.226 188.558C344.937 188.726 344.708 188.955 344.54 189.244C344.372 189.529 344.288 189.851 344.288 190.21V193.703C344.288 194.058 344.372 194.38 344.54 194.669C344.708 194.954 344.937 195.182 345.226 195.355C345.516 195.523 345.838 195.607 346.192 195.607ZM355.407 197.21C354.693 197.21 354.063 197.058 353.517 196.755C352.971 196.447 352.544 196.02 352.236 195.474C351.933 194.928 351.781 194.298 351.781 193.584V190.336C351.781 189.622 351.933 188.992 352.236 188.446C352.544 187.9 352.971 187.475 353.517 187.172C354.063 186.864 354.693 186.71 355.407 186.71C356.121 186.71 356.749 186.864 357.29 187.172C357.836 187.475 358.263 187.9 358.571 188.446C358.879 188.992 359.033 189.622 359.033 190.336V193.584C359.033 194.298 358.879 194.928 358.571 195.474C358.263 196.02 357.836 196.447 357.29 196.755C356.749 197.058 356.121 197.21 355.407 197.21ZM355.407 195.607C355.762 195.607 356.084 195.523 356.373 195.355C356.662 195.182 356.891 194.954 357.059 194.669C357.227 194.38 357.311 194.058 357.311 193.703V190.21C357.311 189.851 357.227 189.529 357.059 189.244C356.891 188.955 356.662 188.726 356.373 188.558C356.084 188.385 355.762 188.299 355.407 188.299C355.052 188.299 354.73 188.385 354.441 188.558C354.152 188.726 353.923 188.955 353.755 189.244C353.587 189.529 353.503 189.851 353.503 190.21V193.703C353.503 194.058 353.587 194.38 353.755 194.669C353.923 194.954 354.152 195.182 354.441 195.355C354.73 195.523 355.052 195.607 355.407 195.607Z" fill="#575372"/>
<path d="M48.016 214.5H360.016" stroke="#D1D1D7"/>
<g clip-path="url(#clip2)">
<g clip-path="url(#clip3)">
<path d="M48.996 242V231.92H52.979C53.077 231.92 53.1937 231.925 53.329 231.934C53.4643 231.939 53.595 231.953 53.721 231.976C54.267 232.06 54.7243 232.247 55.093 232.536C55.4663 232.825 55.7463 233.192 55.933 233.635C56.1197 234.074 56.213 234.561 56.213 235.098C56.213 235.63 56.1173 236.118 55.926 236.561C55.7393 237 55.4593 237.366 55.086 237.66C54.7173 237.949 54.2623 238.136 53.721 238.22C53.595 238.239 53.4643 238.253 53.329 238.262C53.1937 238.271 53.077 238.276 52.979 238.276H50.242V242H48.996ZM50.242 237.093H52.937C53.0257 237.093 53.126 237.088 53.238 237.079C53.3547 237.07 53.4643 237.053 53.567 237.03C53.889 236.955 54.1503 236.82 54.351 236.624C54.5563 236.423 54.7057 236.19 54.799 235.924C54.8923 235.653 54.939 235.378 54.939 235.098C54.939 234.818 54.8923 234.545 54.799 234.279C54.7057 234.008 54.5563 233.773 54.351 233.572C54.1503 233.371 53.889 233.236 53.567 233.166C53.4643 233.138 53.3547 233.122 53.238 233.117C53.126 233.108 53.0257 233.103 52.937 233.103H50.242V237.093ZM57.7493 242V231.71H58.9953V242H57.7493ZM63.2446 242.21C62.6799 242.21 62.2063 242.107 61.8236 241.902C61.4456 241.692 61.1586 241.417 60.9626 241.076C60.7713 240.735 60.6756 240.362 60.6756 239.956C60.6756 239.559 60.7503 239.216 60.8996 238.927C61.0536 238.633 61.2683 238.39 61.5436 238.199C61.8189 238.003 62.1479 237.849 62.5306 237.737C62.8899 237.639 63.2913 237.555 63.7346 237.485C64.1826 237.41 64.6353 237.343 65.0926 237.282C65.5499 237.221 65.9769 237.163 66.3736 237.107L65.9256 237.366C65.9396 236.694 65.8043 236.197 65.5196 235.875C65.2396 235.553 64.7543 235.392 64.0636 235.392C63.6063 235.392 63.2049 235.497 62.8596 235.707C62.5189 235.912 62.2786 236.248 62.1386 236.715L60.9556 236.358C61.1376 235.695 61.4899 235.175 62.0126 234.797C62.5353 234.419 63.2236 234.23 64.0776 234.23C64.7636 234.23 65.3516 234.354 65.8416 234.601C66.3363 234.844 66.6909 235.212 66.9056 235.707C67.0129 235.94 67.0806 236.195 67.1086 236.47C67.1366 236.741 67.1506 237.025 67.1506 237.324V242H66.0446V240.187L66.3036 240.355C66.0189 240.966 65.6199 241.428 65.1066 241.741C64.5979 242.054 63.9773 242.21 63.2446 242.21ZM63.4336 241.167C63.8816 241.167 64.2689 241.088 64.5956 240.929C64.9269 240.766 65.1929 240.553 65.3936 240.292C65.5943 240.026 65.7249 239.737 65.7856 239.424C65.8556 239.191 65.8929 238.932 65.8976 238.647C65.9069 238.358 65.9116 238.136 65.9116 237.982L66.3456 238.171C65.9396 238.227 65.5406 238.281 65.1486 238.332C64.7566 238.383 64.3856 238.439 64.0356 238.5C63.6856 238.556 63.3706 238.624 63.0906 238.703C62.8853 238.768 62.6916 238.852 62.5096 238.955C62.3323 239.058 62.1876 239.191 62.0756 239.354C61.9683 239.513 61.9146 239.711 61.9146 239.949C61.9146 240.154 61.9659 240.35 62.0686 240.537C62.1759 240.724 62.3393 240.875 62.5586 240.992C62.7826 241.109 63.0743 241.167 63.4336 241.167ZM68.2706 242V241.776L72.8556 235.574H68.6486V234.44H74.8646V234.678L70.2866 240.866H74.6266V242H68.2706ZM79.0676 242.21C78.3162 242.21 77.6676 242.04 77.1216 241.699C76.5802 241.358 76.1626 240.887 75.8686 240.285C75.5746 239.683 75.4276 238.992 75.4276 238.213C75.4276 237.42 75.5769 236.724 75.8756 236.127C76.1742 235.53 76.5966 235.065 77.1426 234.734C77.6886 234.398 78.3302 234.23 79.0676 234.23C79.8236 234.23 80.4746 234.4 81.0206 234.741C81.5666 235.077 81.9842 235.546 82.2736 236.148C82.5676 236.745 82.7146 237.434 82.7146 238.213C82.7146 239.002 82.5676 239.697 82.2736 240.299C81.9796 240.896 81.5596 241.365 81.0136 241.706C80.4676 242.042 79.8189 242.21 79.0676 242.21ZM79.0676 241.027C79.8516 241.027 80.4349 240.766 80.8176 240.243C81.2002 239.72 81.3916 239.044 81.3916 238.213C81.3916 237.359 81.1979 236.68 80.8106 236.176C80.4232 235.667 79.8422 235.413 79.0676 235.413C78.5402 235.413 78.1062 235.532 77.7656 235.77C77.4249 236.008 77.1706 236.337 77.0026 236.757C76.8346 237.177 76.7506 237.662 76.7506 238.213C76.7506 239.062 76.9466 239.744 77.3386 240.257C77.7306 240.77 78.3069 241.027 79.0676 241.027ZM90.0265 242.21C89.3218 242.21 88.7175 242.035 88.2135 241.685C87.7095 241.33 87.3198 240.852 87.0445 240.25C86.7738 239.648 86.6385 238.969 86.6385 238.213C86.6385 237.457 86.7738 236.778 87.0445 236.176C87.3198 235.574 87.7095 235.1 88.2135 234.755C88.7175 234.405 89.3195 234.23 90.0195 234.23C90.7335 234.23 91.3332 234.403 91.8185 234.748C92.3038 235.093 92.6702 235.567 92.9175 236.169C93.1695 236.771 93.2955 237.452 93.2955 238.213C93.2955 238.964 93.1695 239.643 92.9175 240.25C92.6702 240.852 92.3038 241.33 91.8185 241.685C91.3332 242.035 90.7358 242.21 90.0265 242.21ZM90.1805 241.069C90.6892 241.069 91.1068 240.948 91.4335 240.705C91.7602 240.458 92.0005 240.119 92.1545 239.69C92.3132 239.256 92.3925 238.764 92.3925 238.213C92.3925 237.653 92.3132 237.161 92.1545 236.736C92.0005 236.307 91.7625 235.973 91.4405 235.735C91.1185 235.492 90.7102 235.371 90.2155 235.371C89.7022 235.371 89.2775 235.497 88.9415 235.749C88.6102 236.001 88.3628 236.342 88.1995 236.771C88.0408 237.2 87.9615 237.681 87.9615 238.213C87.9615 238.75 88.0432 239.235 88.2065 239.669C88.3698 240.098 88.6148 240.439 88.9415 240.691C89.2728 240.943 89.6858 241.069 90.1805 241.069ZM92.3925 242V236.435H92.2525V231.92H93.5055V242H92.3925ZM98.7427 242.21C98.0007 242.21 97.352 242.047 96.7967 241.72C96.246 241.389 95.8167 240.929 95.5087 240.341C95.2007 239.748 95.0467 239.058 95.0467 238.269C95.0467 237.443 95.1984 236.729 95.5017 236.127C95.805 235.52 96.2274 235.054 96.7687 234.727C97.3147 234.396 97.954 234.23 98.6867 234.23C99.4474 234.23 100.094 234.405 100.626 234.755C101.162 235.105 101.564 235.604 101.83 236.253C102.1 236.902 102.217 237.674 102.18 238.57H100.92V238.122C100.906 237.193 100.717 236.5 100.353 236.043C99.9887 235.581 99.4474 235.35 98.7287 235.35C97.9587 235.35 97.373 235.597 96.9717 236.092C96.5704 236.587 96.3697 237.296 96.3697 238.22C96.3697 239.111 96.5704 239.802 96.9717 240.292C97.373 240.782 97.9447 241.027 98.6867 241.027C99.186 241.027 99.62 240.913 99.9887 240.684C100.357 240.455 100.647 240.126 100.857 239.697L102.054 240.11C101.76 240.777 101.316 241.295 100.724 241.664C100.136 242.028 99.4754 242.21 98.7427 242.21ZM95.9497 238.57V237.569H101.536V238.57H95.9497ZM109.509 242.21C108.804 242.21 108.2 242.035 107.696 241.685C107.192 241.33 106.802 240.852 106.527 240.25C106.256 239.648 106.121 238.969 106.121 238.213C106.121 237.457 106.256 236.778 106.527 236.176C106.802 235.574 107.192 235.1 107.696 234.755C108.2 234.405 108.802 234.23 109.502 234.23C110.216 234.23 110.816 234.403 111.301 234.748C111.786 235.093 112.153 235.567 112.4 236.169C112.652 236.771 112.778 237.452 112.778 238.213C112.778 238.964 112.652 239.643 112.4 240.25C112.153 240.852 111.786 241.33 111.301 241.685C110.816 242.035 110.218 242.21 109.509 242.21ZM109.663 241.069C110.172 241.069 110.589 240.948 110.916 240.705C111.243 240.458 111.483 240.119 111.637 239.69C111.796 239.256 111.875 238.764 111.875 238.213C111.875 237.653 111.796 237.161 111.637 236.736C111.483 236.307 111.245 235.973 110.923 235.735C110.601 235.492 110.193 235.371 109.698 235.371C109.185 235.371 108.76 235.497 108.424 235.749C108.093 236.001 107.845 236.342 107.682 236.771C107.523 237.2 107.444 237.681 107.444 238.213C107.444 238.75 107.526 239.235 107.689 239.669C107.852 240.098 108.097 240.439 108.424 240.691C108.755 240.943 109.168 241.069 109.663 241.069ZM111.875 242V236.435H111.735V231.92H112.988V242H111.875ZM118.225 242.21C117.483 242.21 116.834 242.047 116.279 241.72C115.728 241.389 115.299 240.929 114.991 240.341C114.683 239.748 114.529 239.058 114.529 238.269C114.529 237.443 114.681 236.729 114.984 236.127C115.287 235.52 115.71 235.054 116.251 234.727C116.797 234.396 117.436 234.23 118.169 234.23C118.93 234.23 119.576 234.405 120.108 234.755C120.645 235.105 121.046 235.604 121.312 236.253C121.583 236.902 121.699 237.674 121.662 238.57H120.402V238.122C120.388 237.193 120.199 236.5 119.835 236.043C119.471 235.581 118.93 235.35 118.211 235.35C117.441 235.35 116.855 235.597 116.454 236.092C116.053 236.587 115.852 237.296 115.852 238.22C115.852 239.111 116.053 239.802 116.454 240.292C116.855 240.782 117.427 241.027 118.169 241.027C118.668 241.027 119.102 240.913 119.471 240.684C119.84 240.455 120.129 240.126 120.339 239.697L121.536 240.11C121.242 240.777 120.799 241.295 120.206 241.664C119.618 242.028 118.958 242.21 118.225 242.21ZM115.432 238.57V237.569H121.018V238.57H115.432ZM124.991 242L122.247 234.44H123.507L125.628 240.411L127.742 234.44H129.009L126.265 242H124.991ZM133.222 242.21C132.471 242.21 131.822 242.04 131.276 241.699C130.735 241.358 130.317 240.887 130.023 240.285C129.729 239.683 129.582 238.992 129.582 238.213C129.582 237.42 129.731 236.724 130.03 236.127C130.329 235.53 130.751 235.065 131.297 234.734C131.843 234.398 132.485 234.23 133.222 234.23C133.978 234.23 134.629 234.4 135.175 234.741C135.721 235.077 136.139 235.546 136.428 236.148C136.722 236.745 136.869 237.434 136.869 238.213C136.869 239.002 136.722 239.697 136.428 240.299C136.134 240.896 135.714 241.365 135.168 241.706C134.622 242.042 133.973 242.21 133.222 242.21ZM133.222 241.027C134.006 241.027 134.589 240.766 134.972 240.243C135.355 239.72 135.546 239.044 135.546 238.213C135.546 237.359 135.352 236.68 134.965 236.176C134.578 235.667 133.997 235.413 133.222 235.413C132.695 235.413 132.261 235.532 131.92 235.77C131.579 236.008 131.325 236.337 131.157 236.757C130.989 237.177 130.905 237.662 130.905 238.213C130.905 239.062 131.101 239.744 131.493 240.257C131.885 240.77 132.461 241.027 133.222 241.027ZM138.55 242V231.71H139.796V242H138.55ZM144.766 242.196C144.281 242.196 143.863 242.119 143.513 241.965C143.168 241.811 142.881 241.606 142.652 241.349C142.424 241.092 142.244 240.808 142.113 240.495C141.983 240.182 141.889 239.863 141.833 239.536C141.782 239.209 141.756 238.904 141.756 238.619V234.44H143.016V238.227C143.016 238.582 143.049 238.925 143.114 239.256C143.18 239.587 143.289 239.886 143.443 240.152C143.602 240.418 143.812 240.628 144.073 240.782C144.339 240.936 144.671 241.013 145.067 241.013C145.38 241.013 145.665 240.959 145.921 240.852C146.178 240.745 146.397 240.586 146.579 240.376C146.761 240.161 146.901 239.891 146.999 239.564C147.097 239.237 147.146 238.857 147.146 238.423L147.965 238.675C147.965 239.403 147.832 240.031 147.566 240.558C147.305 241.085 146.934 241.491 146.453 241.776C145.977 242.056 145.415 242.196 144.766 242.196ZM147.286 242V239.977H147.146V234.44H148.399V242H147.286ZM153.544 242.21C152.779 242.21 152.128 242.04 151.591 241.699C151.059 241.354 150.653 240.88 150.373 240.278C150.093 239.676 149.949 238.99 149.939 238.22C149.949 237.431 150.096 236.738 150.38 236.141C150.67 235.539 151.083 235.07 151.619 234.734C152.156 234.398 152.802 234.23 153.558 234.23C154.356 234.23 155.042 234.426 155.616 234.818C156.195 235.21 156.582 235.747 156.778 236.428L155.546 236.799C155.388 236.36 155.129 236.02 154.769 235.777C154.415 235.534 154.006 235.413 153.544 235.413C153.026 235.413 152.599 235.534 152.263 235.777C151.927 236.015 151.678 236.346 151.514 236.771C151.351 237.191 151.267 237.674 151.262 238.22C151.272 239.06 151.465 239.739 151.843 240.257C152.226 240.77 152.793 241.027 153.544 241.027C154.039 241.027 154.45 240.915 154.776 240.691C155.103 240.462 155.35 240.133 155.518 239.704L156.778 240.033C156.517 240.738 156.109 241.277 155.553 241.65C154.998 242.023 154.328 242.21 153.544 242.21ZM158.142 233.103V231.815H159.388V233.103H158.142ZM158.142 242V234.44H159.388V242H158.142ZM165.317 233.39H164.071L164.603 231.71H165.849L165.317 233.39ZM164.708 242.21C163.957 242.21 163.308 242.04 162.762 241.699C162.221 241.358 161.803 240.887 161.509 240.285C161.215 239.683 161.068 238.992 161.068 238.213C161.068 237.42 161.218 236.724 161.516 236.127C161.815 235.53 162.237 235.065 162.783 234.734C163.329 234.398 163.971 234.23 164.708 234.23C165.464 234.23 166.115 234.4 166.661 234.741C167.207 235.077 167.625 235.546 167.914 236.148C168.208 236.745 168.355 237.434 168.355 238.213C168.355 239.002 168.208 239.697 167.914 240.299C167.62 240.896 167.2 241.365 166.654 241.706C166.108 242.042 165.46 242.21 164.708 242.21ZM164.708 241.027C165.492 241.027 166.076 240.766 166.458 240.243C166.841 239.72 167.032 239.044 167.032 238.213C167.032 237.359 166.839 236.68 166.451 236.176C166.064 235.667 165.483 235.413 164.708 235.413C164.181 235.413 163.747 235.532 163.406 235.77C163.066 236.008 162.811 236.337 162.643 236.757C162.475 237.177 162.391 237.662 162.391 238.213C162.391 239.062 162.587 239.744 162.979 240.257C163.371 240.77 163.948 241.027 164.708 241.027ZM175.279 242V238.213C175.279 237.854 175.247 237.508 175.181 237.177C175.121 236.846 175.011 236.549 174.852 236.288C174.698 236.022 174.488 235.812 174.222 235.658C173.961 235.504 173.63 235.427 173.228 235.427C172.916 235.427 172.631 235.481 172.374 235.588C172.122 235.691 171.905 235.849 171.723 236.064C171.541 236.279 171.399 236.549 171.296 236.876C171.198 237.198 171.149 237.578 171.149 238.017L170.33 237.765C170.33 237.032 170.461 236.405 170.722 235.882C170.988 235.355 171.359 234.951 171.835 234.671C172.316 234.386 172.881 234.244 173.529 234.244C174.019 234.244 174.437 234.321 174.782 234.475C175.128 234.629 175.415 234.834 175.643 235.091C175.872 235.343 176.052 235.628 176.182 235.945C176.313 236.258 176.404 236.577 176.455 236.904C176.511 237.226 176.539 237.532 176.539 237.821V242H175.279ZM169.889 242V234.44H171.009V236.463H171.149V242H169.889Z" fill="#2A1846"/>
<path d="M308.482 242.189C307.978 242.189 307.502 242.091 307.054 241.895C306.606 241.699 306.216 241.421 305.885 241.062C305.558 240.703 305.322 240.278 305.178 239.788L306.809 239.347C306.925 239.748 307.138 240.059 307.446 240.278C307.758 240.493 308.101 240.598 308.475 240.593C308.806 240.593 309.102 240.516 309.364 240.362C309.625 240.208 309.83 240 309.98 239.739C310.129 239.473 310.204 239.177 310.204 238.85C310.204 238.351 310.043 237.933 309.721 237.597C309.399 237.261 308.983 237.093 308.475 237.093C308.321 237.093 308.169 237.114 308.02 237.156C307.875 237.198 307.735 237.256 307.6 237.331L306.83 236.001L310.218 233.103L310.365 233.509H305.57V231.92H311.751V233.516L309.028 236.134L309.014 235.637C309.625 235.679 310.145 235.849 310.575 236.148C311.009 236.447 311.34 236.832 311.569 237.303C311.802 237.774 311.919 238.29 311.919 238.85C311.919 239.485 311.762 240.054 311.45 240.558C311.142 241.062 310.726 241.461 310.204 241.755C309.686 242.044 309.112 242.189 308.482 242.189ZM325.614 242V237.408C325.614 236.89 325.486 236.486 325.229 236.197C324.972 235.903 324.625 235.756 324.186 235.756C323.915 235.756 323.673 235.819 323.458 235.945C323.243 236.066 323.073 236.248 322.947 236.491C322.821 236.729 322.758 237.014 322.758 237.345L322.009 236.904C322.004 236.381 322.121 235.922 322.359 235.525C322.602 235.124 322.928 234.811 323.339 234.587C323.75 234.363 324.207 234.251 324.711 234.251C325.546 234.251 326.186 234.503 326.629 235.007C327.077 235.506 327.301 236.164 327.301 236.981V242H325.614ZM316.521 242V234.44H318.012V236.785H318.222V242H316.521ZM321.078 242V237.429C321.078 236.902 320.95 236.491 320.693 236.197C320.436 235.903 320.086 235.756 319.643 235.756C319.214 235.756 318.868 235.903 318.607 236.197C318.35 236.491 318.222 236.874 318.222 237.345L317.466 236.841C317.466 236.351 317.587 235.91 317.83 235.518C318.073 235.126 318.399 234.818 318.81 234.594C319.225 234.365 319.69 234.251 320.203 234.251C320.768 234.251 321.239 234.372 321.617 234.615C322 234.853 322.284 235.18 322.471 235.595C322.662 236.006 322.758 236.47 322.758 236.988V242H321.078ZM332.441 242.21C331.675 242.21 331.003 242.044 330.425 241.713C329.846 241.382 329.393 240.922 329.067 240.334C328.745 239.746 328.584 239.069 328.584 238.304C328.584 237.478 328.742 236.762 329.06 236.155C329.377 235.544 329.818 235.07 330.383 234.734C330.947 234.398 331.601 234.23 332.343 234.23C333.127 234.23 333.792 234.414 334.338 234.783C334.888 235.147 335.297 235.663 335.563 236.33C335.829 236.997 335.929 237.784 335.864 238.689H334.191V238.073C334.186 237.252 334.041 236.652 333.757 236.274C333.472 235.896 333.024 235.707 332.413 235.707C331.722 235.707 331.209 235.922 330.873 236.351C330.537 236.776 330.369 237.399 330.369 238.22C330.369 238.985 330.537 239.578 330.873 239.998C331.209 240.418 331.699 240.628 332.343 240.628C332.758 240.628 333.115 240.537 333.414 240.355C333.717 240.168 333.95 239.9 334.114 239.55L335.78 240.054C335.49 240.735 335.042 241.265 334.436 241.643C333.834 242.021 333.169 242.21 332.441 242.21ZM329.837 238.689V237.415H335.038V238.689H329.837ZM340.345 242.21C339.411 242.21 338.653 242 338.07 241.58C337.486 241.16 337.132 240.57 337.006 239.809L338.728 239.543C338.816 239.916 339.012 240.21 339.316 240.425C339.619 240.64 340.002 240.747 340.464 240.747C340.87 240.747 341.182 240.668 341.402 240.509C341.626 240.346 341.738 240.124 341.738 239.844C341.738 239.671 341.696 239.534 341.612 239.431C341.532 239.324 341.355 239.221 341.08 239.123C340.804 239.025 340.382 238.901 339.813 238.752C339.178 238.584 338.674 238.404 338.301 238.213C337.927 238.017 337.659 237.786 337.496 237.52C337.332 237.254 337.251 236.932 337.251 236.554C337.251 236.083 337.374 235.672 337.622 235.322C337.869 234.972 338.214 234.704 338.658 234.517C339.101 234.326 339.624 234.23 340.226 234.23C340.814 234.23 341.334 234.321 341.787 234.503C342.244 234.685 342.613 234.944 342.893 235.28C343.173 235.616 343.345 236.01 343.411 236.463L341.689 236.771C341.647 236.449 341.5 236.195 341.248 236.008C341 235.821 340.669 235.716 340.254 235.693C339.857 235.67 339.537 235.73 339.295 235.875C339.052 236.015 338.931 236.213 338.931 236.47C338.931 236.615 338.98 236.738 339.078 236.841C339.176 236.944 339.372 237.046 339.666 237.149C339.964 237.252 340.408 237.378 340.996 237.527C341.598 237.681 342.078 237.858 342.438 238.059C342.802 238.255 343.063 238.491 343.222 238.766C343.385 239.041 343.467 239.375 343.467 239.767C343.467 240.528 343.189 241.125 342.634 241.559C342.083 241.993 341.32 242.21 340.345 242.21ZM348.437 242.21C347.672 242.21 347 242.044 346.421 241.713C345.842 241.382 345.39 240.922 345.063 240.334C344.741 239.746 344.58 239.069 344.58 238.304C344.58 237.478 344.739 236.762 345.056 236.155C345.373 235.544 345.814 235.07 346.379 234.734C346.944 234.398 347.597 234.23 348.339 234.23C349.123 234.23 349.788 234.414 350.334 234.783C350.885 235.147 351.293 235.663 351.559 236.33C351.825 236.997 351.925 237.784 351.86 238.689H350.187V238.073C350.182 237.252 350.038 236.652 349.753 236.274C349.468 235.896 349.02 235.707 348.409 235.707C347.718 235.707 347.205 235.922 346.869 236.351C346.533 236.776 346.365 237.399 346.365 238.22C346.365 238.985 346.533 239.578 346.869 239.998C347.205 240.418 347.695 240.628 348.339 240.628C348.754 240.628 349.111 240.537 349.41 240.355C349.713 240.168 349.947 239.9 350.11 239.55L351.776 240.054C351.487 240.735 351.039 241.265 350.432 241.643C349.83 242.021 349.165 242.21 348.437 242.21ZM345.833 238.689V237.415H351.034V238.689H345.833ZM356.341 242.21C355.407 242.21 354.649 242 354.066 241.58C353.482 241.16 353.128 240.57 353.002 239.809L354.724 239.543C354.812 239.916 355.008 240.21 355.312 240.425C355.615 240.64 355.998 240.747 356.46 240.747C356.866 240.747 357.178 240.668 357.398 240.509C357.622 240.346 357.734 240.124 357.734 239.844C357.734 239.671 357.692 239.534 357.608 239.431C357.528 239.324 357.351 239.221 357.076 239.123C356.8 239.025 356.378 238.901 355.809 238.752C355.174 238.584 354.67 238.404 354.297 238.213C353.923 238.017 353.655 237.786 353.492 237.52C353.328 237.254 353.247 236.932 353.247 236.554C353.247 236.083 353.37 235.672 353.618 235.322C353.865 234.972 354.21 234.704 354.654 234.517C355.097 234.326 355.62 234.23 356.222 234.23C356.81 234.23 357.33 234.321 357.783 234.503C358.24 234.685 358.609 234.944 358.889 235.28C359.169 235.616 359.341 236.01 359.407 236.463L357.685 236.771C357.643 236.449 357.496 236.195 357.244 236.008C356.996 235.821 356.665 235.716 356.25 235.693C355.853 235.67 355.533 235.73 355.291 235.875C355.048 236.015 354.927 236.213 354.927 236.47C354.927 236.615 354.976 236.738 355.074 236.841C355.172 236.944 355.368 237.046 355.662 237.149C355.96 237.252 356.404 237.378 356.992 237.527C357.594 237.681 358.074 237.858 358.434 238.059C358.798 238.255 359.059 238.491 359.218 238.766C359.381 239.041 359.463 239.375 359.463 239.767C359.463 240.528 359.185 241.125 358.63 241.559C358.079 241.993 357.316 242.21 356.341 242.21Z" fill="#2A1846"/>
</g>
<g clip-path="url(#clip4)">
<path d="M53.14 268.21C52.1367 268.21 51.285 267.988 50.585 267.545C49.885 267.102 49.3507 266.486 48.982 265.697C48.618 264.908 48.436 263.996 48.436 262.96C48.436 261.924 48.618 261.012 48.982 260.223C49.3507 259.434 49.885 258.818 50.585 258.375C51.285 257.932 52.1367 257.71 53.14 257.71C54.3067 257.71 55.2657 258.006 56.017 258.599C56.773 259.192 57.2933 259.99 57.578 260.993L56.311 261.329C56.1057 260.578 55.7393 259.985 55.212 259.551C54.6847 259.117 53.994 258.9 53.14 258.9C52.3887 258.9 51.7633 259.07 51.264 259.411C50.7647 259.752 50.389 260.228 50.137 260.839C49.885 261.446 49.7567 262.153 49.752 262.96C49.7473 263.763 49.871 264.47 50.123 265.081C50.375 265.688 50.753 266.164 51.257 266.509C51.761 266.85 52.3887 267.02 53.14 267.02C53.994 267.02 54.6847 266.803 55.212 266.369C55.7393 265.93 56.1057 265.338 56.311 264.591L57.578 264.927C57.2933 265.926 56.773 266.724 56.017 267.321C55.2657 267.914 54.3067 268.21 53.14 268.21ZM61.9832 268.196C61.4978 268.196 61.0802 268.119 60.7302 267.965C60.3848 267.811 60.0978 267.606 59.8692 267.349C59.6405 267.092 59.4608 266.808 59.3302 266.495C59.1995 266.182 59.1062 265.863 59.0502 265.536C58.9988 265.209 58.9732 264.904 58.9732 264.619V260.44H60.2332V264.227C60.2332 264.582 60.2658 264.925 60.3312 265.256C60.3965 265.587 60.5062 265.886 60.6602 266.152C60.8188 266.418 61.0288 266.628 61.2902 266.782C61.5562 266.936 61.8875 267.013 62.2842 267.013C62.5968 267.013 62.8815 266.959 63.1382 266.852C63.3948 266.745 63.6142 266.586 63.7962 266.376C63.9782 266.161 64.1182 265.891 64.2162 265.564C64.3142 265.237 64.3632 264.857 64.3632 264.423L65.1822 264.675C65.1822 265.403 65.0492 266.031 64.7832 266.558C64.5218 267.085 64.1508 267.491 63.6702 267.776C63.1942 268.056 62.6318 268.196 61.9832 268.196ZM64.5032 268V265.977H64.3632V260.44H65.6162V268H64.5032ZM70.7961 268.21C70.0447 268.21 69.3961 268.04 68.8501 267.699C68.3087 267.358 67.8911 266.887 67.5971 266.285C67.3031 265.683 67.1561 264.992 67.1561 264.213C67.1561 263.42 67.3054 262.724 67.6041 262.127C67.9027 261.53 68.3251 261.065 68.8711 260.734C69.4171 260.398 70.0587 260.23 70.7961 260.23C71.5521 260.23 72.2031 260.4 72.7491 260.741C73.2951 261.077 73.7127 261.546 74.0021 262.148C74.2961 262.745 74.4431 263.434 74.4431 264.213C74.4431 265.002 74.2961 265.697 74.0021 266.299C73.7081 266.896 73.2881 267.365 72.7421 267.706C72.1961 268.042 71.5474 268.21 70.7961 268.21ZM70.7961 267.027C71.5801 267.027 72.1634 266.766 72.5461 266.243C72.9287 265.72 73.1201 265.044 73.1201 264.213C73.1201 263.359 72.9264 262.68 72.5391 262.176C72.1517 261.667 71.5707 261.413 70.7961 261.413C70.2687 261.413 69.8347 261.532 69.4941 261.77C69.1534 262.008 68.8991 262.337 68.7311 262.757C68.5631 263.177 68.4791 263.662 68.4791 264.213C68.4791 265.062 68.6751 265.744 69.0671 266.257C69.4591 266.77 70.0354 267.027 70.7961 267.027ZM80.2053 268C79.7573 268.089 79.3139 268.124 78.8753 268.105C78.4413 268.091 78.0539 268.005 77.7133 267.846C77.3726 267.683 77.1136 267.431 76.9363 267.09C76.7869 266.791 76.7053 266.49 76.6913 266.187C76.6819 265.879 76.6773 265.531 76.6773 265.144V258.34H77.9233V265.088C77.9233 265.396 77.9256 265.66 77.9303 265.879C77.9396 266.098 77.9886 266.287 78.0773 266.446C78.2453 266.745 78.5113 266.92 78.8753 266.971C79.2439 267.022 79.6873 267.008 80.2053 266.929V268ZM75.1443 261.469V260.44H80.2053V261.469H75.1443ZM83.8891 268.21C83.3245 268.21 82.8508 268.107 82.4681 267.902C82.0901 267.692 81.8031 267.417 81.6071 267.076C81.4158 266.735 81.3201 266.362 81.3201 265.956C81.3201 265.559 81.3948 265.216 81.5441 264.927C81.6981 264.633 81.9128 264.39 82.1881 264.199C82.4635 264.003 82.7925 263.849 83.1751 263.737C83.5345 263.639 83.9358 263.555 84.3791 263.485C84.8271 263.41 85.2798 263.343 85.7371 263.282C86.1945 263.221 86.6215 263.163 87.0181 263.107L86.5701 263.366C86.5841 262.694 86.4488 262.197 86.1641 261.875C85.8841 261.553 85.3988 261.392 84.7081 261.392C84.2508 261.392 83.8495 261.497 83.5041 261.707C83.1635 261.912 82.9231 262.248 82.7831 262.715L81.6001 262.358C81.7821 261.695 82.1345 261.175 82.6571 260.797C83.1798 260.419 83.8681 260.23 84.7221 260.23C85.4081 260.23 85.9961 260.354 86.4861 260.601C86.9808 260.844 87.3355 261.212 87.5501 261.707C87.6575 261.94 87.7251 262.195 87.7531 262.47C87.7811 262.741 87.7951 263.025 87.7951 263.324V268H86.6891V266.187L86.9481 266.355C86.6635 266.966 86.2645 267.428 85.7511 267.741C85.2425 268.054 84.6218 268.21 83.8891 268.21ZM84.0781 267.167C84.5261 267.167 84.9135 267.088 85.2401 266.929C85.5715 266.766 85.8375 266.553 86.0381 266.292C86.2388 266.026 86.3695 265.737 86.4301 265.424C86.5001 265.191 86.5375 264.932 86.5421 264.647C86.5515 264.358 86.5561 264.136 86.5561 263.982L86.9901 264.171C86.5841 264.227 86.1851 264.281 85.7931 264.332C85.4011 264.383 85.0301 264.439 84.6801 264.5C84.3301 264.556 84.0151 264.624 83.7351 264.703C83.5298 264.768 83.3361 264.852 83.1541 264.955C82.9768 265.058 82.8321 265.191 82.7201 265.354C82.6128 265.513 82.5591 265.711 82.5591 265.949C82.5591 266.154 82.6105 266.35 82.7131 266.537C82.8205 266.724 82.9838 266.875 83.2031 266.992C83.4271 267.109 83.7188 267.167 84.0781 267.167ZM92.4711 268.203C91.5705 268.203 90.8308 268.007 90.2521 267.615C89.6781 267.218 89.3258 266.665 89.1951 265.956L90.4691 265.753C90.5718 266.164 90.8075 266.49 91.1761 266.733C91.5448 266.971 92.0021 267.09 92.5481 267.09C93.0661 267.09 93.4721 266.983 93.7661 266.768C94.0601 266.553 94.2071 266.262 94.2071 265.893C94.2071 265.678 94.1581 265.506 94.0601 265.375C93.9621 265.24 93.7591 265.114 93.4511 264.997C93.1478 264.88 92.6881 264.74 92.0721 264.577C91.4048 264.4 90.8798 264.215 90.4971 264.024C90.1145 263.833 89.8415 263.611 89.6781 263.359C89.5148 263.107 89.4331 262.801 89.4331 262.442C89.4331 261.999 89.5545 261.611 89.7971 261.28C90.0398 260.944 90.3781 260.685 90.8121 260.503C91.2508 260.321 91.7595 260.23 92.3381 260.23C92.9121 260.23 93.4255 260.321 93.8781 260.503C94.3308 260.685 94.6948 260.944 94.9701 261.28C95.2501 261.611 95.4158 261.999 95.4671 262.442L94.1931 262.673C94.1325 262.267 93.9365 261.947 93.6051 261.714C93.2785 261.481 92.8561 261.357 92.3381 261.343C91.8481 261.324 91.4491 261.411 91.1411 261.602C90.8378 261.793 90.6861 262.052 90.6861 262.379C90.6861 262.561 90.7421 262.717 90.8541 262.848C90.9708 262.979 91.1831 263.102 91.4911 263.219C91.8038 263.336 92.2565 263.469 92.8491 263.618C93.5165 263.786 94.0415 263.97 94.4241 264.171C94.8115 264.367 95.0868 264.6 95.2501 264.871C95.4135 265.137 95.4951 265.466 95.4951 265.858C95.4951 266.586 95.2268 267.16 94.6901 267.58C94.1535 267.995 93.4138 268.203 92.4711 268.203Z" fill="#2A1846"/>
<path d="M285.267 268.189C284.763 268.189 284.287 268.091 283.839 267.895C283.391 267.699 283.001 267.421 282.67 267.062C282.343 266.703 282.107 266.278 281.963 265.788L283.594 265.347C283.71 265.748 283.923 266.059 284.231 266.278C284.543 266.493 284.886 266.598 285.26 266.593C285.591 266.593 285.887 266.516 286.149 266.362C286.41 266.208 286.615 266 286.765 265.739C286.914 265.473 286.989 265.177 286.989 264.85C286.989 264.351 286.828 263.933 286.506 263.597C286.184 263.261 285.768 263.093 285.26 263.093C285.106 263.093 284.954 263.114 284.805 263.156C284.66 263.198 284.52 263.256 284.385 263.331L283.615 262.001L287.003 259.103L287.15 259.509H282.355V257.92H288.536V259.516L285.813 262.134L285.799 261.637C286.41 261.679 286.93 261.849 287.36 262.148C287.794 262.447 288.125 262.832 288.354 263.303C288.587 263.774 288.704 264.29 288.704 264.85C288.704 265.485 288.547 266.054 288.235 266.558C287.927 267.062 287.511 267.461 286.989 267.755C286.471 268.044 285.897 268.189 285.267 268.189ZM296.351 268.21C295.656 268.21 295.049 268.035 294.531 267.685C294.013 267.335 293.612 266.859 293.327 266.257C293.043 265.655 292.9 264.976 292.9 264.22C292.9 263.455 293.043 262.773 293.327 262.176C293.617 261.574 294.025 261.1 294.552 260.755C295.08 260.405 295.7 260.23 296.414 260.23C297.133 260.23 297.735 260.405 298.22 260.755C298.71 261.1 299.081 261.574 299.333 262.176C299.585 262.778 299.711 263.459 299.711 264.22C299.711 264.971 299.585 265.65 299.333 266.257C299.081 266.859 298.706 267.335 298.206 267.685C297.707 268.035 297.089 268.21 296.351 268.21ZM296.61 266.698C297.063 266.698 297.427 266.595 297.702 266.39C297.982 266.18 298.185 265.888 298.311 265.515C298.442 265.142 298.507 264.71 298.507 264.22C298.507 263.725 298.442 263.294 298.311 262.925C298.185 262.552 297.987 262.262 297.716 262.057C297.446 261.847 297.096 261.742 296.666 261.742C296.214 261.742 295.84 261.854 295.546 262.078C295.252 262.297 295.035 262.596 294.895 262.974C294.755 263.347 294.685 263.763 294.685 264.22C294.685 264.682 294.753 265.102 294.888 265.48C295.028 265.853 295.241 266.15 295.525 266.369C295.81 266.588 296.172 266.698 296.61 266.698ZM298.507 268V262.694H298.297V257.92H299.998V268H298.507ZM305.398 268.21C304.633 268.21 303.961 268.044 303.382 267.713C302.803 267.382 302.351 266.922 302.024 266.334C301.702 265.746 301.541 265.069 301.541 264.304C301.541 263.478 301.7 262.762 302.017 262.155C302.334 261.544 302.775 261.07 303.34 260.734C303.905 260.398 304.558 260.23 305.3 260.23C306.084 260.23 306.749 260.414 307.295 260.783C307.846 261.147 308.254 261.663 308.52 262.33C308.786 262.997 308.886 263.784 308.821 264.689H307.148V264.073C307.143 263.252 306.999 262.652 306.714 262.274C306.429 261.896 305.981 261.707 305.37 261.707C304.679 261.707 304.166 261.922 303.83 262.351C303.494 262.776 303.326 263.399 303.326 264.22C303.326 264.985 303.494 265.578 303.83 265.998C304.166 266.418 304.656 266.628 305.3 266.628C305.715 266.628 306.072 266.537 306.371 266.355C306.674 266.168 306.908 265.9 307.071 265.55L308.737 266.054C308.448 266.735 308 267.265 307.393 267.643C306.791 268.021 306.126 268.21 305.398 268.21ZM302.794 264.689V263.415H307.995V264.689H302.794ZM315.824 269.393V267.734H317.511V269.393H315.824ZM315.824 258.193V256.534H317.511V258.193H315.824ZM316.706 268.21C315.997 268.21 315.362 268.079 314.802 267.818C314.242 267.557 313.783 267.188 313.423 266.712C313.069 266.236 312.842 265.671 312.744 265.018L314.41 264.752C314.541 265.326 314.821 265.783 315.25 266.124C315.684 266.46 316.202 266.628 316.804 266.628C317.383 266.628 317.859 266.493 318.232 266.222C318.606 265.947 318.792 265.599 318.792 265.179C318.792 264.885 318.704 264.647 318.526 264.465C318.349 264.278 318.064 264.124 317.672 264.003L315.243 263.247C313.829 262.808 313.122 261.95 313.122 260.671C313.122 260.074 313.265 259.553 313.549 259.11C313.839 258.662 314.245 258.319 314.767 258.081C315.29 257.838 315.906 257.719 316.615 257.724C317.273 257.729 317.859 257.848 318.372 258.081C318.89 258.314 319.32 258.65 319.66 259.089C320.006 259.528 320.251 260.055 320.395 260.671L318.666 260.986C318.601 260.655 318.473 260.363 318.281 260.111C318.09 259.859 317.85 259.663 317.56 259.523C317.271 259.383 316.949 259.308 316.594 259.299C316.254 259.294 315.948 259.348 315.677 259.46C315.407 259.567 315.192 259.721 315.033 259.922C314.875 260.118 314.795 260.34 314.795 260.587C314.795 260.862 314.905 261.098 315.124 261.294C315.348 261.49 315.701 261.658 316.181 261.798L317.994 262.323C318.867 262.575 319.495 262.918 319.877 263.352C320.265 263.781 320.458 264.353 320.458 265.067C320.458 265.692 320.302 266.241 319.989 266.712C319.677 267.183 319.238 267.552 318.673 267.818C318.109 268.079 317.453 268.21 316.706 268.21ZM321.696 267.986V266.516L326.008 262.673C326.344 262.374 326.578 262.092 326.708 261.826C326.839 261.56 326.904 261.303 326.904 261.056C326.904 260.72 326.832 260.421 326.687 260.16C326.543 259.894 326.342 259.684 326.085 259.53C325.833 259.376 325.542 259.299 325.21 259.299C324.86 259.299 324.55 259.381 324.279 259.544C324.013 259.703 323.806 259.915 323.656 260.181C323.507 260.447 323.437 260.734 323.446 261.042H321.71C321.71 260.37 321.86 259.784 322.158 259.285C322.462 258.786 322.877 258.398 323.404 258.123C323.936 257.848 324.55 257.71 325.245 257.71C325.889 257.71 326.468 257.855 326.981 258.144C327.495 258.429 327.898 258.825 328.192 259.334C328.486 259.838 328.633 260.419 328.633 261.077C328.633 261.558 328.568 261.961 328.437 262.288C328.307 262.615 328.111 262.916 327.849 263.191C327.593 263.466 327.273 263.772 326.89 264.108L323.831 266.817L323.677 266.397H328.633V267.986H321.696ZM330.596 268V266.271H332.325V268H330.596ZM338.054 268.21C337.396 268.21 336.804 268.056 336.276 267.748C335.754 267.435 335.338 267.004 335.03 266.453C334.722 265.902 334.568 265.27 334.568 264.556V261.49C334.568 260.725 334.72 260.06 335.023 259.495C335.331 258.93 335.761 258.494 336.311 258.186C336.867 257.878 337.511 257.724 338.243 257.724C338.752 257.724 339.235 257.81 339.692 257.983C340.15 258.151 340.556 258.422 340.91 258.795L339.692 259.978C339.515 259.768 339.298 259.602 339.041 259.481C338.789 259.36 338.523 259.299 338.243 259.299C337.851 259.299 337.508 259.392 337.214 259.579C336.92 259.761 336.692 260.001 336.528 260.3C336.37 260.599 336.29 260.918 336.29 261.259V262.932L335.982 262.596C336.272 262.26 336.619 261.999 337.025 261.812C337.431 261.621 337.856 261.525 338.299 261.525C338.934 261.525 339.494 261.67 339.979 261.959C340.465 262.244 340.847 262.636 341.127 263.135C341.407 263.63 341.547 264.194 341.547 264.829C341.547 265.459 341.386 266.031 341.064 266.544C340.747 267.053 340.325 267.459 339.797 267.762C339.27 268.061 338.689 268.21 338.054 268.21ZM338.054 266.593C338.381 266.593 338.68 266.516 338.95 266.362C339.221 266.203 339.436 265.991 339.594 265.725C339.758 265.454 339.839 265.156 339.839 264.829C339.839 264.502 339.76 264.204 339.601 263.933C339.443 263.662 339.228 263.448 338.957 263.289C338.691 263.126 338.395 263.044 338.068 263.044C337.742 263.044 337.443 263.126 337.172 263.289C336.902 263.448 336.687 263.662 336.528 263.933C336.37 264.204 336.29 264.502 336.29 264.829C336.29 265.146 336.367 265.44 336.521 265.711C336.68 265.977 336.892 266.192 337.158 266.355C337.429 266.514 337.728 266.593 338.054 266.593ZM347.45 268V266.334H342.984V264.759L346.211 257.92H348.136L344.909 264.759H347.45V262.134H349.158V264.759H350.103V266.334H349.158V268H347.45ZM355.407 268.21C354.693 268.21 354.063 268.058 353.517 267.755C352.971 267.447 352.544 267.02 352.236 266.474C351.933 265.928 351.781 265.298 351.781 264.584V261.336C351.781 260.622 351.933 259.992 352.236 259.446C352.544 258.9 352.971 258.475 353.517 258.172C354.063 257.864 354.693 257.71 355.407 257.71C356.121 257.71 356.749 257.864 357.29 258.172C357.836 258.475 358.263 258.9 358.571 259.446C358.879 259.992 359.033 260.622 359.033 261.336V264.584C359.033 265.298 358.879 265.928 358.571 266.474C358.263 267.02 357.836 267.447 357.29 267.755C356.749 268.058 356.121 268.21 355.407 268.21ZM355.407 266.607C355.762 266.607 356.084 266.523 356.373 266.355C356.662 266.182 356.891 265.954 357.059 265.669C357.227 265.38 357.311 265.058 357.311 264.703V261.21C357.311 260.851 357.227 260.529 357.059 260.244C356.891 259.955 356.662 259.726 356.373 259.558C356.084 259.385 355.762 259.299 355.407 259.299C355.052 259.299 354.73 259.385 354.441 259.558C354.152 259.726 353.923 259.955 353.755 260.244C353.587 260.529 353.503 260.851 353.503 261.21V264.703C353.503 265.058 353.587 265.38 353.755 265.669C353.923 265.954 354.152 266.182 354.441 266.355C354.73 266.523 355.052 266.607 355.407 266.607Z" fill="#2A1846"/>
</g>
<g clip-path="url(#clip5)">
<path d="M51.593 294V285.103H48.156V283.92H56.276V285.103H52.839V294H51.593ZM59.4894 294.21C58.7381 294.21 58.0894 294.04 57.5434 293.699C57.0021 293.358 56.5844 292.887 56.2904 292.285C55.9964 291.683 55.8494 290.992 55.8494 290.213C55.8494 289.42 55.9988 288.724 56.2974 288.127C56.5961 287.53 57.0184 287.065 57.5644 286.734C58.1104 286.398 58.7521 286.23 59.4894 286.23C60.2454 286.23 60.8964 286.4 61.4424 286.741C61.9884 287.077 62.4061 287.546 62.6954 288.148C62.9894 288.745 63.1364 289.434 63.1364 290.213C63.1364 291.002 62.9894 291.697 62.6954 292.299C62.4014 292.896 61.9814 293.365 61.4354 293.706C60.8894 294.042 60.2408 294.21 59.4894 294.21ZM59.4894 293.027C60.2734 293.027 60.8568 292.766 61.2394 292.243C61.6221 291.72 61.8134 291.044 61.8134 290.213C61.8134 289.359 61.6198 288.68 61.2324 288.176C60.8451 287.667 60.2641 287.413 59.4894 287.413C58.9621 287.413 58.5281 287.532 58.1874 287.77C57.8468 288.008 57.5924 288.337 57.4244 288.757C57.2564 289.177 57.1724 289.662 57.1724 290.213C57.1724 291.062 57.3684 291.744 57.7604 292.257C58.1524 292.77 58.7288 293.027 59.4894 293.027ZM68.8986 294C68.4506 294.089 68.0073 294.124 67.5686 294.105C67.1346 294.091 66.7473 294.005 66.4066 293.846C66.066 293.683 65.807 293.431 65.6296 293.09C65.4803 292.791 65.3986 292.49 65.3846 292.187C65.3753 291.879 65.3706 291.531 65.3706 291.144V284.34H66.6166V291.088C66.6166 291.396 66.619 291.66 66.6236 291.879C66.633 292.098 66.682 292.287 66.7706 292.446C66.9386 292.745 67.2046 292.92 67.5686 292.971C67.9373 293.022 68.3806 293.008 68.8986 292.929V294ZM63.8376 287.469V286.44H68.8986V287.469H63.8376ZM72.5825 294.21C72.0178 294.21 71.5442 294.107 71.1615 293.902C70.7835 293.692 70.4965 293.417 70.3005 293.076C70.1092 292.735 70.0135 292.362 70.0135 291.956C70.0135 291.559 70.0882 291.216 70.2375 290.927C70.3915 290.633 70.6062 290.39 70.8815 290.199C71.1568 290.003 71.4858 289.849 71.8685 289.737C72.2278 289.639 72.6292 289.555 73.0725 289.485C73.5205 289.41 73.9732 289.343 74.4305 289.282C74.8878 289.221 75.3148 289.163 75.7115 289.107L75.2635 289.366C75.2775 288.694 75.1422 288.197 74.8575 287.875C74.5775 287.553 74.0922 287.392 73.4015 287.392C72.9442 287.392 72.5428 287.497 72.1975 287.707C71.8568 287.912 71.6165 288.248 71.4765 288.715L70.2935 288.358C70.4755 287.695 70.8278 287.175 71.3505 286.797C71.8732 286.419 72.5615 286.23 73.4155 286.23C74.1015 286.23 74.6895 286.354 75.1795 286.601C75.6742 286.844 76.0288 287.212 76.2435 287.707C76.3508 287.94 76.4185 288.195 76.4465 288.47C76.4745 288.741 76.4885 289.025 76.4885 289.324V294H75.3825V292.187L75.6415 292.355C75.3568 292.966 74.9578 293.428 74.4445 293.741C73.9358 294.054 73.3152 294.21 72.5825 294.21ZM72.7715 293.167C73.2195 293.167 73.6068 293.088 73.9335 292.929C74.2648 292.766 74.5308 292.553 74.7315 292.292C74.9322 292.026 75.0628 291.737 75.1235 291.424C75.1935 291.191 75.2308 290.932 75.2355 290.647C75.2448 290.358 75.2495 290.136 75.2495 289.982L75.6835 290.171C75.2775 290.227 74.8785 290.281 74.4865 290.332C74.0945 290.383 73.7235 290.439 73.3735 290.5C73.0235 290.556 72.7085 290.624 72.4285 290.703C72.2232 290.768 72.0295 290.852 71.8475 290.955C71.6702 291.058 71.5255 291.191 71.4135 291.354C71.3062 291.513 71.2525 291.711 71.2525 291.949C71.2525 292.154 71.3038 292.35 71.4065 292.537C71.5138 292.724 71.6772 292.875 71.8965 292.992C72.1205 293.109 72.4122 293.167 72.7715 293.167ZM78.4485 294V283.71H79.6945V294H78.4485ZM86.7466 294.21C86.1819 294.21 85.7082 294.107 85.3256 293.902C84.9476 293.692 84.6606 293.417 84.4646 293.076C84.2732 292.735 84.1776 292.362 84.1776 291.956C84.1776 291.559 84.2522 291.216 84.4016 290.927C84.5556 290.633 84.7702 290.39 85.0456 290.199C85.3209 290.003 85.6499 289.849 86.0326 289.737C86.3919 289.639 86.7932 289.555 87.2366 289.485C87.6846 289.41 88.1372 289.343 88.5946 289.282C89.0519 289.221 89.4789 289.163 89.8756 289.107L89.4276 289.366C89.4416 288.694 89.3062 288.197 89.0216 287.875C88.7416 287.553 88.2562 287.392 87.5656 287.392C87.1082 287.392 86.7069 287.497 86.3616 287.707C86.0209 287.912 85.7806 288.248 85.6406 288.715L84.4576 288.358C84.6396 287.695 84.9919 287.175 85.5146 286.797C86.0372 286.419 86.7256 286.23 87.5796 286.23C88.2656 286.23 88.8536 286.354 89.3436 286.601C89.8382 286.844 90.1929 287.212 90.4076 287.707C90.5149 287.94 90.5826 288.195 90.6106 288.47C90.6386 288.741 90.6526 289.025 90.6526 289.324V294H89.5466V292.187L89.8056 292.355C89.5209 292.966 89.1219 293.428 88.6086 293.741C88.0999 294.054 87.4792 294.21 86.7466 294.21ZM86.9356 293.167C87.3836 293.167 87.7709 293.088 88.0976 292.929C88.4289 292.766 88.6949 292.553 88.8956 292.292C89.0962 292.026 89.2269 291.737 89.2876 291.424C89.3576 291.191 89.3949 290.932 89.3996 290.647C89.4089 290.358 89.4136 290.136 89.4136 289.982L89.8476 290.171C89.4416 290.227 89.0426 290.281 88.6506 290.332C88.2586 290.383 87.8876 290.439 87.5376 290.5C87.1876 290.556 86.8726 290.624 86.5926 290.703C86.3872 290.768 86.1936 290.852 86.0116 290.955C85.8342 291.058 85.6896 291.191 85.5776 291.354C85.4702 291.513 85.4166 291.711 85.4166 291.949C85.4166 292.154 85.4679 292.35 85.5706 292.537C85.6779 292.724 85.8412 292.875 86.0606 292.992C86.2846 293.109 86.5762 293.167 86.9356 293.167ZM98.2433 294.21C97.5386 294.21 96.9343 294.035 96.4303 293.685C95.9263 293.33 95.5366 292.852 95.2613 292.25C94.9906 291.648 94.8553 290.969 94.8553 290.213C94.8553 289.457 94.9906 288.778 95.2613 288.176C95.5366 287.574 95.9263 287.1 96.4303 286.755C96.9343 286.405 97.5363 286.23 98.2363 286.23C98.9503 286.23 99.55 286.403 100.035 286.748C100.521 287.093 100.887 287.567 101.134 288.169C101.386 288.771 101.512 289.452 101.512 290.213C101.512 290.964 101.386 291.643 101.134 292.25C100.887 292.852 100.521 293.33 100.035 293.685C99.55 294.035 98.9526 294.21 98.2433 294.21ZM98.3973 293.069C98.906 293.069 99.3236 292.948 99.6503 292.705C99.977 292.458 100.217 292.119 100.371 291.69C100.53 291.256 100.609 290.764 100.609 290.213C100.609 289.653 100.53 289.161 100.371 288.736C100.217 288.307 99.9793 287.973 99.6573 287.735C99.3353 287.492 98.927 287.371 98.4323 287.371C97.919 287.371 97.4943 287.497 97.1583 287.749C96.827 288.001 96.5796 288.342 96.4163 288.771C96.2576 289.2 96.1783 289.681 96.1783 290.213C96.1783 290.75 96.26 291.235 96.4233 291.669C96.5866 292.098 96.8316 292.439 97.1583 292.691C97.4896 292.943 97.9026 293.069 98.3973 293.069ZM100.609 294V288.435H100.469V283.92H101.722V294H100.609ZM106.959 294.21C106.217 294.21 105.569 294.047 105.013 293.72C104.463 293.389 104.033 292.929 103.725 292.341C103.417 291.748 103.263 291.058 103.263 290.269C103.263 289.443 103.415 288.729 103.718 288.127C104.022 287.52 104.444 287.054 104.985 286.727C105.531 286.396 106.171 286.23 106.903 286.23C107.664 286.23 108.31 286.405 108.842 286.755C109.379 287.105 109.78 287.604 110.046 288.253C110.317 288.902 110.434 289.674 110.396 290.57H109.136V290.122C109.122 289.193 108.933 288.5 108.569 288.043C108.205 287.581 107.664 287.35 106.945 287.35C106.175 287.35 105.59 287.597 105.188 288.092C104.787 288.587 104.586 289.296 104.586 290.22C104.586 291.111 104.787 291.802 105.188 292.292C105.59 292.782 106.161 293.027 106.903 293.027C107.403 293.027 107.837 292.913 108.205 292.684C108.574 292.455 108.863 292.126 109.073 291.697L110.27 292.11C109.976 292.777 109.533 293.295 108.94 293.664C108.352 294.028 107.692 294.21 106.959 294.21ZM104.166 290.57V289.569H109.752V290.57H104.166ZM113.726 294L110.982 286.44H112.242L114.363 292.411L116.477 286.44H117.744L115 294H113.726ZM121.956 294.21C121.205 294.21 120.556 294.04 120.01 293.699C119.469 293.358 119.051 292.887 118.757 292.285C118.463 291.683 118.316 290.992 118.316 290.213C118.316 289.42 118.466 288.724 118.764 288.127C119.063 287.53 119.485 287.065 120.031 286.734C120.577 286.398 121.219 286.23 121.956 286.23C122.712 286.23 123.363 286.4 123.909 286.741C124.455 287.077 124.873 287.546 125.162 288.148C125.456 288.745 125.603 289.434 125.603 290.213C125.603 291.002 125.456 291.697 125.162 292.299C124.868 292.896 124.448 293.365 123.902 293.706C123.356 294.042 122.708 294.21 121.956 294.21ZM121.956 293.027C122.74 293.027 123.324 292.766 123.706 292.243C124.089 291.72 124.28 291.044 124.28 290.213C124.28 289.359 124.087 288.68 123.699 288.176C123.312 287.667 122.731 287.413 121.956 287.413C121.429 287.413 120.995 287.532 120.654 287.77C120.314 288.008 120.059 288.337 119.891 288.757C119.723 289.177 119.639 289.662 119.639 290.213C119.639 291.062 119.835 291.744 120.227 292.257C120.619 292.77 121.196 293.027 121.956 293.027ZM127.284 294V283.71H128.53V294H127.284ZM132.675 294L129.931 286.44H131.191L133.312 292.411L135.426 286.44H136.693L133.949 294H132.675ZM140.961 294.21C140.219 294.21 139.571 294.047 139.015 293.72C138.465 293.389 138.035 292.929 137.727 292.341C137.419 291.748 137.265 291.058 137.265 290.269C137.265 289.443 137.417 288.729 137.72 288.127C138.024 287.52 138.446 287.054 138.987 286.727C139.533 286.396 140.173 286.23 140.905 286.23C141.666 286.23 142.312 286.405 142.844 286.755C143.381 287.105 143.782 287.604 144.048 288.253C144.319 288.902 144.436 289.674 144.398 290.57H143.138V290.122C143.124 289.193 142.935 288.5 142.571 288.043C142.207 287.581 141.666 287.35 140.947 287.35C140.177 287.35 139.592 287.597 139.19 288.092C138.789 288.587 138.588 289.296 138.588 290.22C138.588 291.111 138.789 291.802 139.19 292.292C139.592 292.782 140.163 293.027 140.905 293.027C141.405 293.027 141.839 292.913 142.207 292.684C142.576 292.455 142.865 292.126 143.075 291.697L144.272 292.11C143.978 292.777 143.535 293.295 142.942 293.664C142.354 294.028 141.694 294.21 140.961 294.21ZM138.168 290.57V289.569H143.754V290.57H138.168ZM145.957 294V286.44H147.07V288.267L146.888 288.029C146.977 287.796 147.091 287.581 147.231 287.385C147.376 287.189 147.537 287.028 147.714 286.902C147.91 286.743 148.132 286.622 148.379 286.538C148.626 286.454 148.878 286.405 149.135 286.391C149.392 286.372 149.632 286.389 149.856 286.44V287.609C149.595 287.539 149.308 287.52 148.995 287.553C148.682 287.586 148.393 287.7 148.127 287.896C147.884 288.069 147.695 288.279 147.56 288.526C147.429 288.773 147.338 289.042 147.287 289.331C147.236 289.616 147.21 289.907 147.21 290.206V294H145.957ZM152.132 288.666L151.215 288.001L152.3 286.636L150.62 286.146L150.97 285.068L152.608 285.677L152.545 283.92H153.679L153.616 285.677L155.254 285.068L155.604 286.146L153.924 286.636L155.002 288.001L154.085 288.666L153.112 287.224L152.132 288.666Z" fill="#2A1846"/>
<path d="M317.11 295.393V293.734H318.797V295.393H317.11ZM317.11 284.193V282.534H318.797V284.193H317.11ZM317.992 294.21C317.282 294.21 316.648 294.079 316.088 293.818C315.528 293.557 315.068 293.188 314.709 292.712C314.354 292.236 314.128 291.671 314.03 291.018L315.696 290.752C315.826 291.326 316.106 291.783 316.536 292.124C316.97 292.46 317.488 292.628 318.09 292.628C318.668 292.628 319.144 292.493 319.518 292.222C319.891 291.947 320.078 291.599 320.078 291.179C320.078 290.885 319.989 290.647 319.812 290.465C319.634 290.278 319.35 290.124 318.958 290.003L316.529 289.247C315.115 288.808 314.408 287.95 314.408 286.671C314.408 286.074 314.55 285.553 314.835 285.11C315.124 284.662 315.53 284.319 316.053 284.081C316.575 283.838 317.191 283.719 317.901 283.724C318.559 283.729 319.144 283.848 319.658 284.081C320.176 284.314 320.605 284.65 320.946 285.089C321.291 285.528 321.536 286.055 321.681 286.671L319.952 286.986C319.886 286.655 319.758 286.363 319.567 286.111C319.375 285.859 319.135 285.663 318.846 285.523C318.556 285.383 318.234 285.308 317.88 285.299C317.539 285.294 317.233 285.348 316.963 285.46C316.692 285.567 316.477 285.721 316.319 285.922C316.16 286.118 316.081 286.34 316.081 286.587C316.081 286.862 316.19 287.098 316.41 287.294C316.634 287.49 316.986 287.658 317.467 287.798L319.28 288.323C320.152 288.575 320.78 288.918 321.163 289.352C321.55 289.781 321.744 290.353 321.744 291.067C321.744 291.692 321.587 292.241 321.275 292.712C320.962 293.183 320.523 293.552 319.959 293.818C319.394 294.079 318.738 294.21 317.992 294.21ZM323.773 294L327.245 285.516H322.842V283.92H329.051V285.516L325.593 294H323.773ZM330.774 294V292.271H332.503V294H330.774ZM338.001 283.724C338.659 283.724 339.249 283.88 339.772 284.193C340.299 284.501 340.717 284.93 341.025 285.481C341.333 286.032 341.487 286.664 341.487 287.378V290.444C341.487 291.209 341.333 291.874 341.025 292.439C340.722 293.004 340.292 293.44 339.737 293.748C339.186 294.056 338.545 294.21 337.812 294.21C337.303 294.21 336.82 294.126 336.363 293.958C335.906 293.785 335.5 293.512 335.145 293.139L336.363 291.956C336.54 292.166 336.755 292.332 337.007 292.453C337.264 292.574 337.532 292.635 337.812 292.635C338.204 292.635 338.547 292.544 338.841 292.362C339.135 292.175 339.361 291.933 339.52 291.634C339.683 291.335 339.765 291.016 339.765 290.675V289.002L340.073 289.338C339.784 289.674 339.436 289.938 339.03 290.129C338.624 290.316 338.199 290.409 337.756 290.409C337.121 290.409 336.561 290.267 336.076 289.982C335.591 289.693 335.208 289.301 334.928 288.806C334.648 288.307 334.508 287.74 334.508 287.105C334.508 286.475 334.667 285.906 334.984 285.397C335.306 284.884 335.731 284.478 336.258 284.179C336.785 283.876 337.366 283.724 338.001 283.724ZM338.001 285.341C337.674 285.341 337.376 285.42 337.105 285.579C336.834 285.733 336.617 285.945 336.454 286.216C336.295 286.482 336.216 286.778 336.216 287.105C336.216 287.432 336.295 287.73 336.454 288.001C336.613 288.272 336.825 288.489 337.091 288.652C337.362 288.811 337.66 288.89 337.987 288.89C338.314 288.89 338.612 288.811 338.883 288.652C339.154 288.489 339.368 288.272 339.527 288.001C339.686 287.73 339.765 287.432 339.765 287.105C339.765 286.788 339.686 286.496 339.527 286.23C339.373 285.959 339.161 285.745 338.89 285.586C338.624 285.423 338.328 285.341 338.001 285.341ZM343.161 293.986V292.516L347.473 288.673C347.809 288.374 348.043 288.092 348.173 287.826C348.304 287.56 348.369 287.303 348.369 287.056C348.369 286.72 348.297 286.421 348.152 286.16C348.008 285.894 347.807 285.684 347.55 285.53C347.298 285.376 347.007 285.299 346.675 285.299C346.325 285.299 346.015 285.381 345.744 285.544C345.478 285.703 345.271 285.915 345.121 286.181C344.972 286.447 344.902 286.734 344.911 287.042H343.175C343.175 286.37 343.325 285.784 343.623 285.285C343.927 284.786 344.342 284.398 344.869 284.123C345.401 283.848 346.015 283.71 346.71 283.71C347.354 283.71 347.933 283.855 348.446 284.144C348.96 284.429 349.363 284.825 349.657 285.334C349.951 285.838 350.098 286.419 350.098 287.077C350.098 287.558 350.033 287.961 349.902 288.288C349.772 288.615 349.576 288.916 349.314 289.191C349.058 289.466 348.738 289.772 348.355 290.108L345.296 292.817L345.142 292.397H350.098V293.986H343.161ZM355.407 294.21C354.693 294.21 354.063 294.058 353.517 293.755C352.971 293.447 352.544 293.02 352.236 292.474C351.933 291.928 351.781 291.298 351.781 290.584V287.336C351.781 286.622 351.933 285.992 352.236 285.446C352.544 284.9 352.971 284.475 353.517 284.172C354.063 283.864 354.693 283.71 355.407 283.71C356.121 283.71 356.749 283.864 357.29 284.172C357.836 284.475 358.263 284.9 358.571 285.446C358.879 285.992 359.033 286.622 359.033 287.336V290.584C359.033 291.298 358.879 291.928 358.571 292.474C358.263 293.02 357.836 293.447 357.29 293.755C356.749 294.058 356.121 294.21 355.407 294.21ZM355.407 292.607C355.762 292.607 356.084 292.523 356.373 292.355C356.662 292.182 356.891 291.954 357.059 291.669C357.227 291.38 357.311 291.058 357.311 290.703V287.21C357.311 286.851 357.227 286.529 357.059 286.244C356.891 285.955 356.662 285.726 356.373 285.558C356.084 285.385 355.762 285.299 355.407 285.299C355.052 285.299 354.73 285.385 354.441 285.558C354.152 285.726 353.923 285.955 353.755 286.244C353.587 286.529 353.503 286.851 353.503 287.21V290.703C353.503 291.058 353.587 291.38 353.755 291.669C353.923 291.954 354.152 292.182 354.441 292.355C354.73 292.523 355.052 292.607 355.407 292.607Z" fill="#2A1846"/>
</g>
</g>
<path d="M44.016 52H364.016V50H44.016V52ZM371.016 59V301H373.016V59H371.016ZM364.016 308H44.016V310H364.016V308ZM37.016 301V59H35.016V301H37.016ZM44.016 308C40.15 308 37.016 304.866 37.016 301H35.016C35.016 305.971 39.0454 310 44.016 310V308ZM371.016 301C371.016 304.866 367.882 308 364.016 308V310C368.987 310 373.016 305.971 373.016 301H371.016ZM364.016 52C367.882 52 371.016 55.134 371.016 59H373.016C373.016 54.0294 368.987 50 364.016 50V52ZM44.016 50C39.0454 50 35.016 54.0294 35.016 59H37.016C37.016 55.134 40.15 52 44.016 52V50Z" fill="#D1D1D7"/>
<defs>
<filter id="filter0_d" x="210.016" y="153" width="52" height="36" filterUnits="userSpaceOnUse" color-interpolation-filters="sRGB">
<feFlood flood-opacity="0" result="BackgroundImageFix"/>
<feColorMatrix in="SourceAlpha" type="matrix" values="0 0 0 0 0 0 0 0 0 0 0 0 0 0 0 0 0 0 127 0"/>
<feOffset dy="2"/>
<feGaussianBlur stdDeviation="3"/>
<feColorMatrix type="matrix" values="0 0 0 0 0 0 0 0 0 0 0 0 0 0 0 0 0 0 0.15 0"/>
<feBlend mode="normal" in2="BackgroundImageFix" result="effect1_dropShadow"/>
<feBlend mode="normal" in="SourceGraphic" in2="effect1_dropShadow" result="shape"/>
</filter>
<clipPath id="clip0">
<rect width="296" height="22" fill="white" transform="translate(56.016 63)"/>
</clipPath>
<clipPath id="clip1">
<rect width="312" height="24" fill="white" transform="translate(48.016 157)"/>
</clipPath>
<clipPath id="clip2">
<rect width="312" height="70" fill="white" transform="translate(48.016 227)"/>
</clipPath>
<clipPath id="clip3">
<rect width="312" height="18" fill="white" transform="translate(48.016 227)"/>
</clipPath>
<clipPath id="clip4">
<rect width="312" height="18" fill="white" transform="translate(48.016 253)"/>
</clipPath>
<clipPath id="clip5">
<rect width="312" height="18" fill="white" transform="translate(48.016 279)"/>
</clipPath>
</defs>
</svg>
