<svg width="360" height="355" viewBox="0 0 360 355" fill="none" xmlns="http://www.w3.org/2000/svg">
<path fill-rule="evenodd" clip-rule="evenodd" d="M371.611 39.7506C388.845 62.5892 384.3 95.0738 361.462 112.307L214.142 223.469C191.303 240.702 158.818 236.158 141.585 213.319C124.352 190.481 128.896 157.996 151.735 140.763L299.055 29.6009C321.894 12.3678 354.378 16.9119 371.611 39.7506Z" fill="#0FD08B"/>
<path fill-rule="evenodd" clip-rule="evenodd" d="M245.439 9.3732C268.875 25.7837 274.571 58.0863 258.161 81.523L88.7554 323.459C72.3448 346.895 40.0423 352.591 16.6056 336.181C-6.83108 319.77 -12.5269 287.468 3.88364 264.031L173.289 22.0952C189.699 -1.34152 222.002 -7.03734 245.439 9.3732Z" fill="#0FD08B"/>
<path d="M98.1822 354.053C97.5085 354.053 96.7994 353.817 96.303 353.313C95.2748 352.336 95.2748 350.72 96.303 349.744L126.689 321.062C127.717 320.086 129.419 320.086 130.447 321.062C131.475 322.038 131.475 323.654 130.447 324.63L100.061 353.313C99.5295 353.817 98.8559 354.053 98.1822 354.053Z" fill="#2A1846"/>
<path d="M345.981 192.591C345.307 192.591 344.598 192.356 344.102 191.851C343.074 190.874 343.074 189.258 344.102 188.282L374.487 159.6C375.551 158.624 377.217 158.624 378.281 159.634C379.309 160.61 379.309 162.226 378.281 163.202L347.896 191.884C347.364 192.356 346.69 192.591 345.981 192.591Z" fill="#2A1846"/>
<path d="M12.1483 59C12.1483 54.5817 15.73 51 20.1483 51H340.148C344.567 51 348.148 54.5817 348.148 59V301C348.148 305.418 344.567 309 340.148 309H20.1483C15.73 309 12.1483 305.418 12.1483 301V59Z" fill="white"/>
<g clip-path="url(#clip0)">
<path d="M61.9805 81L57.8945 68.04H60.1265L63.5465 78.894L67.0115 68.04H69.2435L65.1575 81H61.9805ZM72.5052 81.27C71.8032 81.27 71.2092 81.138 70.7232 80.874C70.2372 80.604 69.8682 80.247 69.6162 79.803C69.3702 79.359 69.2472 78.87 69.2472 78.336C69.2472 77.868 69.3252 77.448 69.4812 77.076C69.6372 76.698 69.8772 76.374 70.2012 76.104C70.5252 75.828 70.9452 75.603 71.4612 75.429C71.8512 75.303 72.3072 75.189 72.8292 75.087C73.3572 74.985 73.9272 74.892 74.5392 74.808C75.1572 74.718 75.8022 74.622 76.4742 74.52L75.7002 74.961C75.7062 74.289 75.5562 73.794 75.2502 73.476C74.9442 73.158 74.4282 72.999 73.7022 72.999C73.2642 72.999 72.8412 73.101 72.4332 73.305C72.0252 73.509 71.7402 73.86 71.5782 74.358L69.5982 73.737C69.8382 72.915 70.2942 72.255 70.9662 71.757C71.6442 71.259 72.5562 71.01 73.7022 71.01C74.5662 71.01 75.3252 71.151 75.9792 71.433C76.6392 71.715 77.1282 72.177 77.4462 72.819C77.6202 73.161 77.7252 73.512 77.7612 73.872C77.7972 74.226 77.8152 74.613 77.8152 75.033V81H75.9162V78.894L76.2312 79.236C75.7932 79.938 75.2802 80.454 74.6922 80.784C74.1102 81.108 73.3812 81.27 72.5052 81.27ZM72.9372 79.542C73.4292 79.542 73.8492 79.455 74.1972 79.281C74.5452 79.107 74.8212 78.894 75.0252 78.642C75.2352 78.39 75.3762 78.153 75.4482 77.931C75.5622 77.655 75.6252 77.34 75.6372 76.986C75.6552 76.626 75.6642 76.335 75.6642 76.113L76.3302 76.311C75.6762 76.413 75.1152 76.503 74.6472 76.581C74.1792 76.659 73.7772 76.734 73.4412 76.806C73.1052 76.872 72.8082 76.947 72.5502 77.031C72.2982 77.121 72.0852 77.226 71.9112 77.346C71.7372 77.466 71.6022 77.604 71.5062 77.76C71.4162 77.916 71.3712 78.099 71.3712 78.309C71.3712 78.549 71.4312 78.762 71.5512 78.948C71.6712 79.128 71.8452 79.272 72.0732 79.38C72.3072 79.488 72.5952 79.542 72.9372 79.542ZM86.8813 81V76.32C86.8813 76.014 86.8603 75.675 86.8183 75.303C86.7763 74.931 86.6773 74.574 86.5213 74.232C86.3713 73.884 86.1433 73.599 85.8373 73.377C85.5373 73.155 85.1293 73.044 84.6133 73.044C84.3373 73.044 84.0643 73.089 83.7943 73.179C83.5243 73.269 83.2783 73.425 83.0563 73.647C82.8403 73.863 82.6663 74.163 82.5343 74.547C82.4023 74.925 82.3363 75.411 82.3363 76.005L81.0493 75.456C81.0493 74.628 81.2083 73.878 81.5263 73.206C81.8503 72.534 82.3243 72 82.9483 71.604C83.5723 71.202 84.3403 71.001 85.2523 71.001C85.9723 71.001 86.5663 71.121 87.0343 71.361C87.5023 71.601 87.8743 71.907 88.1503 72.279C88.4263 72.651 88.6303 73.047 88.7623 73.467C88.8943 73.887 88.9783 74.286 89.0143 74.664C89.0563 75.036 89.0773 75.339 89.0773 75.573V81H86.8813ZM80.1403 81V71.28H82.0753V74.295H82.3363V81H80.1403ZM95.6867 81.27C94.7027 81.27 93.8387 81.057 93.0947 80.631C92.3507 80.205 91.7687 79.614 91.3487 78.858C90.9347 78.102 90.7277 77.232 90.7277 76.248C90.7277 75.186 90.9317 74.265 91.3397 73.485C91.7477 72.699 92.3147 72.09 93.0407 71.658C93.7667 71.226 94.6067 71.01 95.5607 71.01C96.5687 71.01 97.4237 71.247 98.1257 71.721C98.8337 72.189 99.3587 72.852 99.7007 73.71C100.043 74.568 100.172 75.579 100.088 76.743H97.9367V75.951C97.9307 74.895 97.7447 74.124 97.3787 73.638C97.0127 73.152 96.4367 72.909 95.6507 72.909C94.7627 72.909 94.1027 73.185 93.6707 73.737C93.2387 74.283 93.0227 75.084 93.0227 76.14C93.0227 77.124 93.2387 77.886 93.6707 78.426C94.1027 78.966 94.7327 79.236 95.5607 79.236C96.0947 79.236 96.5537 79.119 96.9377 78.885C97.3277 78.645 97.6277 78.3 97.8377 77.85L99.9797 78.498C99.6077 79.374 99.0317 80.055 98.2517 80.541C97.4777 81.027 96.6227 81.27 95.6867 81.27ZM92.3387 76.743V75.105H99.0257V76.743H92.3387ZM105.849 81.27C104.649 81.27 103.674 81 102.924 80.46C102.174 79.92 101.718 79.161 101.556 78.183L103.77 77.841C103.884 78.321 104.136 78.699 104.526 78.975C104.916 79.251 105.408 79.389 106.002 79.389C106.524 79.389 106.926 79.287 107.208 79.083C107.496 78.873 107.64 78.588 107.64 78.228C107.64 78.006 107.586 77.829 107.478 77.697C107.376 77.559 107.148 77.427 106.794 77.301C106.44 77.175 105.897 77.016 105.165 76.824C104.349 76.608 103.701 76.377 103.221 76.131C102.741 75.879 102.396 75.582 102.186 75.24C101.976 74.898 101.871 74.484 101.871 73.998C101.871 73.392 102.03 72.864 102.348 72.414C102.666 71.964 103.11 71.619 103.68 71.379C104.25 71.133 104.922 71.01 105.696 71.01C106.452 71.01 107.121 71.127 107.703 71.361C108.291 71.595 108.765 71.928 109.125 72.36C109.485 72.792 109.707 73.299 109.791 73.881L107.577 74.277C107.523 73.863 107.334 73.536 107.01 73.296C106.692 73.056 106.266 72.921 105.732 72.891C105.222 72.861 104.811 72.939 104.499 73.125C104.187 73.305 104.031 73.56 104.031 73.89C104.031 74.076 104.094 74.235 104.22 74.367C104.346 74.499 104.598 74.631 104.976 74.763C105.36 74.895 105.93 75.057 106.686 75.249C107.46 75.447 108.078 75.675 108.54 75.933C109.008 76.185 109.344 76.488 109.548 76.842C109.758 77.196 109.863 77.625 109.863 78.129C109.863 79.107 109.506 79.875 108.792 80.433C108.084 80.991 107.103 81.27 105.849 81.27ZM114.552 81.27C113.85 81.27 113.256 81.138 112.77 80.874C112.284 80.604 111.915 80.247 111.663 79.803C111.417 79.359 111.294 78.87 111.294 78.336C111.294 77.868 111.372 77.448 111.528 77.076C111.684 76.698 111.924 76.374 112.248 76.104C112.572 75.828 112.992 75.603 113.508 75.429C113.898 75.303 114.354 75.189 114.876 75.087C115.404 74.985 115.974 74.892 116.586 74.808C117.204 74.718 117.849 74.622 118.521 74.52L117.747 74.961C117.753 74.289 117.603 73.794 117.297 73.476C116.991 73.158 116.475 72.999 115.749 72.999C115.311 72.999 114.888 73.101 114.48 73.305C114.072 73.509 113.787 73.86 113.625 74.358L111.645 73.737C111.885 72.915 112.341 72.255 113.013 71.757C113.691 71.259 114.603 71.01 115.749 71.01C116.613 71.01 117.372 71.151 118.026 71.433C118.686 71.715 119.175 72.177 119.493 72.819C119.667 73.161 119.772 73.512 119.808 73.872C119.844 74.226 119.862 74.613 119.862 75.033V81H117.963V78.894L118.278 79.236C117.84 79.938 117.327 80.454 116.739 80.784C116.157 81.108 115.428 81.27 114.552 81.27ZM114.984 79.542C115.476 79.542 115.896 79.455 116.244 79.281C116.592 79.107 116.868 78.894 117.072 78.642C117.282 78.39 117.423 78.153 117.495 77.931C117.609 77.655 117.672 77.34 117.684 76.986C117.702 76.626 117.711 76.335 117.711 76.113L118.377 76.311C117.723 76.413 117.162 76.503 116.694 76.581C116.226 76.659 115.824 76.734 115.488 76.806C115.152 76.872 114.855 76.947 114.597 77.031C114.345 77.121 114.132 77.226 113.958 77.346C113.784 77.466 113.649 77.604 113.553 77.76C113.463 77.916 113.418 78.099 113.418 78.309C113.418 78.549 113.478 78.762 113.598 78.948C113.718 79.128 113.892 79.272 114.12 79.38C114.354 79.488 114.642 79.542 114.984 79.542ZM122.025 83.295L122.151 82.359C122.427 82.383 122.646 82.335 122.808 82.215C122.97 82.101 123.078 81.936 123.132 81.72C123.192 81.51 123.207 81.27 123.177 81H122.025V78.687H124.248V81.09C124.248 81.876 124.062 82.47 123.69 82.872C123.318 83.274 122.763 83.415 122.025 83.295ZM135.946 81.27C134.998 81.27 134.203 81.045 133.561 80.595C132.919 80.145 132.436 79.533 132.112 78.759C131.788 77.979 131.626 77.106 131.626 76.14C131.626 75.162 131.788 74.286 132.112 73.512C132.436 72.738 132.91 72.129 133.534 71.685C134.164 71.235 134.941 71.01 135.865 71.01C136.783 71.01 137.578 71.235 138.25 71.685C138.928 72.129 139.453 72.738 139.825 73.512C140.197 74.28 140.383 75.156 140.383 76.14C140.383 77.112 140.2 77.985 139.834 78.759C139.468 79.533 138.952 80.145 138.286 80.595C137.62 81.045 136.84 81.27 135.946 81.27ZM131.257 85.32V71.28H133.174V78.102H133.444V85.32H131.257ZM135.613 79.326C136.177 79.326 136.642 79.185 137.008 78.903C137.374 78.621 137.644 78.24 137.818 77.76C137.998 77.274 138.088 76.734 138.088 76.14C138.088 75.552 137.998 75.018 137.818 74.538C137.638 74.052 137.359 73.668 136.981 73.386C136.603 73.098 136.123 72.954 135.541 72.954C134.989 72.954 134.539 73.089 134.191 73.359C133.843 73.623 133.585 73.995 133.417 74.475C133.255 74.949 133.174 75.504 133.174 76.14C133.174 76.77 133.255 77.325 133.417 77.805C133.585 78.285 133.846 78.66 134.2 78.93C134.56 79.194 135.031 79.326 135.613 79.326ZM146.66 81.27C145.688 81.27 144.839 81.051 144.113 80.613C143.387 80.175 142.823 79.572 142.421 78.804C142.025 78.03 141.827 77.142 141.827 76.14C141.827 75.12 142.031 74.226 142.439 73.458C142.847 72.69 143.414 72.09 144.14 71.658C144.866 71.226 145.706 71.01 146.66 71.01C147.638 71.01 148.49 71.229 149.216 71.667C149.942 72.105 150.506 72.711 150.908 73.485C151.31 74.253 151.511 75.138 151.511 76.14C151.511 77.148 151.307 78.039 150.899 78.813C150.497 79.581 149.933 80.184 149.207 80.622C148.481 81.054 147.632 81.27 146.66 81.27ZM146.66 79.236C147.524 79.236 148.166 78.948 148.586 78.372C149.006 77.796 149.216 77.052 149.216 76.14C149.216 75.198 149.003 74.448 148.577 73.89C148.151 73.326 147.512 73.044 146.66 73.044C146.078 73.044 145.598 73.176 145.22 73.44C144.848 73.698 144.572 74.061 144.392 74.529C144.212 74.991 144.122 75.528 144.122 76.14C144.122 77.082 144.335 77.835 144.761 78.399C145.193 78.957 145.826 79.236 146.66 79.236ZM157.391 81.27C156.497 81.27 155.717 81.045 155.051 80.595C154.385 80.145 153.869 79.533 153.503 78.759C153.137 77.985 152.954 77.112 152.954 76.14C152.954 75.156 153.137 74.28 153.503 73.512C153.875 72.738 154.4 72.129 155.078 71.685C155.756 71.235 156.554 71.01 157.472 71.01C158.396 71.01 159.17 71.235 159.794 71.685C160.424 72.129 160.901 72.738 161.225 73.512C161.549 74.286 161.711 75.162 161.711 76.14C161.711 77.106 161.549 77.979 161.225 78.759C160.901 79.533 160.418 80.145 159.776 80.595C159.134 81.045 158.339 81.27 157.391 81.27ZM157.724 79.326C158.306 79.326 158.774 79.194 159.128 78.93C159.488 78.66 159.749 78.285 159.911 77.805C160.079 77.325 160.163 76.77 160.163 76.14C160.163 75.504 160.079 74.949 159.911 74.475C159.749 73.995 159.494 73.623 159.146 73.359C158.798 73.089 158.348 72.954 157.796 72.954C157.214 72.954 156.734 73.098 156.356 73.386C155.978 73.668 155.699 74.052 155.519 74.538C155.339 75.018 155.249 75.552 155.249 76.14C155.249 76.734 155.336 77.274 155.51 77.76C155.69 78.24 155.963 78.621 156.329 78.903C156.695 79.185 157.16 79.326 157.724 79.326ZM160.163 81V74.178H159.893V68.04H162.08V81H160.163ZM169.023 81.27C168.039 81.27 167.175 81.057 166.431 80.631C165.687 80.205 165.105 79.614 164.685 78.858C164.271 78.102 164.064 77.232 164.064 76.248C164.064 75.186 164.268 74.265 164.676 73.485C165.084 72.699 165.651 72.09 166.377 71.658C167.103 71.226 167.943 71.01 168.897 71.01C169.905 71.01 170.76 71.247 171.462 71.721C172.17 72.189 172.695 72.852 173.037 73.71C173.379 74.568 173.508 75.579 173.424 76.743H171.273V75.951C171.267 74.895 171.081 74.124 170.715 73.638C170.349 73.152 169.773 72.909 168.987 72.909C168.099 72.909 167.439 73.185 167.007 73.737C166.575 74.283 166.359 75.084 166.359 76.14C166.359 77.124 166.575 77.886 167.007 78.426C167.439 78.966 168.069 79.236 168.897 79.236C169.431 79.236 169.89 79.119 170.274 78.885C170.664 78.645 170.964 78.3 171.174 77.85L173.316 78.498C172.944 79.374 172.368 80.055 171.588 80.541C170.814 81.027 169.959 81.27 169.023 81.27ZM165.675 76.743V75.105H172.362V76.743H165.675ZM186.841 81V75.096C186.841 74.43 186.676 73.911 186.346 73.539C186.016 73.161 185.569 72.972 185.005 72.972C184.657 72.972 184.345 73.053 184.069 73.215C183.793 73.371 183.574 73.605 183.412 73.917C183.25 74.223 183.169 74.589 183.169 75.015L182.206 74.448C182.2 73.776 182.35 73.185 182.656 72.675C182.968 72.159 183.388 71.757 183.916 71.469C184.444 71.181 185.032 71.037 185.68 71.037C186.754 71.037 187.576 71.361 188.146 72.009C188.722 72.651 189.01 73.497 189.01 74.547V81H186.841ZM175.15 81V71.28H177.067V74.295H177.337V81H175.15ZM181.009 81V75.123C181.009 74.445 180.844 73.917 180.514 73.539C180.184 73.161 179.734 72.972 179.164 72.972C178.612 72.972 178.168 73.161 177.832 73.539C177.502 73.917 177.337 74.409 177.337 75.015L176.365 74.367C176.365 73.737 176.521 73.17 176.833 72.666C177.145 72.162 177.565 71.766 178.093 71.478C178.627 71.184 179.224 71.037 179.884 71.037C180.61 71.037 181.216 71.193 181.702 71.505C182.194 71.811 182.56 72.231 182.8 72.765C183.046 73.293 183.169 73.89 183.169 74.556V81H181.009ZM195.492 81.27C194.52 81.27 193.671 81.051 192.945 80.613C192.219 80.175 191.655 79.572 191.253 78.804C190.857 78.03 190.659 77.142 190.659 76.14C190.659 75.12 190.863 74.226 191.271 73.458C191.679 72.69 192.246 72.09 192.972 71.658C193.698 71.226 194.538 71.01 195.492 71.01C196.47 71.01 197.322 71.229 198.048 71.667C198.774 72.105 199.338 72.711 199.74 73.485C200.142 74.253 200.343 75.138 200.343 76.14C200.343 77.148 200.139 78.039 199.731 78.813C199.329 79.581 198.765 80.184 198.039 80.622C197.313 81.054 196.464 81.27 195.492 81.27ZM195.492 79.236C196.356 79.236 196.998 78.948 197.418 78.372C197.838 77.796 198.048 77.052 198.048 76.14C198.048 75.198 197.835 74.448 197.409 73.89C196.983 73.326 196.344 73.044 195.492 73.044C194.91 73.044 194.43 73.176 194.052 73.44C193.68 73.698 193.404 74.061 193.224 74.529C193.044 74.991 192.954 75.528 192.954 76.14C192.954 77.082 193.167 77.835 193.593 78.399C194.025 78.957 194.658 79.236 195.492 79.236ZM205.851 81.27C204.651 81.27 203.676 81 202.926 80.46C202.176 79.92 201.72 79.161 201.558 78.183L203.772 77.841C203.886 78.321 204.138 78.699 204.528 78.975C204.918 79.251 205.41 79.389 206.004 79.389C206.526 79.389 206.928 79.287 207.21 79.083C207.498 78.873 207.642 78.588 207.642 78.228C207.642 78.006 207.588 77.829 207.48 77.697C207.378 77.559 207.15 77.427 206.796 77.301C206.442 77.175 205.899 77.016 205.167 76.824C204.351 76.608 203.703 76.377 203.223 76.131C202.743 75.879 202.398 75.582 202.188 75.24C201.978 74.898 201.873 74.484 201.873 73.998C201.873 73.392 202.032 72.864 202.35 72.414C202.668 71.964 203.112 71.619 203.682 71.379C204.252 71.133 204.924 71.01 205.698 71.01C206.454 71.01 207.123 71.127 207.705 71.361C208.293 71.595 208.767 71.928 209.127 72.36C209.487 72.792 209.709 73.299 209.793 73.881L207.579 74.277C207.525 73.863 207.336 73.536 207.012 73.296C206.694 73.056 206.268 72.921 205.734 72.891C205.224 72.861 204.813 72.939 204.501 73.125C204.189 73.305 204.033 73.56 204.033 73.89C204.033 74.076 204.096 74.235 204.222 74.367C204.348 74.499 204.6 74.631 204.978 74.763C205.362 74.895 205.932 75.057 206.688 75.249C207.462 75.447 208.08 75.675 208.542 75.933C209.01 76.185 209.346 76.488 209.55 76.842C209.76 77.196 209.865 77.625 209.865 78.129C209.865 79.107 209.508 79.875 208.794 80.433C208.086 80.991 207.105 81.27 205.851 81.27ZM220.111 81.27C219.163 81.27 218.368 81.045 217.726 80.595C217.084 80.145 216.601 79.533 216.277 78.759C215.953 77.979 215.791 77.106 215.791 76.14C215.791 75.162 215.953 74.286 216.277 73.512C216.601 72.738 217.075 72.129 217.699 71.685C218.329 71.235 219.106 71.01 220.03 71.01C220.948 71.01 221.743 71.235 222.415 71.685C223.093 72.129 223.618 72.738 223.99 73.512C224.362 74.28 224.548 75.156 224.548 76.14C224.548 77.112 224.365 77.985 223.999 78.759C223.633 79.533 223.117 80.145 222.451 80.595C221.785 81.045 221.005 81.27 220.111 81.27ZM215.422 85.32V71.28H217.339V78.102H217.609V85.32H215.422ZM219.778 79.326C220.342 79.326 220.807 79.185 221.173 78.903C221.539 78.621 221.809 78.24 221.983 77.76C222.163 77.274 222.253 76.734 222.253 76.14C222.253 75.552 222.163 75.018 221.983 74.538C221.803 74.052 221.524 73.668 221.146 73.386C220.768 73.098 220.288 72.954 219.706 72.954C219.154 72.954 218.704 73.089 218.356 73.359C218.008 73.623 217.75 73.995 217.582 74.475C217.42 74.949 217.339 75.504 217.339 76.14C217.339 76.77 217.42 77.325 217.582 77.805C217.75 78.285 218.011 78.66 218.365 78.93C218.725 79.194 219.196 79.326 219.778 79.326ZM226.531 81V71.28H228.448V73.647L228.214 73.341C228.334 73.017 228.493 72.723 228.691 72.459C228.895 72.189 229.138 71.967 229.42 71.793C229.66 71.631 229.924 71.505 230.212 71.415C230.506 71.319 230.806 71.262 231.112 71.244C231.418 71.22 231.715 71.232 232.003 71.28V73.305C231.715 73.221 231.382 73.194 231.004 73.224C230.632 73.254 230.296 73.359 229.996 73.539C229.696 73.701 229.45 73.908 229.258 74.16C229.072 74.412 228.934 74.7 228.844 75.024C228.754 75.342 228.709 75.687 228.709 76.059V81H226.531ZM237.964 81.27C236.98 81.27 236.116 81.057 235.372 80.631C234.628 80.205 234.046 79.614 233.626 78.858C233.212 78.102 233.005 77.232 233.005 76.248C233.005 75.186 233.209 74.265 233.617 73.485C234.025 72.699 234.592 72.09 235.318 71.658C236.044 71.226 236.884 71.01 237.838 71.01C238.846 71.01 239.701 71.247 240.403 71.721C241.111 72.189 241.636 72.852 241.978 73.71C242.32 74.568 242.449 75.579 242.365 76.743H240.214V75.951C240.208 74.895 240.022 74.124 239.656 73.638C239.29 73.152 238.714 72.909 237.928 72.909C237.04 72.909 236.38 73.185 235.948 73.737C235.516 74.283 235.3 75.084 235.3 76.14C235.3 77.124 235.516 77.886 235.948 78.426C236.38 78.966 237.01 79.236 237.838 79.236C238.372 79.236 238.831 79.119 239.215 78.885C239.605 78.645 239.905 78.3 240.115 77.85L242.257 78.498C241.885 79.374 241.309 80.055 240.529 80.541C239.755 81.027 238.9 81.27 237.964 81.27ZM234.616 76.743V75.105H241.303V76.743H234.616ZM248.126 81.27C246.926 81.27 245.951 81 245.201 80.46C244.451 79.92 243.995 79.161 243.833 78.183L246.047 77.841C246.161 78.321 246.413 78.699 246.803 78.975C247.193 79.251 247.685 79.389 248.279 79.389C248.801 79.389 249.203 79.287 249.485 79.083C249.773 78.873 249.917 78.588 249.917 78.228C249.917 78.006 249.863 77.829 249.755 77.697C249.653 77.559 249.425 77.427 249.071 77.301C248.717 77.175 248.174 77.016 247.442 76.824C246.626 76.608 245.978 76.377 245.498 76.131C245.018 75.879 244.673 75.582 244.463 75.24C244.253 74.898 244.148 74.484 244.148 73.998C244.148 73.392 244.307 72.864 244.625 72.414C244.943 71.964 245.387 71.619 245.957 71.379C246.527 71.133 247.199 71.01 247.973 71.01C248.729 71.01 249.398 71.127 249.98 71.361C250.568 71.595 251.042 71.928 251.402 72.36C251.762 72.792 251.984 73.299 252.068 73.881L249.854 74.277C249.8 73.863 249.611 73.536 249.287 73.296C248.969 73.056 248.543 72.921 248.009 72.891C247.499 72.861 247.088 72.939 246.776 73.125C246.464 73.305 246.308 73.56 246.308 73.89C246.308 74.076 246.371 74.235 246.497 74.367C246.623 74.499 246.875 74.631 247.253 74.763C247.637 74.895 248.207 75.057 248.963 75.249C249.737 75.447 250.355 75.675 250.817 75.933C251.285 76.185 251.621 76.488 251.825 76.842C252.035 77.196 252.14 77.625 252.14 78.129C252.14 79.107 251.783 79.875 251.069 80.433C250.361 80.991 249.38 81.27 248.126 81.27ZM259.808 81C259.166 81.12 258.536 81.171 257.918 81.153C257.306 81.141 256.757 81.03 256.271 80.82C255.785 80.604 255.416 80.265 255.164 79.803C254.942 79.383 254.825 78.954 254.813 78.516C254.801 78.078 254.795 77.583 254.795 77.031V68.58H256.955V76.905C256.955 77.295 256.958 77.637 256.964 77.931C256.976 78.225 257.039 78.465 257.153 78.651C257.369 79.011 257.714 79.212 258.188 79.254C258.662 79.296 259.202 79.272 259.808 79.182V81ZM253.031 72.981V71.28H259.808V72.981H253.031ZM264.617 81.27C263.915 81.27 263.321 81.138 262.835 80.874C262.349 80.604 261.98 80.247 261.728 79.803C261.482 79.359 261.359 78.87 261.359 78.336C261.359 77.868 261.437 77.448 261.593 77.076C261.749 76.698 261.989 76.374 262.313 76.104C262.637 75.828 263.057 75.603 263.573 75.429C263.963 75.303 264.419 75.189 264.941 75.087C265.469 74.985 266.039 74.892 266.651 74.808C267.269 74.718 267.914 74.622 268.586 74.52L267.812 74.961C267.818 74.289 267.668 73.794 267.362 73.476C267.056 73.158 266.54 72.999 265.814 72.999C265.376 72.999 264.953 73.101 264.545 73.305C264.137 73.509 263.852 73.86 263.69 74.358L261.71 73.737C261.95 72.915 262.406 72.255 263.078 71.757C263.756 71.259 264.668 71.01 265.814 71.01C266.678 71.01 267.437 71.151 268.091 71.433C268.751 71.715 269.24 72.177 269.558 72.819C269.732 73.161 269.837 73.512 269.873 73.872C269.909 74.226 269.927 74.613 269.927 75.033V81H268.028V78.894L268.343 79.236C267.905 79.938 267.392 80.454 266.804 80.784C266.222 81.108 265.493 81.27 264.617 81.27ZM265.049 79.542C265.541 79.542 265.961 79.455 266.309 79.281C266.657 79.107 266.933 78.894 267.137 78.642C267.347 78.39 267.488 78.153 267.56 77.931C267.674 77.655 267.737 77.34 267.749 76.986C267.767 76.626 267.776 76.335 267.776 76.113L268.442 76.311C267.788 76.413 267.227 76.503 266.759 76.581C266.291 76.659 265.889 76.734 265.553 76.806C265.217 76.872 264.92 76.947 264.662 77.031C264.41 77.121 264.197 77.226 264.023 77.346C263.849 77.466 263.714 77.604 263.618 77.76C263.528 77.916 263.483 78.099 263.483 78.309C263.483 78.549 263.543 78.762 263.663 78.948C263.783 79.128 263.957 79.272 264.185 79.38C264.419 79.488 264.707 79.542 265.049 79.542ZM272.27 81V71.28H274.187V73.647L273.953 73.341C274.073 73.017 274.232 72.723 274.43 72.459C274.634 72.189 274.877 71.967 275.159 71.793C275.399 71.631 275.663 71.505 275.951 71.415C276.245 71.319 276.545 71.262 276.851 71.244C277.157 71.22 277.454 71.232 277.742 71.28V73.305C277.454 73.221 277.121 73.194 276.743 73.224C276.371 73.254 276.035 73.359 275.735 73.539C275.435 73.701 275.189 73.908 274.997 74.16C274.811 74.412 274.673 74.7 274.583 75.024C274.493 75.342 274.448 75.687 274.448 76.059V81H272.27ZM285.156 81C284.514 81.12 283.884 81.171 283.266 81.153C282.654 81.141 282.105 81.03 281.619 80.82C281.133 80.604 280.764 80.265 280.512 79.803C280.29 79.383 280.173 78.954 280.161 78.516C280.149 78.078 280.143 77.583 280.143 77.031V68.58H282.303V76.905C282.303 77.295 282.306 77.637 282.312 77.931C282.324 78.225 282.387 78.465 282.501 78.651C282.717 79.011 283.062 79.212 283.536 79.254C284.01 79.296 284.55 79.272 285.156 79.182V81ZM278.379 72.981V71.28H285.156V72.981H278.379ZM291.173 81.27C290.189 81.27 289.325 81.057 288.581 80.631C287.837 80.205 287.255 79.614 286.835 78.858C286.421 78.102 286.214 77.232 286.214 76.248C286.214 75.186 286.418 74.265 286.826 73.485C287.234 72.699 287.801 72.09 288.527 71.658C289.253 71.226 290.093 71.01 291.047 71.01C292.055 71.01 292.91 71.247 293.612 71.721C294.32 72.189 294.845 72.852 295.187 73.71C295.529 74.568 295.658 75.579 295.574 76.743H293.423V75.951C293.417 74.895 293.231 74.124 292.865 73.638C292.499 73.152 291.923 72.909 291.137 72.909C290.249 72.909 289.589 73.185 289.157 73.737C288.725 74.283 288.509 75.084 288.509 76.14C288.509 77.124 288.725 77.886 289.157 78.426C289.589 78.966 290.219 79.236 291.047 79.236C291.581 79.236 292.04 79.119 292.424 78.885C292.814 78.645 293.114 78.3 293.324 77.85L295.466 78.498C295.094 79.374 294.518 80.055 293.738 80.541C292.964 81.027 292.109 81.27 291.173 81.27ZM287.825 76.743V75.105H294.512V76.743H287.825ZM298.302 79.83V77.607H300.525V79.83H298.302ZM298.32 74.673V72.45H300.543V74.673H298.32Z" fill="#2A1846"/>
</g>
<path d="M115.021 142.378V137.164H120.323V142.378H115.021ZM115.021 107.178V101.964H120.323V107.178H115.021ZM117.793 138.66C115.563 138.66 113.569 138.249 111.809 137.428C110.049 136.607 108.604 135.448 107.475 133.952C106.36 132.456 105.649 130.681 105.341 128.628L110.577 127.792C110.987 129.596 111.867 131.033 113.217 132.104C114.581 133.16 116.209 133.688 118.101 133.688C119.919 133.688 121.415 133.263 122.589 132.412C123.762 131.547 124.349 130.454 124.349 129.134C124.349 128.21 124.07 127.462 123.513 126.89C122.955 126.303 122.061 125.819 120.829 125.438L113.195 123.062C108.751 121.683 106.529 118.985 106.529 114.966C106.529 113.089 106.976 111.453 107.871 110.06C108.78 108.652 110.056 107.574 111.699 106.826C113.341 106.063 115.277 105.689 117.507 105.704C119.575 105.719 121.415 106.093 123.029 106.826C124.657 107.559 126.006 108.615 127.077 109.994C128.162 111.373 128.932 113.03 129.387 114.966L123.953 115.956C123.747 114.915 123.344 113.998 122.743 113.206C122.141 112.414 121.386 111.798 120.477 111.358C119.567 110.918 118.555 110.683 117.441 110.654C116.37 110.639 115.409 110.808 114.559 111.16C113.708 111.497 113.033 111.981 112.535 112.612C112.036 113.228 111.787 113.925 111.787 114.702C111.787 115.567 112.131 116.308 112.821 116.924C113.525 117.54 114.632 118.068 116.143 118.508L121.841 120.158C124.583 120.95 126.556 122.028 127.759 123.392C128.976 124.741 129.585 126.538 129.585 128.782C129.585 130.747 129.093 132.471 128.111 133.952C127.128 135.433 125.749 136.592 123.975 137.428C122.2 138.249 120.139 138.66 117.793 138.66ZM144.872 138.66C142.804 138.66 140.941 138.176 139.284 137.208C137.641 136.225 136.336 134.869 135.368 133.138C134.4 131.407 133.916 129.42 133.916 127.176V117.54C133.916 115.135 134.392 113.045 135.346 111.27C136.314 109.495 137.663 108.124 139.394 107.156C141.139 106.188 143.163 105.704 145.466 105.704C147.064 105.704 148.582 105.975 150.02 106.518C151.457 107.046 152.733 107.897 153.848 109.07L150.02 112.788C149.462 112.128 148.78 111.607 147.974 111.226C147.182 110.845 146.346 110.654 145.466 110.654C144.234 110.654 143.156 110.947 142.232 111.534C141.308 112.106 140.589 112.861 140.076 113.8C139.577 114.739 139.328 115.743 139.328 116.814V122.072L138.36 121.016C139.269 119.96 140.362 119.139 141.638 118.552C142.914 117.951 144.248 117.65 145.642 117.65C147.636 117.65 149.396 118.105 150.922 119.014C152.447 119.909 153.65 121.141 154.53 122.71C155.41 124.265 155.85 126.039 155.85 128.034C155.85 130.014 155.344 131.811 154.332 133.424C153.334 135.023 152.007 136.299 150.35 137.252C148.692 138.191 146.866 138.66 144.872 138.66ZM144.872 133.578C145.898 133.578 146.837 133.336 147.688 132.852C148.538 132.353 149.213 131.686 149.712 130.85C150.225 129.999 150.482 129.061 150.482 128.034C150.482 127.007 150.232 126.069 149.734 125.218C149.235 124.367 148.56 123.693 147.71 123.194C146.874 122.681 145.942 122.424 144.916 122.424C143.889 122.424 142.95 122.681 142.1 123.194C141.249 123.693 140.574 124.367 140.076 125.218C139.577 126.069 139.328 127.007 139.328 128.034C139.328 129.031 139.57 129.955 140.054 130.806C140.552 131.642 141.22 132.317 142.056 132.83C142.906 133.329 143.845 133.578 144.872 133.578ZM161.684 138V132.566H167.118V138H161.684ZM185.123 138.66C182.879 138.66 180.899 138.183 179.183 137.23C177.467 136.262 176.125 134.92 175.157 133.204C174.204 131.488 173.727 129.508 173.727 127.264V117.056C173.727 114.812 174.204 112.832 175.157 111.116C176.125 109.4 177.467 108.065 179.183 107.112C180.899 106.144 182.879 105.66 185.123 105.66C187.367 105.66 189.34 106.144 191.041 107.112C192.757 108.065 194.099 109.4 195.067 111.116C196.035 112.832 196.519 114.812 196.519 117.056V127.264C196.519 129.508 196.035 131.488 195.067 133.204C194.099 134.92 192.757 136.262 191.041 137.23C189.34 138.183 187.367 138.66 185.123 138.66ZM185.123 133.622C186.238 133.622 187.25 133.358 188.159 132.83C189.068 132.287 189.787 131.569 190.315 130.674C190.843 129.765 191.107 128.753 191.107 127.638V116.66C191.107 115.531 190.843 114.519 190.315 113.624C189.787 112.715 189.068 111.996 188.159 111.468C187.25 110.925 186.238 110.654 185.123 110.654C184.008 110.654 182.996 110.925 182.087 111.468C181.178 111.996 180.459 112.715 179.931 113.624C179.403 114.519 179.139 115.531 179.139 116.66V127.638C179.139 128.753 179.403 129.765 179.931 130.674C180.459 131.569 181.178 132.287 182.087 132.83C182.996 133.358 184.008 133.622 185.123 133.622ZM213.644 138.66C211.4 138.66 209.42 138.183 207.704 137.23C205.988 136.262 204.646 134.92 203.678 133.204C202.725 131.488 202.248 129.508 202.248 127.264V117.056C202.248 114.812 202.725 112.832 203.678 111.116C204.646 109.4 205.988 108.065 207.704 107.112C209.42 106.144 211.4 105.66 213.644 105.66C215.888 105.66 217.861 106.144 219.562 107.112C221.278 108.065 222.62 109.4 223.588 111.116C224.556 112.832 225.04 114.812 225.04 117.056V127.264C225.04 129.508 224.556 131.488 223.588 133.204C222.62 134.92 221.278 136.262 219.562 137.23C217.861 138.183 215.888 138.66 213.644 138.66ZM213.644 133.622C214.759 133.622 215.771 133.358 216.68 132.83C217.589 132.287 218.308 131.569 218.836 130.674C219.364 129.765 219.628 128.753 219.628 127.638V116.66C219.628 115.531 219.364 114.519 218.836 113.624C218.308 112.715 217.589 111.996 216.68 111.468C215.771 110.925 214.759 110.654 213.644 110.654C212.529 110.654 211.517 110.925 210.608 111.468C209.699 111.996 208.98 112.715 208.452 113.624C207.924 114.519 207.66 115.531 207.66 116.66V127.638C207.66 128.753 207.924 129.765 208.452 130.674C208.98 131.569 209.699 132.287 210.608 132.83C211.517 133.358 212.529 133.622 213.644 133.622ZM242.165 138.66C239.921 138.66 237.941 138.183 236.225 137.23C234.509 136.262 233.167 134.92 232.199 133.204C231.246 131.488 230.769 129.508 230.769 127.264V117.056C230.769 114.812 231.246 112.832 232.199 111.116C233.167 109.4 234.509 108.065 236.225 107.112C237.941 106.144 239.921 105.66 242.165 105.66C244.409 105.66 246.382 106.144 248.083 107.112C249.799 108.065 251.141 109.4 252.109 111.116C253.077 112.832 253.561 114.812 253.561 117.056V127.264C253.561 129.508 253.077 131.488 252.109 133.204C251.141 134.92 249.799 136.262 248.083 137.23C246.382 138.183 244.409 138.66 242.165 138.66ZM242.165 133.622C243.28 133.622 244.292 133.358 245.201 132.83C246.11 132.287 246.829 131.569 247.357 130.674C247.885 129.765 248.149 128.753 248.149 127.638V116.66C248.149 115.531 247.885 114.519 247.357 113.624C246.829 112.715 246.11 111.996 245.201 111.468C244.292 110.925 243.28 110.654 242.165 110.654C241.05 110.654 240.038 110.925 239.129 111.468C238.22 111.996 237.501 112.715 236.973 113.624C236.445 114.519 236.181 115.531 236.181 116.66V127.638C236.181 128.753 236.445 129.765 236.973 130.674C237.501 131.569 238.22 132.287 239.129 132.83C240.038 133.358 241.05 133.622 242.165 133.622Z" fill="#2A1846"/>
<g clip-path="url(#clip1)">
<rect opacity="0.5" x="24.1483" y="167" width="312" height="4" rx="2" fill="#D1D1D7"/>
<rect x="24.1483" y="167" width="188" height="4" rx="2" fill="#0FD08B"/>
<g filter="url(#filter0_d)">
<rect x="192.148" y="157" width="40" height="24" rx="12" fill="#0FD08B"/>
<path d="M218.148 165L222.148 169L218.148 173" stroke="white" stroke-miterlimit="10" stroke-linecap="round" stroke-linejoin="round"/>
<path d="M206.148 173L202.148 169L206.148 165" stroke="white" stroke-miterlimit="10" stroke-linecap="round" stroke-linejoin="round"/>
</g>
</g>
<path d="M27.7673 198.393V196.734H29.4543V198.393H27.7673ZM27.7673 187.193V185.534H29.4543V187.193H27.7673ZM28.6493 197.21C27.94 197.21 27.3053 197.079 26.7453 196.818C26.1853 196.557 25.7256 196.188 25.3663 195.712C25.0116 195.236 24.7853 194.671 24.6873 194.018L26.3533 193.752C26.484 194.326 26.764 194.783 27.1933 195.124C27.6273 195.46 28.1453 195.628 28.7473 195.628C29.326 195.628 29.802 195.493 30.1753 195.222C30.5486 194.947 30.7353 194.599 30.7353 194.179C30.7353 193.885 30.6466 193.647 30.4693 193.465C30.292 193.278 30.0073 193.124 29.6153 193.003L27.1863 192.247C25.7723 191.808 25.0653 190.95 25.0653 189.671C25.0653 189.074 25.2076 188.553 25.4923 188.11C25.7816 187.662 26.1876 187.319 26.7103 187.081C27.233 186.838 27.849 186.719 28.5583 186.724C29.2163 186.729 29.802 186.848 30.3153 187.081C30.8333 187.314 31.2626 187.65 31.6033 188.089C31.9486 188.528 32.1936 189.055 32.3383 189.671L30.6093 189.986C30.544 189.655 30.4156 189.363 30.2243 189.111C30.033 188.859 29.7926 188.663 29.5033 188.523C29.214 188.383 28.892 188.308 28.5373 188.299C28.1966 188.294 27.891 188.348 27.6203 188.46C27.3496 188.567 27.135 188.721 26.9763 188.922C26.8176 189.118 26.7383 189.34 26.7383 189.587C26.7383 189.862 26.848 190.098 27.0673 190.294C27.2913 190.49 27.6436 190.658 28.1243 190.798L29.9373 191.323C30.81 191.575 31.4376 191.918 31.8203 192.352C32.2076 192.781 32.4013 193.353 32.4013 194.067C32.4013 194.692 32.245 195.241 31.9323 195.712C31.6196 196.183 31.181 196.552 30.6163 196.818C30.0516 197.079 29.396 197.21 28.6493 197.21ZM35.6693 197V188.761L33.7793 189.916V188.054L35.6693 186.92H37.3913V197H35.6693ZM39.7774 197V195.271H41.5064V197H39.7774ZM47.3754 197.21C46.6614 197.21 46.0314 197.058 45.4854 196.755C44.9394 196.447 44.5124 196.02 44.2044 195.474C43.9011 194.928 43.7494 194.298 43.7494 193.584V190.336C43.7494 189.622 43.9011 188.992 44.2044 188.446C44.5124 187.9 44.9394 187.475 45.4854 187.172C46.0314 186.864 46.6614 186.71 47.3754 186.71C48.0894 186.71 48.7171 186.864 49.2584 187.172C49.8044 187.475 50.2314 187.9 50.5394 188.446C50.8474 188.992 51.0014 189.622 51.0014 190.336V193.584C51.0014 194.298 50.8474 194.928 50.5394 195.474C50.2314 196.02 49.8044 196.447 49.2584 196.755C48.7171 197.058 48.0894 197.21 47.3754 197.21ZM47.3754 195.607C47.7301 195.607 48.0521 195.523 48.3414 195.355C48.6307 195.182 48.8594 194.954 49.0274 194.669C49.1954 194.38 49.2794 194.058 49.2794 193.703V190.21C49.2794 189.851 49.1954 189.529 49.0274 189.244C48.8594 188.955 48.6307 188.726 48.3414 188.558C48.0521 188.385 47.7301 188.299 47.3754 188.299C47.0207 188.299 46.6987 188.385 46.4094 188.558C46.1201 188.726 45.8914 188.955 45.7234 189.244C45.5554 189.529 45.4714 189.851 45.4714 190.21V193.703C45.4714 194.058 45.5554 194.38 45.7234 194.669C45.8914 194.954 46.1201 195.182 46.4094 195.355C46.6987 195.523 47.0207 195.607 47.3754 195.607ZM56.5902 197.21C55.8762 197.21 55.2462 197.058 54.7002 196.755C54.1542 196.447 53.7272 196.02 53.4192 195.474C53.1159 194.928 52.9642 194.298 52.9642 193.584V190.336C52.9642 189.622 53.1159 188.992 53.4192 188.446C53.7272 187.9 54.1542 187.475 54.7002 187.172C55.2462 186.864 55.8762 186.71 56.5902 186.71C57.3042 186.71 57.9319 186.864 58.4732 187.172C59.0192 187.475 59.4462 187.9 59.7542 188.446C60.0622 188.992 60.2162 189.622 60.2162 190.336V193.584C60.2162 194.298 60.0622 194.928 59.7542 195.474C59.4462 196.02 59.0192 196.447 58.4732 196.755C57.9319 197.058 57.3042 197.21 56.5902 197.21ZM56.5902 195.607C56.9449 195.607 57.2669 195.523 57.5562 195.355C57.8456 195.182 58.0742 194.954 58.2422 194.669C58.4102 194.38 58.4942 194.058 58.4942 193.703V190.21C58.4942 189.851 58.4102 189.529 58.2422 189.244C58.0742 188.955 57.8456 188.726 57.5562 188.558C57.2669 188.385 56.9449 188.299 56.5902 188.299C56.2356 188.299 55.9136 188.385 55.6242 188.558C55.3349 188.726 55.1062 188.955 54.9382 189.244C54.7702 189.529 54.6862 189.851 54.6862 190.21V193.703C54.6862 194.058 54.7702 194.38 54.9382 194.669C55.1062 194.954 55.3349 195.182 55.6242 195.355C55.9136 195.523 56.2356 195.607 56.5902 195.607ZM65.8051 197.21C65.0911 197.21 64.4611 197.058 63.9151 196.755C63.3691 196.447 62.9421 196.02 62.6341 195.474C62.3307 194.928 62.1791 194.298 62.1791 193.584V190.336C62.1791 189.622 62.3307 188.992 62.6341 188.446C62.9421 187.9 63.3691 187.475 63.9151 187.172C64.4611 186.864 65.0911 186.71 65.8051 186.71C66.5191 186.71 67.1467 186.864 67.6881 187.172C68.2341 187.475 68.6611 187.9 68.9691 188.446C69.2771 188.992 69.4311 189.622 69.4311 190.336V193.584C69.4311 194.298 69.2771 194.928 68.9691 195.474C68.6611 196.02 68.2341 196.447 67.6881 196.755C67.1467 197.058 66.5191 197.21 65.8051 197.21ZM65.8051 195.607C66.1597 195.607 66.4817 195.523 66.7711 195.355C67.0604 195.182 67.2891 194.954 67.4571 194.669C67.6251 194.38 67.7091 194.058 67.7091 193.703V190.21C67.7091 189.851 67.6251 189.529 67.4571 189.244C67.2891 188.955 67.0604 188.726 66.7711 188.558C66.4817 188.385 66.1597 188.299 65.8051 188.299C65.4504 188.299 65.1284 188.385 64.8391 188.558C64.5497 188.726 64.3211 188.955 64.1531 189.244C63.9851 189.529 63.9011 189.851 63.9011 190.21V193.703C63.9011 194.058 63.9851 194.38 64.1531 194.669C64.3211 194.954 64.5497 195.182 64.8391 195.355C65.1284 195.523 65.4504 195.607 65.8051 195.607Z" fill="#575372"/>
<path d="M283.726 198.393V196.734H285.413V198.393H283.726ZM283.726 187.193V185.534H285.413V187.193H283.726ZM284.608 197.21C283.899 197.21 283.264 197.079 282.704 196.818C282.144 196.557 281.685 196.188 281.325 195.712C280.971 195.236 280.744 194.671 280.646 194.018L282.312 193.752C282.443 194.326 282.723 194.783 283.152 195.124C283.586 195.46 284.104 195.628 284.706 195.628C285.285 195.628 285.761 195.493 286.134 195.222C286.508 194.947 286.694 194.599 286.694 194.179C286.694 193.885 286.606 193.647 286.428 193.465C286.251 193.278 285.966 193.124 285.574 193.003L283.145 192.247C281.731 191.808 281.024 190.95 281.024 189.671C281.024 189.074 281.167 188.553 281.451 188.11C281.741 187.662 282.147 187.319 282.669 187.081C283.192 186.838 283.808 186.719 284.517 186.724C285.175 186.729 285.761 186.848 286.274 187.081C286.792 187.314 287.222 187.65 287.562 188.089C287.908 188.528 288.153 189.055 288.297 189.671L286.568 189.986C286.503 189.655 286.375 189.363 286.183 189.111C285.992 188.859 285.752 188.663 285.462 188.523C285.173 188.383 284.851 188.308 284.496 188.299C284.156 188.294 283.85 188.348 283.579 188.46C283.309 188.567 283.094 188.721 282.935 188.922C282.777 189.118 282.697 189.34 282.697 189.587C282.697 189.862 282.807 190.098 283.026 190.294C283.25 190.49 283.603 190.658 284.083 190.798L285.896 191.323C286.769 191.575 287.397 191.918 287.779 192.352C288.167 192.781 288.36 193.353 288.36 194.067C288.36 194.692 288.204 195.241 287.891 195.712C287.579 196.183 287.14 196.552 286.575 196.818C286.011 197.079 285.355 197.21 284.608 197.21ZM291.628 197V188.761L289.738 189.916V188.054L291.628 186.92H293.35V197H291.628ZM299.643 197.21C298.929 197.21 298.299 197.058 297.753 196.755C297.207 196.447 296.78 196.02 296.472 195.474C296.169 194.928 296.017 194.298 296.017 193.584V190.336C296.017 189.622 296.169 188.992 296.472 188.446C296.78 187.9 297.207 187.475 297.753 187.172C298.299 186.864 298.929 186.71 299.643 186.71C300.357 186.71 300.985 186.864 301.526 187.172C302.072 187.475 302.499 187.9 302.807 188.446C303.115 188.992 303.269 189.622 303.269 190.336V193.584C303.269 194.298 303.115 194.928 302.807 195.474C302.499 196.02 302.072 196.447 301.526 196.755C300.985 197.058 300.357 197.21 299.643 197.21ZM299.643 195.607C299.998 195.607 300.32 195.523 300.609 195.355C300.898 195.182 301.127 194.954 301.295 194.669C301.463 194.38 301.547 194.058 301.547 193.703V190.21C301.547 189.851 301.463 189.529 301.295 189.244C301.127 188.955 300.898 188.726 300.609 188.558C300.32 188.385 299.998 188.299 299.643 188.299C299.288 188.299 298.966 188.385 298.677 188.558C298.388 188.726 298.159 188.955 297.991 189.244C297.823 189.529 297.739 189.851 297.739 190.21V193.703C297.739 194.058 297.823 194.38 297.991 194.669C298.159 194.954 298.388 195.182 298.677 195.355C298.966 195.523 299.288 195.607 299.643 195.607ZM305.512 197V195.271H307.241V197H305.512ZM313.11 197.21C312.396 197.21 311.766 197.058 311.22 196.755C310.674 196.447 310.247 196.02 309.939 195.474C309.635 194.928 309.484 194.298 309.484 193.584V190.336C309.484 189.622 309.635 188.992 309.939 188.446C310.247 187.9 310.674 187.475 311.22 187.172C311.766 186.864 312.396 186.71 313.11 186.71C313.824 186.71 314.451 186.864 314.993 187.172C315.539 187.475 315.966 187.9 316.274 188.446C316.582 188.992 316.736 189.622 316.736 190.336V193.584C316.736 194.298 316.582 194.928 316.274 195.474C315.966 196.02 315.539 196.447 314.993 196.755C314.451 197.058 313.824 197.21 313.11 197.21ZM313.11 195.607C313.464 195.607 313.786 195.523 314.076 195.355C314.365 195.182 314.594 194.954 314.762 194.669C314.93 194.38 315.014 194.058 315.014 193.703V190.21C315.014 189.851 314.93 189.529 314.762 189.244C314.594 188.955 314.365 188.726 314.076 188.558C313.786 188.385 313.464 188.299 313.11 188.299C312.755 188.299 312.433 188.385 312.144 188.558C311.854 188.726 311.626 188.955 311.458 189.244C311.29 189.529 311.206 189.851 311.206 190.21V193.703C311.206 194.058 311.29 194.38 311.458 194.669C311.626 194.954 311.854 195.182 312.144 195.355C312.433 195.523 312.755 195.607 313.11 195.607ZM322.325 197.21C321.611 197.21 320.981 197.058 320.435 196.755C319.889 196.447 319.462 196.02 319.154 195.474C318.85 194.928 318.699 194.298 318.699 193.584V190.336C318.699 189.622 318.85 188.992 319.154 188.446C319.462 187.9 319.889 187.475 320.435 187.172C320.981 186.864 321.611 186.71 322.325 186.71C323.039 186.71 323.666 186.864 324.208 187.172C324.754 187.475 325.181 187.9 325.489 188.446C325.797 188.992 325.951 189.622 325.951 190.336V193.584C325.951 194.298 325.797 194.928 325.489 195.474C325.181 196.02 324.754 196.447 324.208 196.755C323.666 197.058 323.039 197.21 322.325 197.21ZM322.325 195.607C322.679 195.607 323.001 195.523 323.291 195.355C323.58 195.182 323.809 194.954 323.977 194.669C324.145 194.38 324.229 194.058 324.229 193.703V190.21C324.229 189.851 324.145 189.529 323.977 189.244C323.809 188.955 323.58 188.726 323.291 188.558C323.001 188.385 322.679 188.299 322.325 188.299C321.97 188.299 321.648 188.385 321.359 188.558C321.069 188.726 320.841 188.955 320.673 189.244C320.505 189.529 320.421 189.851 320.421 190.21V193.703C320.421 194.058 320.505 194.38 320.673 194.669C320.841 194.954 321.069 195.182 321.359 195.355C321.648 195.523 321.97 195.607 322.325 195.607ZM331.539 197.21C330.825 197.21 330.195 197.058 329.649 196.755C329.103 196.447 328.676 196.02 328.368 195.474C328.065 194.928 327.913 194.298 327.913 193.584V190.336C327.913 189.622 328.065 188.992 328.368 188.446C328.676 187.9 329.103 187.475 329.649 187.172C330.195 186.864 330.825 186.71 331.539 186.71C332.253 186.71 332.881 186.864 333.422 187.172C333.968 187.475 334.395 187.9 334.703 188.446C335.011 188.992 335.165 189.622 335.165 190.336V193.584C335.165 194.298 335.011 194.928 334.703 195.474C334.395 196.02 333.968 196.447 333.422 196.755C332.881 197.058 332.253 197.21 331.539 197.21ZM331.539 195.607C331.894 195.607 332.216 195.523 332.505 195.355C332.795 195.182 333.023 194.954 333.191 194.669C333.359 194.38 333.443 194.058 333.443 193.703V190.21C333.443 189.851 333.359 189.529 333.191 189.244C333.023 188.955 332.795 188.726 332.505 188.558C332.216 188.385 331.894 188.299 331.539 188.299C331.185 188.299 330.863 188.385 330.573 188.558C330.284 188.726 330.055 188.955 329.887 189.244C329.719 189.529 329.635 189.851 329.635 190.21V193.703C329.635 194.058 329.719 194.38 329.887 194.669C330.055 194.954 330.284 195.182 330.573 195.355C330.863 195.523 331.185 195.607 331.539 195.607Z" fill="#575372"/>
<path d="M24.1483 214.5H336.148" stroke="#D1D1D7"/>
<g clip-path="url(#clip2)">
<g clip-path="url(#clip3)">
<path d="M25.1283 242V231.92H29.1113C29.2093 231.92 29.326 231.925 29.4613 231.934C29.5966 231.939 29.7273 231.953 29.8533 231.976C30.3993 232.06 30.8566 232.247 31.2253 232.536C31.5986 232.825 31.8786 233.192 32.0653 233.635C32.252 234.074 32.3453 234.561 32.3453 235.098C32.3453 235.63 32.2496 236.118 32.0583 236.561C31.8716 237 31.5916 237.366 31.2183 237.66C30.8496 237.949 30.3946 238.136 29.8533 238.22C29.7273 238.239 29.5966 238.253 29.4613 238.262C29.326 238.271 29.2093 238.276 29.1113 238.276H26.3743V242H25.1283ZM26.3743 237.093H29.0693C29.158 237.093 29.2583 237.088 29.3703 237.079C29.487 237.07 29.5966 237.053 29.6993 237.03C30.0213 236.955 30.2826 236.82 30.4833 236.624C30.6886 236.423 30.838 236.19 30.9313 235.924C31.0246 235.653 31.0713 235.378 31.0713 235.098C31.0713 234.818 31.0246 234.545 30.9313 234.279C30.838 234.008 30.6886 233.773 30.4833 233.572C30.2826 233.371 30.0213 233.236 29.6993 233.166C29.5966 233.138 29.487 233.122 29.3703 233.117C29.2583 233.108 29.158 233.103 29.0693 233.103H26.3743V237.093ZM33.8816 242V231.71H35.1276V242H33.8816ZM39.3769 242.21C38.8122 242.21 38.3386 242.107 37.9559 241.902C37.5779 241.692 37.2909 241.417 37.0949 241.076C36.9036 240.735 36.8079 240.362 36.8079 239.956C36.8079 239.559 36.8826 239.216 37.0319 238.927C37.1859 238.633 37.4006 238.39 37.6759 238.199C37.9512 238.003 38.2802 237.849 38.6629 237.737C39.0222 237.639 39.4236 237.555 39.8669 237.485C40.3149 237.41 40.7676 237.343 41.2249 237.282C41.6822 237.221 42.1092 237.163 42.5059 237.107L42.0579 237.366C42.0719 236.694 41.9366 236.197 41.6519 235.875C41.3719 235.553 40.8866 235.392 40.1959 235.392C39.7386 235.392 39.3372 235.497 38.9919 235.707C38.6512 235.912 38.4109 236.248 38.2709 236.715L37.0879 236.358C37.2699 235.695 37.6222 235.175 38.1449 234.797C38.6676 234.419 39.3559 234.23 40.2099 234.23C40.8959 234.23 41.4839 234.354 41.9739 234.601C42.4686 234.844 42.8232 235.212 43.0379 235.707C43.1452 235.94 43.2129 236.195 43.2409 236.47C43.2689 236.741 43.2829 237.025 43.2829 237.324V242H42.1769V240.187L42.4359 240.355C42.1512 240.966 41.7522 241.428 41.2389 241.741C40.7302 242.054 40.1096 242.21 39.3769 242.21ZM39.5659 241.167C40.0139 241.167 40.4012 241.088 40.7279 240.929C41.0592 240.766 41.3252 240.553 41.5259 240.292C41.7266 240.026 41.8572 239.737 41.9179 239.424C41.9879 239.191 42.0252 238.932 42.0299 238.647C42.0392 238.358 42.0439 238.136 42.0439 237.982L42.4779 238.171C42.0719 238.227 41.6729 238.281 41.2809 238.332C40.8889 238.383 40.5179 238.439 40.1679 238.5C39.8179 238.556 39.5029 238.624 39.2229 238.703C39.0176 238.768 38.8239 238.852 38.6419 238.955C38.4646 239.058 38.3199 239.191 38.2079 239.354C38.1006 239.513 38.0469 239.711 38.0469 239.949C38.0469 240.154 38.0982 240.35 38.2009 240.537C38.3082 240.724 38.4716 240.875 38.6909 240.992C38.9149 241.109 39.2066 241.167 39.5659 241.167ZM44.4029 242V241.776L48.9879 235.574H44.7809V234.44H50.9969V234.678L46.4189 240.866H50.7589V242H44.4029ZM55.1999 242.21C54.4485 242.21 53.7999 242.04 53.2539 241.699C52.7125 241.358 52.2949 240.887 52.0009 240.285C51.7069 239.683 51.5599 238.992 51.5599 238.213C51.5599 237.42 51.7092 236.724 52.0079 236.127C52.3065 235.53 52.7289 235.065 53.2749 234.734C53.8209 234.398 54.4625 234.23 55.1999 234.23C55.9559 234.23 56.6069 234.4 57.1529 234.741C57.6989 235.077 58.1165 235.546 58.4059 236.148C58.6999 236.745 58.8469 237.434 58.8469 238.213C58.8469 239.002 58.6999 239.697 58.4059 240.299C58.1119 240.896 57.6919 241.365 57.1459 241.706C56.5999 242.042 55.9512 242.21 55.1999 242.21ZM55.1999 241.027C55.9839 241.027 56.5672 240.766 56.9499 240.243C57.3325 239.72 57.5239 239.044 57.5239 238.213C57.5239 237.359 57.3302 236.68 56.9429 236.176C56.5555 235.667 55.9745 235.413 55.1999 235.413C54.6725 235.413 54.2385 235.532 53.8979 235.77C53.5572 236.008 53.3029 236.337 53.1349 236.757C52.9669 237.177 52.8829 237.662 52.8829 238.213C52.8829 239.062 53.0789 239.744 53.4709 240.257C53.8629 240.77 54.4392 241.027 55.1999 241.027ZM66.1588 242.21C65.4541 242.21 64.8498 242.035 64.3458 241.685C63.8418 241.33 63.4521 240.852 63.1768 240.25C62.9061 239.648 62.7708 238.969 62.7708 238.213C62.7708 237.457 62.9061 236.778 63.1768 236.176C63.4521 235.574 63.8418 235.1 64.3458 234.755C64.8498 234.405 65.4518 234.23 66.1518 234.23C66.8658 234.23 67.4655 234.403 67.9508 234.748C68.4361 235.093 68.8025 235.567 69.0498 236.169C69.3018 236.771 69.4278 237.452 69.4278 238.213C69.4278 238.964 69.3018 239.643 69.0498 240.25C68.8025 240.852 68.4361 241.33 67.9508 241.685C67.4655 242.035 66.8681 242.21 66.1588 242.21ZM66.3128 241.069C66.8215 241.069 67.2391 240.948 67.5658 240.705C67.8925 240.458 68.1328 240.119 68.2868 239.69C68.4455 239.256 68.5248 238.764 68.5248 238.213C68.5248 237.653 68.4455 237.161 68.2868 236.736C68.1328 236.307 67.8948 235.973 67.5728 235.735C67.2508 235.492 66.8425 235.371 66.3478 235.371C65.8345 235.371 65.4098 235.497 65.0738 235.749C64.7425 236.001 64.4951 236.342 64.3318 236.771C64.1731 237.2 64.0938 237.681 64.0938 238.213C64.0938 238.75 64.1755 239.235 64.3388 239.669C64.5021 240.098 64.7471 240.439 65.0738 240.691C65.4051 240.943 65.8181 241.069 66.3128 241.069ZM68.5248 242V236.435H68.3848V231.92H69.6378V242H68.5248ZM74.875 242.21C74.133 242.21 73.4843 242.047 72.929 241.72C72.3783 241.389 71.949 240.929 71.641 240.341C71.333 239.748 71.179 239.058 71.179 238.269C71.179 237.443 71.3307 236.729 71.634 236.127C71.9373 235.52 72.3597 235.054 72.901 234.727C73.447 234.396 74.0863 234.23 74.819 234.23C75.5797 234.23 76.226 234.405 76.758 234.755C77.2947 235.105 77.696 235.604 77.962 236.253C78.2327 236.902 78.3493 237.674 78.312 238.57H77.052V238.122C77.038 237.193 76.849 236.5 76.485 236.043C76.121 235.581 75.5797 235.35 74.861 235.35C74.091 235.35 73.5053 235.597 73.104 236.092C72.7027 236.587 72.502 237.296 72.502 238.22C72.502 239.111 72.7027 239.802 73.104 240.292C73.5053 240.782 74.077 241.027 74.819 241.027C75.3183 241.027 75.7523 240.913 76.121 240.684C76.4897 240.455 76.779 240.126 76.989 239.697L78.186 240.11C77.892 240.777 77.4487 241.295 76.856 241.664C76.268 242.028 75.6077 242.21 74.875 242.21ZM72.082 238.57V237.569H77.668V238.57H72.082ZM85.6412 242.21C84.9365 242.21 84.3322 242.035 83.8282 241.685C83.3242 241.33 82.9345 240.852 82.6592 240.25C82.3885 239.648 82.2532 238.969 82.2532 238.213C82.2532 237.457 82.3885 236.778 82.6592 236.176C82.9345 235.574 83.3242 235.1 83.8282 234.755C84.3322 234.405 84.9342 234.23 85.6342 234.23C86.3482 234.23 86.9479 234.403 87.4332 234.748C87.9185 235.093 88.2849 235.567 88.5322 236.169C88.7842 236.771 88.9102 237.452 88.9102 238.213C88.9102 238.964 88.7842 239.643 88.5322 240.25C88.2849 240.852 87.9185 241.33 87.4332 241.685C86.9479 242.035 86.3505 242.21 85.6412 242.21ZM85.7952 241.069C86.3039 241.069 86.7215 240.948 87.0482 240.705C87.3749 240.458 87.6152 240.119 87.7692 239.69C87.9279 239.256 88.0072 238.764 88.0072 238.213C88.0072 237.653 87.9279 237.161 87.7692 236.736C87.6152 236.307 87.3772 235.973 87.0552 235.735C86.7332 235.492 86.3249 235.371 85.8302 235.371C85.3169 235.371 84.8922 235.497 84.5562 235.749C84.2249 236.001 83.9775 236.342 83.8142 236.771C83.6555 237.2 83.5762 237.681 83.5762 238.213C83.5762 238.75 83.6579 239.235 83.8212 239.669C83.9845 240.098 84.2295 240.439 84.5562 240.691C84.8875 240.943 85.3005 241.069 85.7952 241.069ZM88.0072 242V236.435H87.8672V231.92H89.1202V242H88.0072ZM94.3574 242.21C93.6154 242.21 92.9668 242.047 92.4114 241.72C91.8608 241.389 91.4314 240.929 91.1234 240.341C90.8154 239.748 90.6614 239.058 90.6614 238.269C90.6614 237.443 90.8131 236.729 91.1164 236.127C91.4198 235.52 91.8421 235.054 92.3834 234.727C92.9294 234.396 93.5688 234.23 94.3014 234.23C95.0621 234.23 95.7084 234.405 96.2404 234.755C96.7771 235.105 97.1784 235.604 97.4444 236.253C97.7151 236.902 97.8318 237.674 97.7944 238.57H96.5344V238.122C96.5204 237.193 96.3314 236.5 95.9674 236.043C95.6034 235.581 95.0621 235.35 94.3434 235.35C93.5734 235.35 92.9878 235.597 92.5864 236.092C92.1851 236.587 91.9844 237.296 91.9844 238.22C91.9844 239.111 92.1851 239.802 92.5864 240.292C92.9878 240.782 93.5594 241.027 94.3014 241.027C94.8008 241.027 95.2348 240.913 95.6034 240.684C95.9721 240.455 96.2614 240.126 96.4714 239.697L97.6684 240.11C97.3744 240.777 96.9311 241.295 96.3384 241.664C95.7504 242.028 95.0901 242.21 94.3574 242.21ZM91.5644 238.57V237.569H97.1504V238.57H91.5644ZM101.123 242L98.3795 234.44H99.6395L101.76 240.411L103.874 234.44H105.141L102.397 242H101.123ZM109.354 242.21C108.603 242.21 107.954 242.04 107.408 241.699C106.867 241.358 106.449 240.887 106.155 240.285C105.861 239.683 105.714 238.992 105.714 238.213C105.714 237.42 105.863 236.724 106.162 236.127C106.461 235.53 106.883 235.065 107.429 234.734C107.975 234.398 108.617 234.23 109.354 234.23C110.11 234.23 110.761 234.4 111.307 234.741C111.853 235.077 112.271 235.546 112.56 236.148C112.854 236.745 113.001 237.434 113.001 238.213C113.001 239.002 112.854 239.697 112.56 240.299C112.266 240.896 111.846 241.365 111.3 241.706C110.754 242.042 110.105 242.21 109.354 242.21ZM109.354 241.027C110.138 241.027 110.721 240.766 111.104 240.243C111.487 239.72 111.678 239.044 111.678 238.213C111.678 237.359 111.484 236.68 111.097 236.176C110.71 235.667 110.129 235.413 109.354 235.413C108.827 235.413 108.393 235.532 108.052 235.77C107.711 236.008 107.457 236.337 107.289 236.757C107.121 237.177 107.037 237.662 107.037 238.213C107.037 239.062 107.233 239.744 107.625 240.257C108.017 240.77 108.593 241.027 109.354 241.027ZM114.682 242V231.71H115.928V242H114.682ZM120.899 242.196C120.413 242.196 119.996 242.119 119.646 241.965C119.3 241.811 119.013 241.606 118.785 241.349C118.556 241.092 118.376 240.808 118.246 240.495C118.115 240.182 118.022 239.863 117.966 239.536C117.914 239.209 117.889 238.904 117.889 238.619V234.44H119.149V238.227C119.149 238.582 119.181 238.925 119.247 239.256C119.312 239.587 119.422 239.886 119.576 240.152C119.734 240.418 119.944 240.628 120.206 240.782C120.472 240.936 120.803 241.013 121.2 241.013C121.512 241.013 121.797 240.959 122.054 240.852C122.31 240.745 122.53 240.586 122.712 240.376C122.894 240.161 123.034 239.891 123.132 239.564C123.23 239.237 123.279 238.857 123.279 238.423L124.098 238.675C124.098 239.403 123.965 240.031 123.699 240.558C123.437 241.085 123.066 241.491 122.586 241.776C122.11 242.056 121.547 242.196 120.899 242.196ZM123.419 242V239.977H123.279V234.44H124.532V242H123.419ZM129.677 242.21C128.911 242.21 128.26 242.04 127.724 241.699C127.192 241.354 126.786 240.88 126.506 240.278C126.226 239.676 126.081 238.99 126.072 238.22C126.081 237.431 126.228 236.738 126.513 236.141C126.802 235.539 127.215 235.07 127.752 234.734C128.288 234.398 128.935 234.23 129.691 234.23C130.489 234.23 131.175 234.426 131.749 234.818C132.327 235.21 132.715 235.747 132.911 236.428L131.679 236.799C131.52 236.36 131.261 236.02 130.902 235.777C130.547 235.534 130.139 235.413 129.677 235.413C129.159 235.413 128.732 235.534 128.396 235.777C128.06 236.015 127.81 236.346 127.647 236.771C127.483 237.191 127.399 237.674 127.395 238.22C127.404 239.06 127.598 239.739 127.976 240.257C128.358 240.77 128.925 241.027 129.677 241.027C130.171 241.027 130.582 240.915 130.909 240.691C131.235 240.462 131.483 240.133 131.651 239.704L132.911 240.033C132.649 240.738 132.241 241.277 131.686 241.65C131.13 242.023 130.461 242.21 129.677 242.21ZM134.274 233.103V231.815H135.52V233.103H134.274ZM134.274 242V234.44H135.52V242H134.274ZM141.449 233.39H140.203L140.735 231.71H141.981L141.449 233.39ZM140.84 242.21C140.089 242.21 139.44 242.04 138.894 241.699C138.353 241.358 137.935 240.887 137.641 240.285C137.347 239.683 137.2 238.992 137.2 238.213C137.2 237.42 137.35 236.724 137.648 236.127C137.947 235.53 138.369 235.065 138.915 234.734C139.461 234.398 140.103 234.23 140.84 234.23C141.596 234.23 142.247 234.4 142.793 234.741C143.339 235.077 143.757 235.546 144.046 236.148C144.34 236.745 144.487 237.434 144.487 238.213C144.487 239.002 144.34 239.697 144.046 240.299C143.752 240.896 143.332 241.365 142.786 241.706C142.24 242.042 141.592 242.21 140.84 242.21ZM140.84 241.027C141.624 241.027 142.208 240.766 142.59 240.243C142.973 239.72 143.164 239.044 143.164 238.213C143.164 237.359 142.971 236.68 142.583 236.176C142.196 235.667 141.615 235.413 140.84 235.413C140.313 235.413 139.879 235.532 139.538 235.77C139.198 236.008 138.943 236.337 138.775 236.757C138.607 237.177 138.523 237.662 138.523 238.213C138.523 239.062 138.719 239.744 139.111 240.257C139.503 240.77 140.08 241.027 140.84 241.027ZM151.412 242V238.213C151.412 237.854 151.379 237.508 151.314 237.177C151.253 236.846 151.143 236.549 150.985 236.288C150.831 236.022 150.621 235.812 150.355 235.658C150.093 235.504 149.762 235.427 149.361 235.427C149.048 235.427 148.763 235.481 148.507 235.588C148.255 235.691 148.038 235.849 147.856 236.064C147.674 236.279 147.531 236.549 147.429 236.876C147.331 237.198 147.282 237.578 147.282 238.017L146.463 237.765C146.463 237.032 146.593 236.405 146.855 235.882C147.121 235.355 147.492 234.951 147.968 234.671C148.448 234.386 149.013 234.244 149.662 234.244C150.152 234.244 150.569 234.321 150.915 234.475C151.26 234.629 151.547 234.834 151.776 235.091C152.004 235.343 152.184 235.628 152.315 235.945C152.445 236.258 152.536 236.577 152.588 236.904C152.644 237.226 152.672 237.532 152.672 237.821V242H151.412ZM146.022 242V234.44H147.142V236.463H147.282V242H146.022Z" fill="#2A1846"/>
<path d="M284.614 242.189C284.11 242.189 283.634 242.091 283.186 241.895C282.738 241.699 282.348 241.421 282.017 241.062C281.69 240.703 281.455 240.278 281.31 239.788L282.941 239.347C283.058 239.748 283.27 240.059 283.578 240.278C283.891 240.493 284.234 240.598 284.607 240.593C284.938 240.593 285.235 240.516 285.496 240.362C285.757 240.208 285.963 240 286.112 239.739C286.261 239.473 286.336 239.177 286.336 238.85C286.336 238.351 286.175 237.933 285.853 237.597C285.531 237.261 285.116 237.093 284.607 237.093C284.453 237.093 284.301 237.114 284.152 237.156C284.007 237.198 283.867 237.256 283.732 237.331L282.962 236.001L286.35 233.103L286.497 233.509H281.702V231.92H287.883V233.516L285.16 236.134L285.146 235.637C285.757 235.679 286.278 235.849 286.707 236.148C287.141 236.447 287.472 236.832 287.701 237.303C287.934 237.774 288.051 238.29 288.051 238.85C288.051 239.485 287.895 240.054 287.582 240.558C287.274 241.062 286.859 241.461 286.336 241.755C285.818 242.044 285.244 242.189 284.614 242.189ZM301.746 242V237.408C301.746 236.89 301.618 236.486 301.361 236.197C301.105 235.903 300.757 235.756 300.318 235.756C300.048 235.756 299.805 235.819 299.59 235.945C299.376 236.066 299.205 236.248 299.079 236.491C298.953 236.729 298.89 237.014 298.89 237.345L298.141 236.904C298.137 236.381 298.253 235.922 298.491 235.525C298.734 235.124 299.061 234.811 299.471 234.587C299.882 234.363 300.339 234.251 300.843 234.251C301.679 234.251 302.318 234.503 302.761 235.007C303.209 235.506 303.433 236.164 303.433 236.981V242H301.746ZM292.653 242V234.44H294.144V236.785H294.354V242H292.653ZM297.21 242V237.429C297.21 236.902 297.082 236.491 296.825 236.197C296.569 235.903 296.219 235.756 295.775 235.756C295.346 235.756 295.001 235.903 294.739 236.197C294.483 236.491 294.354 236.874 294.354 237.345L293.598 236.841C293.598 236.351 293.72 235.91 293.962 235.518C294.205 235.126 294.532 234.818 294.942 234.594C295.358 234.365 295.822 234.251 296.335 234.251C296.9 234.251 297.371 234.372 297.749 234.615C298.132 234.853 298.417 235.18 298.603 235.595C298.795 236.006 298.89 236.47 298.89 236.988V242H297.21ZM308.573 242.21C307.808 242.21 307.136 242.044 306.557 241.713C305.978 241.382 305.526 240.922 305.199 240.334C304.877 239.746 304.716 239.069 304.716 238.304C304.716 237.478 304.875 236.762 305.192 236.155C305.509 235.544 305.95 235.07 306.515 234.734C307.08 234.398 307.733 234.23 308.475 234.23C309.259 234.23 309.924 234.414 310.47 234.783C311.021 235.147 311.429 235.663 311.695 236.33C311.961 236.997 312.061 237.784 311.996 238.689H310.323V238.073C310.318 237.252 310.174 236.652 309.889 236.274C309.604 235.896 309.156 235.707 308.545 235.707C307.854 235.707 307.341 235.922 307.005 236.351C306.669 236.776 306.501 237.399 306.501 238.22C306.501 238.985 306.669 239.578 307.005 239.998C307.341 240.418 307.831 240.628 308.475 240.628C308.89 240.628 309.247 240.537 309.546 240.355C309.849 240.168 310.083 239.9 310.246 239.55L311.912 240.054C311.623 240.735 311.175 241.265 310.568 241.643C309.966 242.021 309.301 242.21 308.573 242.21ZM305.969 238.689V237.415H311.17V238.689H305.969ZM316.477 242.21C315.544 242.21 314.785 242 314.202 241.58C313.619 241.16 313.264 240.57 313.138 239.809L314.86 239.543C314.949 239.916 315.145 240.21 315.448 240.425C315.751 240.64 316.134 240.747 316.596 240.747C317.002 240.747 317.315 240.668 317.534 240.509C317.758 240.346 317.87 240.124 317.87 239.844C317.87 239.671 317.828 239.534 317.744 239.431C317.665 239.324 317.487 239.221 317.212 239.123C316.937 239.025 316.514 238.901 315.945 238.752C315.31 238.584 314.806 238.404 314.433 238.213C314.06 238.017 313.791 237.786 313.628 237.52C313.465 237.254 313.383 236.932 313.383 236.554C313.383 236.083 313.507 235.672 313.754 235.322C314.001 234.972 314.347 234.704 314.79 234.517C315.233 234.326 315.756 234.23 316.358 234.23C316.946 234.23 317.466 234.321 317.919 234.503C318.376 234.685 318.745 234.944 319.025 235.28C319.305 235.616 319.478 236.01 319.543 236.463L317.821 236.771C317.779 236.449 317.632 236.195 317.38 236.008C317.133 235.821 316.801 235.716 316.386 235.693C315.989 235.67 315.67 235.73 315.427 235.875C315.184 236.015 315.063 236.213 315.063 236.47C315.063 236.615 315.112 236.738 315.21 236.841C315.308 236.944 315.504 237.046 315.798 237.149C316.097 237.252 316.54 237.378 317.128 237.527C317.73 237.681 318.211 237.858 318.57 238.059C318.934 238.255 319.195 238.491 319.354 238.766C319.517 239.041 319.599 239.375 319.599 239.767C319.599 240.528 319.321 241.125 318.766 241.559C318.215 241.993 317.452 242.21 316.477 242.21ZM324.569 242.21C323.804 242.21 323.132 242.044 322.553 241.713C321.975 241.382 321.522 240.922 321.195 240.334C320.873 239.746 320.712 239.069 320.712 238.304C320.712 237.478 320.871 236.762 321.188 236.155C321.506 235.544 321.947 235.07 322.511 234.734C323.076 234.398 323.729 234.23 324.471 234.23C325.255 234.23 325.92 234.414 326.466 234.783C327.017 235.147 327.425 235.663 327.691 236.33C327.957 236.997 328.058 237.784 327.992 238.689H326.319V238.073C326.315 237.252 326.17 236.652 325.885 236.274C325.601 235.896 325.153 235.707 324.541 235.707C323.851 235.707 323.337 235.922 323.001 236.351C322.665 236.776 322.497 237.399 322.497 238.22C322.497 238.985 322.665 239.578 323.001 239.998C323.337 240.418 323.827 240.628 324.471 240.628C324.887 240.628 325.244 240.537 325.542 240.355C325.846 240.168 326.079 239.9 326.242 239.55L327.908 240.054C327.619 240.735 327.171 241.265 326.564 241.643C325.962 242.021 325.297 242.21 324.569 242.21ZM321.965 238.689V237.415H327.166V238.689H321.965ZM332.473 242.21C331.54 242.21 330.781 242 330.198 241.58C329.615 241.16 329.26 240.57 329.134 239.809L330.856 239.543C330.945 239.916 331.141 240.21 331.444 240.425C331.747 240.64 332.13 240.747 332.592 240.747C332.998 240.747 333.311 240.668 333.53 240.509C333.754 240.346 333.866 240.124 333.866 239.844C333.866 239.671 333.824 239.534 333.74 239.431C333.661 239.324 333.483 239.221 333.208 239.123C332.933 239.025 332.51 238.901 331.941 238.752C331.306 238.584 330.802 238.404 330.429 238.213C330.056 238.017 329.787 237.786 329.624 237.52C329.461 237.254 329.379 236.932 329.379 236.554C329.379 236.083 329.503 235.672 329.75 235.322C329.997 234.972 330.343 234.704 330.786 234.517C331.229 234.326 331.752 234.23 332.354 234.23C332.942 234.23 333.462 234.321 333.915 234.503C334.372 234.685 334.741 234.944 335.021 235.28C335.301 235.616 335.474 236.01 335.539 236.463L333.817 236.771C333.775 236.449 333.628 236.195 333.376 236.008C333.129 235.821 332.797 235.716 332.382 235.693C331.985 235.67 331.666 235.73 331.423 235.875C331.18 236.015 331.059 236.213 331.059 236.47C331.059 236.615 331.108 236.738 331.206 236.841C331.304 236.944 331.5 237.046 331.794 237.149C332.093 237.252 332.536 237.378 333.124 237.527C333.726 237.681 334.207 237.858 334.566 238.059C334.93 238.255 335.191 238.491 335.35 238.766C335.513 239.041 335.595 239.375 335.595 239.767C335.595 240.528 335.317 241.125 334.762 241.559C334.211 241.993 333.448 242.21 332.473 242.21Z" fill="#2A1846"/>
</g>
<g clip-path="url(#clip4)">
<path d="M29.2723 268.21C28.269 268.21 27.4173 267.988 26.7173 267.545C26.0173 267.102 25.483 266.486 25.1143 265.697C24.7503 264.908 24.5683 263.996 24.5683 262.96C24.5683 261.924 24.7503 261.012 25.1143 260.223C25.483 259.434 26.0173 258.818 26.7173 258.375C27.4173 257.932 28.269 257.71 29.2723 257.71C30.439 257.71 31.398 258.006 32.1493 258.599C32.9053 259.192 33.4256 259.99 33.7103 260.993L32.4433 261.329C32.238 260.578 31.8716 259.985 31.3443 259.551C30.817 259.117 30.1263 258.9 29.2723 258.9C28.521 258.9 27.8956 259.07 27.3963 259.411C26.897 259.752 26.5213 260.228 26.2693 260.839C26.0173 261.446 25.889 262.153 25.8843 262.96C25.8796 263.763 26.0033 264.47 26.2553 265.081C26.5073 265.688 26.8853 266.164 27.3893 266.509C27.8933 266.85 28.521 267.02 29.2723 267.02C30.1263 267.02 30.817 266.803 31.3443 266.369C31.8716 265.93 32.238 265.338 32.4433 264.591L33.7103 264.927C33.4256 265.926 32.9053 266.724 32.1493 267.321C31.398 267.914 30.439 268.21 29.2723 268.21ZM38.1155 268.196C37.6301 268.196 37.2125 268.119 36.8625 267.965C36.5171 267.811 36.2301 267.606 36.0015 267.349C35.7728 267.092 35.5931 266.808 35.4625 266.495C35.3318 266.182 35.2385 265.863 35.1825 265.536C35.1311 265.209 35.1055 264.904 35.1055 264.619V260.44H36.3655V264.227C36.3655 264.582 36.3981 264.925 36.4635 265.256C36.5288 265.587 36.6385 265.886 36.7925 266.152C36.9511 266.418 37.1611 266.628 37.4225 266.782C37.6885 266.936 38.0198 267.013 38.4165 267.013C38.7291 267.013 39.0138 266.959 39.2705 266.852C39.5271 266.745 39.7465 266.586 39.9285 266.376C40.1105 266.161 40.2505 265.891 40.3485 265.564C40.4465 265.237 40.4955 264.857 40.4955 264.423L41.3145 264.675C41.3145 265.403 41.1815 266.031 40.9155 266.558C40.6541 267.085 40.2831 267.491 39.8025 267.776C39.3265 268.056 38.7641 268.196 38.1155 268.196ZM40.6355 268V265.977H40.4955V260.44H41.7485V268H40.6355ZM46.9284 268.21C46.177 268.21 45.5284 268.04 44.9824 267.699C44.441 267.358 44.0234 266.887 43.7294 266.285C43.4354 265.683 43.2884 264.992 43.2884 264.213C43.2884 263.42 43.4377 262.724 43.7364 262.127C44.035 261.53 44.4574 261.065 45.0034 260.734C45.5494 260.398 46.191 260.23 46.9284 260.23C47.6844 260.23 48.3354 260.4 48.8814 260.741C49.4274 261.077 49.845 261.546 50.1344 262.148C50.4284 262.745 50.5754 263.434 50.5754 264.213C50.5754 265.002 50.4284 265.697 50.1344 266.299C49.8404 266.896 49.4204 267.365 48.8744 267.706C48.3284 268.042 47.6797 268.21 46.9284 268.21ZM46.9284 267.027C47.7124 267.027 48.2957 266.766 48.6784 266.243C49.061 265.72 49.2524 265.044 49.2524 264.213C49.2524 263.359 49.0587 262.68 48.6714 262.176C48.284 261.667 47.703 261.413 46.9284 261.413C46.401 261.413 45.967 261.532 45.6264 261.77C45.2857 262.008 45.0314 262.337 44.8634 262.757C44.6954 263.177 44.6114 263.662 44.6114 264.213C44.6114 265.062 44.8074 265.744 45.1994 266.257C45.5914 266.77 46.1677 267.027 46.9284 267.027ZM56.3376 268C55.8896 268.089 55.4462 268.124 55.0076 268.105C54.5736 268.091 54.1862 268.005 53.8456 267.846C53.5049 267.683 53.2459 267.431 53.0686 267.09C52.9192 266.791 52.8376 266.49 52.8236 266.187C52.8142 265.879 52.8096 265.531 52.8096 265.144V258.34H54.0556V265.088C54.0556 265.396 54.0579 265.66 54.0626 265.879C54.0719 266.098 54.1209 266.287 54.2096 266.446C54.3776 266.745 54.6436 266.92 55.0076 266.971C55.3762 267.022 55.8196 267.008 56.3376 266.929V268ZM51.2766 261.469V260.44H56.3376V261.469H51.2766ZM60.0214 268.21C59.4568 268.21 58.9831 268.107 58.6004 267.902C58.2224 267.692 57.9354 267.417 57.7394 267.076C57.5481 266.735 57.4524 266.362 57.4524 265.956C57.4524 265.559 57.5271 265.216 57.6764 264.927C57.8304 264.633 58.0451 264.39 58.3204 264.199C58.5958 264.003 58.9248 263.849 59.3074 263.737C59.6668 263.639 60.0681 263.555 60.5114 263.485C60.9594 263.41 61.4121 263.343 61.8694 263.282C62.3268 263.221 62.7538 263.163 63.1504 263.107L62.7024 263.366C62.7164 262.694 62.5811 262.197 62.2964 261.875C62.0164 261.553 61.5311 261.392 60.8404 261.392C60.3831 261.392 59.9818 261.497 59.6364 261.707C59.2958 261.912 59.0554 262.248 58.9154 262.715L57.7324 262.358C57.9144 261.695 58.2668 261.175 58.7894 260.797C59.3121 260.419 60.0004 260.23 60.8544 260.23C61.5404 260.23 62.1284 260.354 62.6184 260.601C63.1131 260.844 63.4678 261.212 63.6824 261.707C63.7898 261.94 63.8574 262.195 63.8854 262.47C63.9134 262.741 63.9274 263.025 63.9274 263.324V268H62.8214V266.187L63.0804 266.355C62.7958 266.966 62.3968 267.428 61.8834 267.741C61.3748 268.054 60.7541 268.21 60.0214 268.21ZM60.2104 267.167C60.6584 267.167 61.0458 267.088 61.3724 266.929C61.7038 266.766 61.9698 266.553 62.1704 266.292C62.3711 266.026 62.5018 265.737 62.5624 265.424C62.6324 265.191 62.6698 264.932 62.6744 264.647C62.6838 264.358 62.6884 264.136 62.6884 263.982L63.1224 264.171C62.7164 264.227 62.3174 264.281 61.9254 264.332C61.5334 264.383 61.1624 264.439 60.8124 264.5C60.4624 264.556 60.1474 264.624 59.8674 264.703C59.6621 264.768 59.4684 264.852 59.2864 264.955C59.1091 265.058 58.9644 265.191 58.8524 265.354C58.7451 265.513 58.6914 265.711 58.6914 265.949C58.6914 266.154 58.7428 266.35 58.8454 266.537C58.9528 266.724 59.1161 266.875 59.3354 266.992C59.5594 267.109 59.8511 267.167 60.2104 267.167ZM68.6034 268.203C67.7028 268.203 66.9631 268.007 66.3844 267.615C65.8104 267.218 65.4581 266.665 65.3274 265.956L66.6014 265.753C66.7041 266.164 66.9398 266.49 67.3084 266.733C67.6771 266.971 68.1344 267.09 68.6804 267.09C69.1984 267.09 69.6044 266.983 69.8984 266.768C70.1924 266.553 70.3394 266.262 70.3394 265.893C70.3394 265.678 70.2904 265.506 70.1924 265.375C70.0944 265.24 69.8914 265.114 69.5834 264.997C69.2801 264.88 68.8204 264.74 68.2044 264.577C67.5371 264.4 67.0121 264.215 66.6294 264.024C66.2468 263.833 65.9738 263.611 65.8104 263.359C65.6471 263.107 65.5654 262.801 65.5654 262.442C65.5654 261.999 65.6868 261.611 65.9294 261.28C66.1721 260.944 66.5104 260.685 66.9444 260.503C67.3831 260.321 67.8918 260.23 68.4704 260.23C69.0444 260.23 69.5578 260.321 70.0104 260.503C70.4631 260.685 70.8271 260.944 71.1024 261.28C71.3824 261.611 71.5481 261.999 71.5994 262.442L70.3254 262.673C70.2648 262.267 70.0688 261.947 69.7374 261.714C69.4108 261.481 68.9884 261.357 68.4704 261.343C67.9804 261.324 67.5814 261.411 67.2734 261.602C66.9701 261.793 66.8184 262.052 66.8184 262.379C66.8184 262.561 66.8744 262.717 66.9864 262.848C67.1031 262.979 67.3154 263.102 67.6234 263.219C67.9361 263.336 68.3888 263.469 68.9814 263.618C69.6488 263.786 70.1738 263.97 70.5564 264.171C70.9438 264.367 71.2191 264.6 71.3824 264.871C71.5458 265.137 71.6274 265.466 71.6274 265.858C71.6274 266.586 71.3591 267.16 70.8224 267.58C70.2858 267.995 69.5461 268.203 68.6034 268.203Z" fill="#2A1846"/>
<path d="M261.399 268.189C260.895 268.189 260.419 268.091 259.971 267.895C259.523 267.699 259.133 267.421 258.802 267.062C258.475 266.703 258.24 266.278 258.095 265.788L259.726 265.347C259.843 265.748 260.055 266.059 260.363 266.278C260.676 266.493 261.019 266.598 261.392 266.593C261.723 266.593 262.02 266.516 262.281 266.362C262.542 266.208 262.748 266 262.897 265.739C263.046 265.473 263.121 265.177 263.121 264.85C263.121 264.351 262.96 263.933 262.638 263.597C262.316 263.261 261.901 263.093 261.392 263.093C261.238 263.093 261.086 263.114 260.937 263.156C260.792 263.198 260.652 263.256 260.517 263.331L259.747 262.001L263.135 259.103L263.282 259.509H258.487V257.92H264.668V259.516L261.945 262.134L261.931 261.637C262.542 261.679 263.063 261.849 263.492 262.148C263.926 262.447 264.257 262.832 264.486 263.303C264.719 263.774 264.836 264.29 264.836 264.85C264.836 265.485 264.68 266.054 264.367 266.558C264.059 267.062 263.644 267.461 263.121 267.755C262.603 268.044 262.029 268.189 261.399 268.189ZM272.484 268.21C271.788 268.21 271.182 268.035 270.664 267.685C270.146 267.335 269.744 266.859 269.46 266.257C269.175 265.655 269.033 264.976 269.033 264.22C269.033 263.455 269.175 262.773 269.46 262.176C269.749 261.574 270.157 261.1 270.685 260.755C271.212 260.405 271.833 260.23 272.547 260.23C273.265 260.23 273.867 260.405 274.353 260.755C274.843 261.1 275.214 261.574 275.466 262.176C275.718 262.778 275.844 263.459 275.844 264.22C275.844 264.971 275.718 265.65 275.466 266.257C275.214 266.859 274.838 267.335 274.339 267.685C273.839 268.035 273.221 268.21 272.484 268.21ZM272.743 266.698C273.195 266.698 273.559 266.595 273.835 266.39C274.115 266.18 274.318 265.888 274.444 265.515C274.574 265.142 274.64 264.71 274.64 264.22C274.64 263.725 274.574 263.294 274.444 262.925C274.318 262.552 274.119 262.262 273.849 262.057C273.578 261.847 273.228 261.742 272.799 261.742C272.346 261.742 271.973 261.854 271.679 262.078C271.385 262.297 271.168 262.596 271.028 262.974C270.888 263.347 270.818 263.763 270.818 264.22C270.818 264.682 270.885 265.102 271.021 265.48C271.161 265.853 271.373 266.15 271.658 266.369C271.942 266.588 272.304 266.698 272.743 266.698ZM274.64 268V262.694H274.43V257.92H276.131V268H274.64ZM281.53 268.21C280.765 268.21 280.093 268.044 279.514 267.713C278.935 267.382 278.483 266.922 278.156 266.334C277.834 265.746 277.673 265.069 277.673 264.304C277.673 263.478 277.832 262.762 278.149 262.155C278.466 261.544 278.907 261.07 279.472 260.734C280.037 260.398 280.69 260.23 281.432 260.23C282.216 260.23 282.881 260.414 283.427 260.783C283.978 261.147 284.386 261.663 284.652 262.33C284.918 262.997 285.018 263.784 284.953 264.689H283.28V264.073C283.275 263.252 283.131 262.652 282.846 262.274C282.561 261.896 282.113 261.707 281.502 261.707C280.811 261.707 280.298 261.922 279.962 262.351C279.626 262.776 279.458 263.399 279.458 264.22C279.458 264.985 279.626 265.578 279.962 265.998C280.298 266.418 280.788 266.628 281.432 266.628C281.847 266.628 282.204 266.537 282.503 266.355C282.806 266.168 283.04 265.9 283.203 265.55L284.869 266.054C284.58 266.735 284.132 267.265 283.525 267.643C282.923 268.021 282.258 268.21 281.53 268.21ZM278.926 264.689V263.415H284.127V264.689H278.926ZM291.957 269.393V267.734H293.644V269.393H291.957ZM291.957 258.193V256.534H293.644V258.193H291.957ZM292.839 268.21C292.129 268.21 291.495 268.079 290.935 267.818C290.375 267.557 289.915 267.188 289.556 266.712C289.201 266.236 288.975 265.671 288.877 265.018L290.543 264.752C290.673 265.326 290.953 265.783 291.383 266.124C291.817 266.46 292.335 266.628 292.937 266.628C293.515 266.628 293.991 266.493 294.365 266.222C294.738 265.947 294.925 265.599 294.925 265.179C294.925 264.885 294.836 264.647 294.659 264.465C294.481 264.278 294.197 264.124 293.805 264.003L291.376 263.247C289.962 262.808 289.255 261.95 289.255 260.671C289.255 260.074 289.397 259.553 289.682 259.11C289.971 258.662 290.377 258.319 290.9 258.081C291.422 257.838 292.038 257.719 292.748 257.724C293.406 257.729 293.991 257.848 294.505 258.081C295.023 258.314 295.452 258.65 295.793 259.089C296.138 259.528 296.383 260.055 296.528 260.671L294.799 260.986C294.733 260.655 294.605 260.363 294.414 260.111C294.222 259.859 293.982 259.663 293.693 259.523C293.403 259.383 293.081 259.308 292.727 259.299C292.386 259.294 292.08 259.348 291.81 259.46C291.539 259.567 291.324 259.721 291.166 259.922C291.007 260.118 290.928 260.34 290.928 260.587C290.928 260.862 291.037 261.098 291.257 261.294C291.481 261.49 291.833 261.658 292.314 261.798L294.127 262.323C294.999 262.575 295.627 262.918 296.01 263.352C296.397 263.781 296.591 264.353 296.591 265.067C296.591 265.692 296.434 266.241 296.122 266.712C295.809 267.183 295.37 267.552 294.806 267.818C294.241 268.079 293.585 268.21 292.839 268.21ZM297.829 267.986V266.516L302.141 262.673C302.477 262.374 302.71 262.092 302.841 261.826C302.971 261.56 303.037 261.303 303.037 261.056C303.037 260.72 302.964 260.421 302.82 260.16C302.675 259.894 302.474 259.684 302.218 259.53C301.966 259.376 301.674 259.299 301.343 259.299C300.993 259.299 300.682 259.381 300.412 259.544C300.146 259.703 299.938 259.915 299.789 260.181C299.639 260.447 299.569 260.734 299.579 261.042H297.843C297.843 260.37 297.992 259.784 298.291 259.285C298.594 258.786 299.009 258.398 299.537 258.123C300.069 257.848 300.682 257.71 301.378 257.71C302.022 257.71 302.6 257.855 303.114 258.144C303.627 258.429 304.031 258.825 304.325 259.334C304.619 259.838 304.766 260.419 304.766 261.077C304.766 261.558 304.7 261.961 304.57 262.288C304.439 262.615 304.243 262.916 303.982 263.191C303.725 263.466 303.405 263.772 303.023 264.108L299.964 266.817L299.81 266.397H304.766V267.986H297.829ZM306.729 268V266.271H308.458V268H306.729ZM314.187 268.21C313.529 268.21 312.936 268.056 312.409 267.748C311.886 267.435 311.471 267.004 311.163 266.453C310.855 265.902 310.701 265.27 310.701 264.556V261.49C310.701 260.725 310.852 260.06 311.156 259.495C311.464 258.93 311.893 258.494 312.444 258.186C312.999 257.878 313.643 257.724 314.376 257.724C314.884 257.724 315.367 257.81 315.825 257.983C316.282 258.151 316.688 258.422 317.043 258.795L315.825 259.978C315.647 259.768 315.43 259.602 315.174 259.481C314.922 259.36 314.656 259.299 314.376 259.299C313.984 259.299 313.641 259.392 313.347 259.579C313.053 259.761 312.824 260.001 312.661 260.3C312.502 260.599 312.423 260.918 312.423 261.259V262.932L312.115 262.596C312.404 262.26 312.752 261.999 313.158 261.812C313.564 261.621 313.988 261.525 314.432 261.525C315.066 261.525 315.626 261.67 316.112 261.959C316.597 262.244 316.98 262.636 317.26 263.135C317.54 263.63 317.68 264.194 317.68 264.829C317.68 265.459 317.519 266.031 317.197 266.544C316.879 267.053 316.457 267.459 315.93 267.762C315.402 268.061 314.821 268.21 314.187 268.21ZM314.187 266.593C314.513 266.593 314.812 266.516 315.083 266.362C315.353 266.203 315.568 265.991 315.727 265.725C315.89 265.454 315.972 265.156 315.972 264.829C315.972 264.502 315.892 264.204 315.734 263.933C315.575 263.662 315.36 263.448 315.09 263.289C314.824 263.126 314.527 263.044 314.201 263.044C313.874 263.044 313.575 263.126 313.305 263.289C313.034 263.448 312.819 263.662 312.661 263.933C312.502 264.204 312.423 264.502 312.423 264.829C312.423 265.146 312.5 265.44 312.654 265.711C312.812 265.977 313.025 266.192 313.291 266.355C313.561 266.514 313.86 266.593 314.187 266.593ZM323.582 268V266.334H319.116V264.759L322.343 257.92H324.268L321.041 264.759H323.582V262.134H325.29V264.759H326.235V266.334H325.29V268H323.582ZM331.539 268.21C330.825 268.21 330.195 268.058 329.649 267.755C329.103 267.447 328.676 267.02 328.368 266.474C328.065 265.928 327.913 265.298 327.913 264.584V261.336C327.913 260.622 328.065 259.992 328.368 259.446C328.676 258.9 329.103 258.475 329.649 258.172C330.195 257.864 330.825 257.71 331.539 257.71C332.253 257.71 332.881 257.864 333.422 258.172C333.968 258.475 334.395 258.9 334.703 259.446C335.011 259.992 335.165 260.622 335.165 261.336V264.584C335.165 265.298 335.011 265.928 334.703 266.474C334.395 267.02 333.968 267.447 333.422 267.755C332.881 268.058 332.253 268.21 331.539 268.21ZM331.539 266.607C331.894 266.607 332.216 266.523 332.505 266.355C332.795 266.182 333.023 265.954 333.191 265.669C333.359 265.38 333.443 265.058 333.443 264.703V261.21C333.443 260.851 333.359 260.529 333.191 260.244C333.023 259.955 332.795 259.726 332.505 259.558C332.216 259.385 331.894 259.299 331.539 259.299C331.185 259.299 330.863 259.385 330.573 259.558C330.284 259.726 330.055 259.955 329.887 260.244C329.719 260.529 329.635 260.851 329.635 261.21V264.703C329.635 265.058 329.719 265.38 329.887 265.669C330.055 265.954 330.284 266.182 330.573 266.355C330.863 266.523 331.185 266.607 331.539 266.607Z" fill="#2A1846"/>
</g>
<g clip-path="url(#clip5)">
<path d="M27.7253 294V285.103H24.2883V283.92H32.4083V285.103H28.9713V294H27.7253ZM35.6217 294.21C34.8704 294.21 34.2217 294.04 33.6757 293.699C33.1344 293.358 32.7167 292.887 32.4227 292.285C32.1287 291.683 31.9817 290.992 31.9817 290.213C31.9817 289.42 32.1311 288.724 32.4297 288.127C32.7284 287.53 33.1507 287.065 33.6967 286.734C34.2427 286.398 34.8844 286.23 35.6217 286.23C36.3777 286.23 37.0287 286.4 37.5747 286.741C38.1207 287.077 38.5384 287.546 38.8277 288.148C39.1217 288.745 39.2687 289.434 39.2687 290.213C39.2687 291.002 39.1217 291.697 38.8277 292.299C38.5337 292.896 38.1137 293.365 37.5677 293.706C37.0217 294.042 36.3731 294.21 35.6217 294.21ZM35.6217 293.027C36.4057 293.027 36.9891 292.766 37.3717 292.243C37.7544 291.72 37.9457 291.044 37.9457 290.213C37.9457 289.359 37.7521 288.68 37.3647 288.176C36.9774 287.667 36.3964 287.413 35.6217 287.413C35.0944 287.413 34.6604 287.532 34.3197 287.77C33.9791 288.008 33.7247 288.337 33.5567 288.757C33.3887 289.177 33.3047 289.662 33.3047 290.213C33.3047 291.062 33.5007 291.744 33.8927 292.257C34.2847 292.77 34.8611 293.027 35.6217 293.027ZM45.0309 294C44.5829 294.089 44.1396 294.124 43.7009 294.105C43.2669 294.091 42.8796 294.005 42.5389 293.846C42.1983 293.683 41.9393 293.431 41.7619 293.09C41.6126 292.791 41.5309 292.49 41.5169 292.187C41.5076 291.879 41.5029 291.531 41.5029 291.144V284.34H42.7489V291.088C42.7489 291.396 42.7513 291.66 42.7559 291.879C42.7653 292.098 42.8143 292.287 42.9029 292.446C43.0709 292.745 43.3369 292.92 43.7009 292.971C44.0696 293.022 44.5129 293.008 45.0309 292.929V294ZM39.9699 287.469V286.44H45.0309V287.469H39.9699ZM48.7148 294.21C48.1501 294.21 47.6765 294.107 47.2938 293.902C46.9158 293.692 46.6288 293.417 46.4328 293.076C46.2415 292.735 46.1458 292.362 46.1458 291.956C46.1458 291.559 46.2205 291.216 46.3698 290.927C46.5238 290.633 46.7385 290.39 47.0138 290.199C47.2891 290.003 47.6181 289.849 48.0008 289.737C48.3601 289.639 48.7615 289.555 49.2048 289.485C49.6528 289.41 50.1055 289.343 50.5628 289.282C51.0201 289.221 51.4471 289.163 51.8438 289.107L51.3958 289.366C51.4098 288.694 51.2745 288.197 50.9898 287.875C50.7098 287.553 50.2245 287.392 49.5338 287.392C49.0765 287.392 48.6751 287.497 48.3298 287.707C47.9891 287.912 47.7488 288.248 47.6088 288.715L46.4258 288.358C46.6078 287.695 46.9601 287.175 47.4828 286.797C48.0055 286.419 48.6938 286.23 49.5478 286.23C50.2338 286.23 50.8218 286.354 51.3118 286.601C51.8065 286.844 52.1611 287.212 52.3758 287.707C52.4831 287.94 52.5508 288.195 52.5788 288.47C52.6068 288.741 52.6208 289.025 52.6208 289.324V294H51.5148V292.187L51.7738 292.355C51.4891 292.966 51.0901 293.428 50.5768 293.741C50.0681 294.054 49.4475 294.21 48.7148 294.21ZM48.9038 293.167C49.3518 293.167 49.7391 293.088 50.0658 292.929C50.3971 292.766 50.6631 292.553 50.8638 292.292C51.0645 292.026 51.1951 291.737 51.2558 291.424C51.3258 291.191 51.3631 290.932 51.3678 290.647C51.3771 290.358 51.3818 290.136 51.3818 289.982L51.8158 290.171C51.4098 290.227 51.0108 290.281 50.6188 290.332C50.2268 290.383 49.8558 290.439 49.5058 290.5C49.1558 290.556 48.8408 290.624 48.5608 290.703C48.3555 290.768 48.1618 290.852 47.9798 290.955C47.8025 291.058 47.6578 291.191 47.5458 291.354C47.4385 291.513 47.3848 291.711 47.3848 291.949C47.3848 292.154 47.4361 292.35 47.5388 292.537C47.6461 292.724 47.8095 292.875 48.0288 292.992C48.2528 293.109 48.5445 293.167 48.9038 293.167ZM54.5808 294V283.71H55.8268V294H54.5808ZM62.8789 294.21C62.3142 294.21 61.8405 294.107 61.4579 293.902C61.0799 293.692 60.7929 293.417 60.5969 293.076C60.4055 292.735 60.3099 292.362 60.3099 291.956C60.3099 291.559 60.3845 291.216 60.5339 290.927C60.6879 290.633 60.9025 290.39 61.1779 290.199C61.4532 290.003 61.7822 289.849 62.1649 289.737C62.5242 289.639 62.9255 289.555 63.3689 289.485C63.8169 289.41 64.2695 289.343 64.7269 289.282C65.1842 289.221 65.6112 289.163 66.0079 289.107L65.5599 289.366C65.5739 288.694 65.4385 288.197 65.1539 287.875C64.8739 287.553 64.3885 287.392 63.6979 287.392C63.2405 287.392 62.8392 287.497 62.4939 287.707C62.1532 287.912 61.9129 288.248 61.7729 288.715L60.5899 288.358C60.7719 287.695 61.1242 287.175 61.6469 286.797C62.1695 286.419 62.8579 286.23 63.7119 286.23C64.3979 286.23 64.9859 286.354 65.4759 286.601C65.9705 286.844 66.3252 287.212 66.5399 287.707C66.6472 287.94 66.7149 288.195 66.7429 288.47C66.7709 288.741 66.7849 289.025 66.7849 289.324V294H65.6789V292.187L65.9379 292.355C65.6532 292.966 65.2542 293.428 64.7409 293.741C64.2322 294.054 63.6115 294.21 62.8789 294.21ZM63.0679 293.167C63.5159 293.167 63.9032 293.088 64.2299 292.929C64.5612 292.766 64.8272 292.553 65.0279 292.292C65.2285 292.026 65.3592 291.737 65.4199 291.424C65.4899 291.191 65.5272 290.932 65.5319 290.647C65.5412 290.358 65.5459 290.136 65.5459 289.982L65.9799 290.171C65.5739 290.227 65.1749 290.281 64.7829 290.332C64.3909 290.383 64.0199 290.439 63.6699 290.5C63.3199 290.556 63.0049 290.624 62.7249 290.703C62.5195 290.768 62.3259 290.852 62.1439 290.955C61.9665 291.058 61.8219 291.191 61.7099 291.354C61.6025 291.513 61.5489 291.711 61.5489 291.949C61.5489 292.154 61.6002 292.35 61.7029 292.537C61.8102 292.724 61.9735 292.875 62.1929 292.992C62.4169 293.109 62.7085 293.167 63.0679 293.167ZM74.3756 294.21C73.6709 294.21 73.0666 294.035 72.5626 293.685C72.0586 293.33 71.6689 292.852 71.3936 292.25C71.1229 291.648 70.9876 290.969 70.9876 290.213C70.9876 289.457 71.1229 288.778 71.3936 288.176C71.6689 287.574 72.0586 287.1 72.5626 286.755C73.0666 286.405 73.6686 286.23 74.3686 286.23C75.0826 286.23 75.6823 286.403 76.1676 286.748C76.6529 287.093 77.0193 287.567 77.2666 288.169C77.5186 288.771 77.6446 289.452 77.6446 290.213C77.6446 290.964 77.5186 291.643 77.2666 292.25C77.0193 292.852 76.6529 293.33 76.1676 293.685C75.6823 294.035 75.0849 294.21 74.3756 294.21ZM74.5296 293.069C75.0383 293.069 75.4559 292.948 75.7826 292.705C76.1093 292.458 76.3496 292.119 76.5036 291.69C76.6623 291.256 76.7416 290.764 76.7416 290.213C76.7416 289.653 76.6623 289.161 76.5036 288.736C76.3496 288.307 76.1116 287.973 75.7896 287.735C75.4676 287.492 75.0593 287.371 74.5646 287.371C74.0513 287.371 73.6266 287.497 73.2906 287.749C72.9593 288.001 72.7119 288.342 72.5486 288.771C72.3899 289.2 72.3106 289.681 72.3106 290.213C72.3106 290.75 72.3923 291.235 72.5556 291.669C72.7189 292.098 72.9639 292.439 73.2906 292.691C73.6219 292.943 74.0349 293.069 74.5296 293.069ZM76.7416 294V288.435H76.6016V283.92H77.8546V294H76.7416ZM83.0918 294.21C82.3498 294.21 81.7011 294.047 81.1458 293.72C80.5951 293.389 80.1658 292.929 79.8578 292.341C79.5498 291.748 79.3958 291.058 79.3958 290.269C79.3958 289.443 79.5475 288.729 79.8508 288.127C80.1541 287.52 80.5765 287.054 81.1178 286.727C81.6638 286.396 82.3031 286.23 83.0358 286.23C83.7965 286.23 84.4428 286.405 84.9748 286.755C85.5115 287.105 85.9128 287.604 86.1788 288.253C86.4495 288.902 86.5661 289.674 86.5288 290.57H85.2688V290.122C85.2548 289.193 85.0658 288.5 84.7018 288.043C84.3378 287.581 83.7965 287.35 83.0778 287.35C82.3078 287.35 81.7221 287.597 81.3208 288.092C80.9195 288.587 80.7188 289.296 80.7188 290.22C80.7188 291.111 80.9195 291.802 81.3208 292.292C81.7221 292.782 82.2938 293.027 83.0358 293.027C83.5351 293.027 83.9691 292.913 84.3378 292.684C84.7065 292.455 84.9958 292.126 85.2058 291.697L86.4028 292.11C86.1088 292.777 85.6655 293.295 85.0728 293.664C84.4848 294.028 83.8245 294.21 83.0918 294.21ZM80.2988 290.57V289.569H85.8848V290.57H80.2988ZM89.8578 294L87.1138 286.44H88.3738L90.4948 292.411L92.6088 286.44H93.8758L91.1318 294H89.8578ZM98.0885 294.21C97.3372 294.21 96.6885 294.04 96.1425 293.699C95.6012 293.358 95.1835 292.887 94.8895 292.285C94.5955 291.683 94.4485 290.992 94.4485 290.213C94.4485 289.42 94.5979 288.724 94.8965 288.127C95.1952 287.53 95.6175 287.065 96.1635 286.734C96.7095 286.398 97.3512 286.23 98.0885 286.23C98.8445 286.23 99.4955 286.4 100.042 286.741C100.588 287.077 101.005 287.546 101.295 288.148C101.589 288.745 101.736 289.434 101.736 290.213C101.736 291.002 101.589 291.697 101.295 292.299C101.001 292.896 100.581 293.365 100.035 293.706C99.4885 294.042 98.8399 294.21 98.0885 294.21ZM98.0885 293.027C98.8725 293.027 99.4559 292.766 99.8385 292.243C100.221 291.72 100.413 291.044 100.413 290.213C100.413 289.359 100.219 288.68 99.8315 288.176C99.4442 287.667 98.8632 287.413 98.0885 287.413C97.5612 287.413 97.1272 287.532 96.7865 287.77C96.4459 288.008 96.1915 288.337 96.0235 288.757C95.8555 289.177 95.7715 289.662 95.7715 290.213C95.7715 291.062 95.9675 291.744 96.3595 292.257C96.7515 292.77 97.3279 293.027 98.0885 293.027ZM103.417 294V283.71H104.663V294H103.417ZM108.807 294L106.063 286.44H107.323L109.444 292.411L111.558 286.44H112.825L110.081 294H108.807ZM117.094 294.21C116.352 294.21 115.703 294.047 115.148 293.72C114.597 293.389 114.168 292.929 113.86 292.341C113.552 291.748 113.398 291.058 113.398 290.269C113.398 289.443 113.549 288.729 113.853 288.127C114.156 287.52 114.578 287.054 115.12 286.727C115.666 286.396 116.305 286.23 117.038 286.23C117.798 286.23 118.445 286.405 118.977 286.755C119.513 287.105 119.915 287.604 120.181 288.253C120.451 288.902 120.568 289.674 120.531 290.57H119.271V290.122C119.257 289.193 119.068 288.5 118.704 288.043C118.34 287.581 117.798 287.35 117.08 287.35C116.31 287.35 115.724 287.597 115.323 288.092C114.921 288.587 114.721 289.296 114.721 290.22C114.721 291.111 114.921 291.802 115.323 292.292C115.724 292.782 116.296 293.027 117.038 293.027C117.537 293.027 117.971 292.913 118.34 292.684C118.708 292.455 118.998 292.126 119.208 291.697L120.405 292.11C120.111 292.777 119.667 293.295 119.075 293.664C118.487 294.028 117.826 294.21 117.094 294.21ZM114.301 290.57V289.569H119.887V290.57H114.301ZM122.089 294V286.44H123.202V288.267L123.02 288.029C123.109 287.796 123.223 287.581 123.363 287.385C123.508 287.189 123.669 287.028 123.846 286.902C124.042 286.743 124.264 286.622 124.511 286.538C124.759 286.454 125.011 286.405 125.267 286.391C125.524 286.372 125.764 286.389 125.988 286.44V287.609C125.727 287.539 125.44 287.52 125.127 287.553C124.815 287.586 124.525 287.7 124.259 287.896C124.017 288.069 123.828 288.279 123.692 288.526C123.562 288.773 123.471 289.042 123.419 289.331C123.368 289.616 123.342 289.907 123.342 290.206V294H122.089ZM128.264 288.666L127.347 288.001L128.432 286.636L126.752 286.146L127.102 285.068L128.74 285.677L128.677 283.92H129.811L129.748 285.677L131.386 285.068L131.736 286.146L130.056 286.636L131.134 288.001L130.217 288.666L129.244 287.224L128.264 288.666Z" fill="#2A1846"/>
<path d="M293.242 295.393V293.734H294.929V295.393H293.242ZM293.242 284.193V282.534H294.929V284.193H293.242ZM294.124 294.21C293.415 294.21 292.78 294.079 292.22 293.818C291.66 293.557 291.2 293.188 290.841 292.712C290.486 292.236 290.26 291.671 290.162 291.018L291.828 290.752C291.959 291.326 292.239 291.783 292.668 292.124C293.102 292.46 293.62 292.628 294.222 292.628C294.801 292.628 295.277 292.493 295.65 292.222C296.023 291.947 296.21 291.599 296.21 291.179C296.21 290.885 296.121 290.647 295.944 290.465C295.767 290.278 295.482 290.124 295.09 290.003L292.661 289.247C291.247 288.808 290.54 287.95 290.54 286.671C290.54 286.074 290.682 285.553 290.967 285.11C291.256 284.662 291.662 284.319 292.185 284.081C292.708 283.838 293.324 283.719 294.033 283.724C294.691 283.729 295.277 283.848 295.79 284.081C296.308 284.314 296.737 284.65 297.078 285.089C297.423 285.528 297.668 286.055 297.813 286.671L296.084 286.986C296.019 286.655 295.89 286.363 295.699 286.111C295.508 285.859 295.267 285.663 294.978 285.523C294.689 285.383 294.367 285.308 294.012 285.299C293.671 285.294 293.366 285.348 293.095 285.46C292.824 285.567 292.61 285.721 292.451 285.922C292.292 286.118 292.213 286.34 292.213 286.587C292.213 286.862 292.323 287.098 292.542 287.294C292.766 287.49 293.118 287.658 293.599 287.798L295.412 288.323C296.285 288.575 296.912 288.918 297.295 289.352C297.682 289.781 297.876 290.353 297.876 291.067C297.876 291.692 297.72 292.241 297.407 292.712C297.094 293.183 296.656 293.552 296.091 293.818C295.526 294.079 294.871 294.21 294.124 294.21ZM299.905 294L303.377 285.516H298.974V283.92H305.183V285.516L301.725 294H299.905ZM306.906 294V292.271H308.635V294H306.906ZM314.133 283.724C314.791 283.724 315.382 283.88 315.904 284.193C316.432 284.501 316.849 284.93 317.157 285.481C317.465 286.032 317.619 286.664 317.619 287.378V290.444C317.619 291.209 317.465 291.874 317.157 292.439C316.854 293.004 316.425 293.44 315.869 293.748C315.319 294.056 314.677 294.21 313.944 294.21C313.436 294.21 312.953 294.126 312.495 293.958C312.038 293.785 311.632 293.512 311.277 293.139L312.495 291.956C312.673 292.166 312.887 292.332 313.139 292.453C313.396 292.574 313.664 292.635 313.944 292.635C314.336 292.635 314.679 292.544 314.973 292.362C315.267 292.175 315.494 291.933 315.652 291.634C315.816 291.335 315.897 291.016 315.897 290.675V289.002L316.205 289.338C315.916 289.674 315.568 289.938 315.162 290.129C314.756 290.316 314.332 290.409 313.888 290.409C313.254 290.409 312.694 290.267 312.208 289.982C311.723 289.693 311.34 289.301 311.06 288.806C310.78 288.307 310.64 287.74 310.64 287.105C310.64 286.475 310.799 285.906 311.116 285.397C311.438 284.884 311.863 284.478 312.39 284.179C312.918 283.876 313.499 283.724 314.133 283.724ZM314.133 285.341C313.807 285.341 313.508 285.42 313.237 285.579C312.967 285.733 312.75 285.945 312.586 286.216C312.428 286.482 312.348 286.778 312.348 287.105C312.348 287.432 312.428 287.73 312.586 288.001C312.745 288.272 312.957 288.489 313.223 288.652C313.494 288.811 313.793 288.89 314.119 288.89C314.446 288.89 314.745 288.811 315.015 288.652C315.286 288.489 315.501 288.272 315.659 288.001C315.818 287.73 315.897 287.432 315.897 287.105C315.897 286.788 315.818 286.496 315.659 286.23C315.505 285.959 315.293 285.745 315.022 285.586C314.756 285.423 314.46 285.341 314.133 285.341ZM319.294 293.986V292.516L323.606 288.673C323.942 288.374 324.175 288.092 324.306 287.826C324.436 287.56 324.502 287.303 324.502 287.056C324.502 286.72 324.429 286.421 324.285 286.16C324.14 285.894 323.939 285.684 323.683 285.53C323.431 285.376 323.139 285.299 322.808 285.299C322.458 285.299 322.147 285.381 321.877 285.544C321.611 285.703 321.403 285.915 321.254 286.181C321.104 286.447 321.034 286.734 321.044 287.042H319.308C319.308 286.37 319.457 285.784 319.756 285.285C320.059 284.786 320.474 284.398 321.002 284.123C321.534 283.848 322.147 283.71 322.843 283.71C323.487 283.71 324.065 283.855 324.579 284.144C325.092 284.429 325.496 284.825 325.79 285.334C326.084 285.838 326.231 286.419 326.231 287.077C326.231 287.558 326.165 287.961 326.035 288.288C325.904 288.615 325.708 288.916 325.447 289.191C325.19 289.466 324.87 289.772 324.488 290.108L321.429 292.817L321.275 292.397H326.231V293.986H319.294ZM331.539 294.21C330.825 294.21 330.195 294.058 329.649 293.755C329.103 293.447 328.676 293.02 328.368 292.474C328.065 291.928 327.913 291.298 327.913 290.584V287.336C327.913 286.622 328.065 285.992 328.368 285.446C328.676 284.9 329.103 284.475 329.649 284.172C330.195 283.864 330.825 283.71 331.539 283.71C332.253 283.71 332.881 283.864 333.422 284.172C333.968 284.475 334.395 284.9 334.703 285.446C335.011 285.992 335.165 286.622 335.165 287.336V290.584C335.165 291.298 335.011 291.928 334.703 292.474C334.395 293.02 333.968 293.447 333.422 293.755C332.881 294.058 332.253 294.21 331.539 294.21ZM331.539 292.607C331.894 292.607 332.216 292.523 332.505 292.355C332.795 292.182 333.023 291.954 333.191 291.669C333.359 291.38 333.443 291.058 333.443 290.703V287.21C333.443 286.851 333.359 286.529 333.191 286.244C333.023 285.955 332.795 285.726 332.505 285.558C332.216 285.385 331.894 285.299 331.539 285.299C331.185 285.299 330.863 285.385 330.573 285.558C330.284 285.726 330.055 285.955 329.887 286.244C329.719 286.529 329.635 286.851 329.635 287.21V290.703C329.635 291.058 329.719 291.38 329.887 291.669C330.055 291.954 330.284 292.182 330.573 292.355C330.863 292.523 331.185 292.607 331.539 292.607Z" fill="#2A1846"/>
</g>
</g>
<path d="M20.1483 52H340.148V50H20.1483V52ZM347.148 59V301H349.148V59H347.148ZM340.148 308H20.1483V310H340.148V308ZM13.1483 301V59H11.1483V301H13.1483ZM20.1483 308C16.2823 308 13.1483 304.866 13.1483 301H11.1483C11.1483 305.971 15.1777 310 20.1483 310V308ZM347.148 301C347.148 304.866 344.014 308 340.148 308V310C345.119 310 349.148 305.971 349.148 301H347.148ZM340.148 52C344.014 52 347.148 55.134 347.148 59H349.148C349.148 54.0294 345.119 50 340.148 50V52ZM20.1483 50C15.1777 50 11.1483 54.0294 11.1483 59H13.1483C13.1483 55.134 16.2823 52 20.1483 52V50Z" fill="#D1D1D7"/>
<defs>
<filter id="filter0_d" x="186.148" y="153" width="52" height="36" filterUnits="userSpaceOnUse" color-interpolation-filters="sRGB">
<feFlood flood-opacity="0" result="BackgroundImageFix"/>
<feColorMatrix in="SourceAlpha" type="matrix" values="0 0 0 0 0 0 0 0 0 0 0 0 0 0 0 0 0 0 127 0"/>
<feOffset dy="2"/>
<feGaussianBlur stdDeviation="3"/>
<feColorMatrix type="matrix" values="0 0 0 0 0 0 0 0 0 0 0 0 0 0 0 0 0 0 0.15 0"/>
<feBlend mode="normal" in2="BackgroundImageFix" result="effect1_dropShadow"/>
<feBlend mode="normal" in="SourceGraphic" in2="effect1_dropShadow" result="shape"/>
</filter>
<clipPath id="clip0">
<rect width="296" height="22" fill="white" transform="translate(32.1483 63)"/>
</clipPath>
<clipPath id="clip1">
<rect width="312" height="24" fill="white" transform="translate(24.1483 157)"/>
</clipPath>
<clipPath id="clip2">
<rect width="312" height="70" fill="white" transform="translate(24.1483 227)"/>
</clipPath>
<clipPath id="clip3">
<rect width="312" height="18" fill="white" transform="translate(24.1483 227)"/>
</clipPath>
<clipPath id="clip4">
<rect width="312" height="18" fill="white" transform="translate(24.1483 253)"/>
</clipPath>
<clipPath id="clip5">
<rect width="312" height="18" fill="white" transform="translate(24.1483 279)"/>
</clipPath>
</defs>
</svg>
