<svg width="60" height="60" viewBox="0 0 60 60" fill="none" xmlns="http://www.w3.org/2000/svg">
<path d="M44.141 22.4942C44.7225 23.948 43.5595 25.8378 41.5242 26.7101C39.489 27.5823 37.3084 27.1462 36.5815 25.6924C36 24.2387 37.163 22.3488 39.1982 21.4766C41.2335 20.6043 43.4141 21.0405 44.141 22.4942Z" fill="#E23221"/>
<path d="M34.2555 32.5254H28.4405L27.859 33.9791H28.4405C28.4405 33.9791 28.7313 34.1245 28.5859 34.4153L26.4053 39.9395H28.5859L29.4582 37.9042H32.0749C32.0749 37.9042 33.3833 37.9042 34.1101 36.5959L35.2731 33.6884C35.4185 33.6884 35.8546 32.6708 34.2555 32.5254ZM32.9471 34.5606L32.3656 36.0144C32.3656 36.0144 32.2203 36.4505 31.6388 36.4505H30.185L31.0573 34.1245H32.511C32.6564 34.1245 33.0925 34.1245 32.9471 34.5606Z" fill="#382D71"/>
<path d="M32.6564 34.1248H31.2026L30.3304 36.4507H31.7841C32.3656 36.4507 32.511 36.0146 32.511 36.0146L33.0925 34.5609C33.0925 34.1248 32.6564 34.1248 32.6564 34.1248Z" fill="white"/>
<path d="M41.6696 35.5783L42.978 32.5254H38.4714C38.4714 32.5254 36.5815 32.6708 36.1454 33.8338L35.1278 36.1598C35.1278 36.1598 34.6916 37.6135 36 37.7589H41.9604L42.5419 36.3051C42.3965 36.4505 41.2335 36.5959 41.6696 35.5783ZM39.1982 36.4505H37.5991C37.5991 36.4505 37.3084 36.4505 37.4538 35.869C37.4538 35.869 37.8899 34.1245 38.6168 34.1245H40.0705L39.1982 36.4505Z" fill="#382D71"/>
<path d="M37.4537 35.7237C37.3084 36.3052 37.5991 36.3052 37.5991 36.3052H39.1982L40.0705 33.9792H38.6167C38.0352 33.9792 37.4537 35.7237 37.4537 35.7237Z" fill="white"/>
<path d="M49.5198 34.1242L48.6476 33.2519C48.3568 32.9612 48.6476 32.6704 48.6476 32.6704L49.0837 32.3797L48.0661 31.3621C45.0132 32.9612 42.5419 34.5603 42.5419 34.5603C42.1057 35.1418 42.5419 35.7233 42.5419 35.7233L44.4317 37.7585C44.5771 38.34 43.9956 38.4854 43.9956 38.4854H42.6872L41.9604 39.9392C42.2511 39.9392 44.4317 39.9392 44.4317 39.9392C46.3216 38.9215 46.9031 38.1947 46.9031 38.1947C47.1938 37.7585 46.9031 37.177 46.9031 37.177C46.6123 36.8863 47.0485 36.7409 47.0485 36.7409C48.6476 35.8687 49.3745 35.1418 49.3745 35.1418C49.8106 34.5603 49.5198 34.1242 49.5198 34.1242ZM47.3392 34.851L45.5947 35.8687C45.304 36.014 45.1586 35.8687 45.1586 35.8687L44.4317 35.1418C44.2863 34.851 44.5771 34.5603 44.5771 34.5603L45.8855 33.6881C46.467 33.3973 46.6123 33.6881 46.6123 33.6881L47.1938 34.2695C47.4846 34.5603 47.3392 34.851 47.3392 34.851Z" fill="#382D71"/>
<path d="M46.7577 33.8336C46.7577 33.8336 46.467 33.5428 46.0309 33.8336L44.7225 34.7058C44.7225 34.7058 44.4317 34.9966 44.5771 35.2873L45.304 36.0142C45.304 36.0142 45.4494 36.1596 45.7401 36.0142L47.3392 34.9966C47.3392 34.9966 47.4846 34.7058 47.3392 34.4151L46.7577 33.8336Z" fill="white"/>
<path d="M57.8062 34.2701C57.8062 34.2701 56.207 32.671 55.7709 32.5256C55.7709 32.5256 54.8987 32.0895 54.0264 32.5256C54.0264 32.5256 51.4097 33.834 50.2467 34.5609C50.2467 34.5609 49.5198 35.1424 49.8106 35.8692C49.8106 35.8692 51.4097 37.6137 51.8458 37.9045C51.8458 37.9045 52.4273 38.3406 53.4449 38.0498C53.4449 38.0498 56.3524 36.8869 57.8062 35.5785C57.8062 35.4331 58.2423 34.997 57.8062 34.2701ZM55.3348 35.4331C55.3348 35.5785 53.881 36.3054 53.881 36.3054C53.4449 36.5961 53.0088 36.3054 53.0088 36.3054C52.718 36.16 52.2819 35.5785 52.2819 35.5785C52.1365 35.4331 52.2819 35.1424 52.2819 35.1424C52.5727 34.8516 53.881 34.2701 53.881 34.2701C54.1718 34.1247 54.6079 34.2701 54.6079 34.2701L55.3348 34.8516C55.6255 34.997 55.3348 35.4331 55.3348 35.4331Z" fill="#382D71"/>
<path d="M54.6079 34.1248C54.6079 34.1248 54.1718 33.8341 53.881 34.1248C53.881 34.1248 52.5727 34.7063 52.2819 34.9971C52.2819 34.9971 52.1366 35.2878 52.2819 35.4332C52.2819 35.4332 52.718 36.0147 53.0088 36.1601C53.0088 36.1601 53.2996 36.4508 53.881 36.1601C53.881 36.1601 55.3348 35.4332 55.3348 35.2878C55.3348 35.2878 55.6255 34.9971 55.3348 34.7063L54.6079 34.1248Z" fill="white"/>
<path d="M27.5683 32.5254H25.3877C25.3877 32.5254 23.9339 35.869 23.9339 36.3051C23.9339 36.3051 23.6432 37.1774 24.0793 37.4681C24.0793 37.4681 24.5154 37.9042 24.9515 37.9042H26.4053L26.9868 36.4505H26.5507C26.5507 36.4505 25.9692 36.3051 26.2599 35.869L27.5683 32.5254Z" fill="#E23221"/>
<path d="M26.5507 30.3448C26.5507 30.3448 27.4229 30.054 27.859 30.3448C27.859 30.3448 28.4405 30.6355 28.0044 31.3624C28.0044 31.3624 27.5683 31.9439 26.5507 31.9439C26.5507 31.9439 25.6784 32.0893 25.6784 31.3624C25.6784 31.3624 25.6784 30.6355 26.5507 30.3448Z" fill="#E23221"/>
<path d="M23.7886 32.816C23.7886 32.816 23.4978 32.5253 22.7709 32.3799H17.2467L16.6652 33.979H17.1013C17.1013 33.979 17.6828 33.979 17.3921 34.7059L15.3568 39.9394H17.5375L18.2643 37.7587H21.0264C21.0264 37.7587 21.8987 37.9041 22.6256 36.8865C22.6256 36.8865 23.7886 35.142 24.0793 33.8336C23.9339 33.979 24.2247 33.2521 23.7886 32.816ZM21.4626 34.5605C21.4626 34.8512 20.8811 35.8689 20.8811 35.8689C20.5903 36.305 20.1542 36.305 20.1542 36.305H18.7005L19.5727 33.979H21.0264C21.7533 34.1244 21.4626 34.5605 21.4626 34.5605Z" fill="#E23221"/>
<path d="M21.1718 34.1243H19.7181L18.8458 36.4503H20.2996C20.2996 36.4503 20.7357 36.4503 21.0264 36.0141C21.0264 36.0141 21.6079 34.9965 21.6079 34.7058C21.4625 34.5604 21.7533 34.1243 21.1718 34.1243Z" fill="white"/>
<path d="M15.3568 35.4327L16.5198 32.3799H12.1586C11.4317 32.3799 10.7048 32.6706 10.7048 32.6706C9.83258 33.1068 9.68721 33.6883 9.68721 33.6883C9.39646 34.1244 8.66959 36.0142 8.66959 36.0142C8.23346 36.8865 8.66959 37.3226 8.66959 37.3226C9.10571 37.9041 9.68721 37.7587 9.68721 37.7587H15.3568L15.9383 36.305L15.2114 36.1596C15.0661 36.1596 15.3568 35.4327 15.3568 35.4327ZM12.8854 36.305H11.4317C11.4317 36.305 10.8502 36.305 11.141 35.5781C11.141 35.5781 11.4317 34.7059 11.7224 34.4151C11.7224 34.4151 11.8678 34.1244 12.4493 34.1244H13.7577L12.8854 36.305Z" fill="#E23221"/>
<path d="M9.54185 32.5254L8.96035 34.1245H7.21586C7.21586 34.1245 6.77974 33.9791 6.48899 34.706L5.18062 37.9042H3L5.18062 32.5254H9.54185Z" fill="#E23221"/>
<path d="M39.7797 20.0231C39.7797 20.0231 37.5991 20.75 36.8722 21.6223C36.8722 21.6223 35.7093 22.6399 35.2731 24.3844C35.2731 24.3844 35.1278 25.9835 35.8546 26.8557C35.8546 26.8557 36.5815 27.728 37.3084 28.0187C37.3084 28.0187 38.326 28.4549 39.9251 28.3095C39.9251 28.3095 42.5418 28.0187 43.8502 26.565C43.8502 26.565 43.2687 27.8734 41.0881 29.3271C41.0881 29.3271 39.6344 30.3447 37.4537 30.9262C37.4537 30.9262 35.4185 31.5077 33.5286 31.0716C33.5286 31.0716 31.6388 30.6355 30.7665 29.6179C30.7665 29.6179 29.8943 28.7456 29.7489 27.4372C29.7489 27.4372 29.6035 25.9835 30.9119 24.239C30.9119 24.239 32.2203 22.6399 33.3833 21.913C33.3833 21.913 34.9824 21.0408 36.2908 20.6046C36.2908 20.4593 37.8899 19.8778 39.7797 20.0231Z" fill="#382D71"/>
</svg>
