<svg width="60" height="60" viewBox="0 0 60 60" fill="none" xmlns="http://www.w3.org/2000/svg">
<path d="M33.51 20.9399C26.39 20.0399 19.8 25.7399 18.79 33.6899C18.79 33.7199 18.79 33.7399 18.78 33.7699C18.03 33.7099 17.33 33.7299 16.7 33.8299C12.46 34.5099 10.87 38.3399 12.82 41.1999C14.53 43.6899 18.04 45.5299 21.6 44.3799C23.64 47.0799 26.57 48.9999 29.86 49.7099C39.81 51.8399 43.57 44.9099 44.58 36.9599C45.59 29.0099 40.64 21.8499 33.51 20.9399Z" stroke="#0FD08B"/>
<path d="M34 35C34.5523 35 35 35.4477 35 36C35 36.5523 34.5523 37 34 37C33.4477 37 33 36.5523 33 36C33 35.4477 33.4477 35 34 35Z" fill="#442E83"/>
<path d="M40.01 40.84C39.99 38.6 39.66 36.39 39 34.25" stroke="#442E83" stroke-miterlimit="10" stroke-linecap="round" stroke-linejoin="round"/>
<path d="M15.78 38.1701C17.57 37.5101 19.59 38.1001 20.66 39.7101C21.01 40.2401 21.88 39.7501 21.53 39.2101" stroke="#442E83" stroke-miterlimit="10" stroke-linecap="round" stroke-linejoin="round"/>
<path d="M39.51 26.91C36.38 27.76 24.24 26.7 24.91 33.45C25.08 35.17 25.76 36.21 24.12 36.84C22.38 37.23 21.83 34.4 21.83 34.4C19.84 33.75 18.13 33.62 16.71 33.85C14.61 27.12 17.42 22.76 20.45 22.43C20.45 22.43 25.05 8.75996 31.4 14.19C31.4 14.19 40.3 4.64996 46.39 14.41C52.48 24.17 39.51 26.91 39.51 26.91Z" fill="#442E83" stroke="#442E83"/>
<path d="M14 5H6V13" stroke="#442E83" stroke-width="2"/>
<path d="M55 13L55 5L47 5" stroke="#442E83" stroke-width="2"/>
<path d="M47 55L55 55L55 47" stroke="#442E83" stroke-width="2"/>
<path d="M6 47L6 55L14 55" stroke="#442E83" stroke-width="2"/>
</svg>
