<svg width="142" height="24" viewBox="0 0 142 24" fill="none" xmlns="http://www.w3.org/2000/svg">
<path fill-rule="evenodd" clip-rule="evenodd" d="M70.3599 3.18008C70.3599 1.93508 71.3149 0.955078 72.5599 0.955078C73.8049 0.955078 74.7749 1.93508 74.7699 3.18008C74.7699 4.42509 73.8049 5.38009 72.5599 5.38009C71.3149 5.38009 70.3599 4.42509 70.3599 3.18008ZM30.2098 7.03516C31.9698 7.03516 33.1998 7.75016 34.0498 8.79516V7.38016H37.4248V20.2102H34.0498V18.7952C33.2148 19.8302 31.9698 20.5452 30.2098 20.5452C26.6748 20.5452 23.9998 17.6452 23.9998 13.7902C23.9998 9.93516 26.6748 7.03516 30.2098 7.03516ZM27.5348 13.7902C27.5348 15.7502 28.8198 17.3252 30.8448 17.3252C32.8198 17.3252 34.1548 15.8152 34.1548 13.7902C34.1548 11.7652 32.8198 10.2552 30.8448 10.2552C28.8198 10.2552 27.5348 11.8302 27.5348 13.7902ZM16.7948 16.3851L13.8798 7.38013H10.2348L7.35976 16.3451L4.61975 7.38013H0.939743L5.28475 20.2152H9.20476L12.0248 11.5401L14.8698 20.2152H18.8198L23.1648 7.38013H19.5498L16.7948 16.3851ZM46.5898 13.9751L43.0698 7.38013H39.1448L44.6848 17.4851L41.1948 23.7602H44.9548L53.7948 7.38013H50.0098L46.5898 13.9751ZM62.6049 7.03516C61.1499 7.03516 59.7449 7.52516 58.8298 8.89016V7.38016H55.4648V20.2152H58.9198V13.1802C58.9198 11.2452 60.1498 10.2802 61.6349 10.2802C63.2099 10.2802 64.1399 11.3002 64.1399 13.1552V20.2152H67.5949V12.0402C67.5949 9.06016 65.5149 7.03516 62.6049 7.03516ZM74.3099 7.38013H70.8549V20.2152H74.3099V7.38013ZM89.0499 9.23516C90.0449 7.60516 91.7299 7.03516 93.4099 7.03516C96.4299 7.03516 98.4699 9.06016 98.4649 12.0402V20.2152H95.0199V13.1552C95.0199 11.3002 94.0799 10.2802 92.5149 10.2802C91.0299 10.2802 89.7999 11.2452 89.7999 13.1802V20.2152H86.3449V13.1552C86.3449 11.3002 85.4149 10.2802 83.8399 10.2802C82.3549 10.2802 81.1249 11.2452 81.1249 13.1802V20.2152H77.6699V7.38016H81.0349V8.89016C81.9499 7.52516 83.3549 7.03516 84.8099 7.03516C86.6649 7.03516 88.1899 7.87016 89.0499 9.23516ZM112.35 1.36523H108.215L105.555 5.54024H108.85L112.35 1.36523ZM100.935 13.7902C100.935 9.92016 103.875 7.03516 107.86 7.03516C111.86 7.03516 114.81 9.92016 114.815 13.7902C114.815 17.6602 111.86 20.5452 107.86 20.5452C103.875 20.5452 100.935 17.6602 100.935 13.7902ZM104.455 13.7902C104.455 15.8702 105.915 17.3252 107.86 17.3252C109.805 17.3252 111.275 15.8702 111.275 13.7902C111.275 11.7102 109.805 10.2552 107.86 10.2552C105.91 10.2552 104.455 11.7102 104.455 13.7902ZM122.505 16.5701L119.18 7.38013H115.42L120.495 20.2152H124.48L129.5 7.38013H125.855L122.505 16.5701ZM130.795 3.18008C130.795 1.93508 131.75 0.955078 132.995 0.955078C134.24 0.955078 135.205 1.93508 135.205 3.18008C135.205 4.42509 134.24 5.38009 132.995 5.38009C131.75 5.38009 130.795 4.42509 130.795 3.18008ZM134.74 7.38013H131.285V20.2152H134.74V7.38013ZM138.01 1.14014H141.465V20.2152H138.01V1.14014Z" fill="#2A1846"/>
</svg>
