<svg width="49" height="28" viewBox="0 0 49 28" fill="none" xmlns="http://www.w3.org/2000/svg">
<path d="M41.9147 10.0951L37.6947 3.00513C36.7197 1.36013 34.9947 0.380127 33.0797 0.380127C31.1647 0.380127 29.4397 1.36013 28.4647 3.00513L20.6147 16.2002C20.1797 16.9252 19.4197 17.3602 18.5747 17.3602C18.5747 17.3602 18.5747 17.3602 18.5697 17.3602C17.7247 17.3602 16.9597 16.9252 16.5297 16.1952L12.9497 10.1451C12.4197 9.25014 11.5897 8.62014 10.6247 8.34014L12.8897 4.53514C13.3247 3.81513 14.0847 3.38013 14.9297 3.38013C15.7747 3.38013 16.5347 3.81513 16.9697 4.54013L19.6697 9.07514C20.0947 9.78514 21.0147 10.0201 21.7247 9.59514C22.4347 9.17014 22.6697 8.25014 22.2447 7.54014L19.5447 3.00513C18.5697 1.36013 16.8447 0.380127 14.9297 0.380127C13.0147 0.380127 11.2897 1.36013 10.3147 3.00513L0.794634 19.0052C-0.245368 20.7502 -0.265368 22.8452 0.739634 24.6152C1.71464 26.3302 3.46464 27.3552 5.40964 27.3552H42.5997C44.5497 27.3552 46.2947 26.3302 47.2697 24.6152C48.2747 22.8502 48.2547 20.7502 47.2147 19.0052L41.9147 10.0951ZM31.0397 4.54013C31.4697 3.81513 32.2347 3.38013 33.0797 3.38013C33.9247 3.38013 34.6847 3.81513 35.1197 4.54013L37.3597 8.30014C36.3947 8.58014 35.5597 9.21014 35.0297 10.1151L31.4747 16.1652C31.0447 16.8952 30.2847 17.3352 29.4347 17.3352H29.4297C28.5847 17.3352 27.8197 16.9002 27.3897 16.1752L25.7547 13.4252L31.0397 4.54013ZM44.6647 23.1352C44.2247 23.9152 43.4697 24.3602 42.5997 24.3602H5.40964C4.53964 24.3602 3.78964 23.9152 3.34464 23.1352C2.87964 22.3202 2.88964 21.3502 3.36964 20.5452L5.32964 17.2502L6.67965 14.9802L8.64965 11.6751C8.90965 11.2351 9.33465 11.1851 9.50965 11.1851C9.68965 11.1751 10.1097 11.2301 10.3697 11.6751L13.9447 17.7202C14.9197 19.3702 16.6447 20.3552 18.5647 20.3602C18.5697 20.3602 18.5697 20.3602 18.5747 20.3602C20.4897 20.3602 22.2147 19.3802 23.1947 17.7352L24.0097 16.3652L24.8147 17.7152C25.7947 19.3602 27.5197 20.3402 29.4347 20.3402C29.4397 20.3402 29.4447 20.3402 29.4497 20.3402C31.3697 20.3352 33.0947 19.3402 34.0697 17.6852L37.6247 11.6351C37.8847 11.1901 38.3147 11.1401 38.4847 11.1401C38.4847 11.1401 38.4847 11.1401 38.4897 11.1401C38.6647 11.1401 39.0847 11.1901 39.3497 11.6301L42.1897 16.4052L44.6497 20.5452C45.1197 21.3452 45.1297 22.3152 44.6647 23.1352Z" fill="#0FD08B"/>
</svg>
