<svg width="216" height="30" viewBox="0 0 216 30" fill="none" xmlns="http://www.w3.org/2000/svg">
<path fill-rule="evenodd" clip-rule="evenodd" d="M42.2173 2.87619L46.8411 10.6446L52.6483 20.4072C53.7878 22.3192 53.8097 24.6202 52.7085 26.5541C51.6402 28.4332 49.7283 29.5562 47.5917 29.5562H6.84293C4.71181 29.5562 2.79436 28.4332 1.72606 26.5541C0.624889 24.6147 0.646803 22.3192 1.78632 20.4072L12.2173 2.87619C13.2856 1.07378 15.1757 0 17.2739 0C19.3722 0 21.2622 1.07378 22.3305 2.87619L25.2889 7.84514C25.7545 8.62308 25.4971 9.63112 24.7191 10.0968C23.9412 10.5625 22.9331 10.305 22.4675 9.52703L19.5091 4.55807C19.0325 3.7637 18.1998 3.28707 17.2739 3.28707C16.348 3.28707 15.5153 3.7637 15.0387 4.55259L12.557 8.72169C13.6143 9.02849 14.5237 9.71877 15.1044 10.6994L19.027 17.3283C19.4982 18.1282 20.3364 18.6048 21.2622 18.6048H21.2677C22.1936 18.6048 23.0263 18.1282 23.5029 17.3338L32.1041 2.87619C33.1724 1.07378 35.0624 0 37.1607 0C39.2589 0 41.149 1.07378 42.2173 2.87619ZM37.1607 3.28707C36.2348 3.28707 35.3966 3.7637 34.9255 4.55807L29.1348 14.2933L30.9262 17.3064C31.3974 18.1008 32.2356 18.5774 33.1614 18.5774H33.1669C34.0982 18.5774 34.931 18.0953 35.4021 17.2955L39.2973 10.6665C39.878 9.67495 40.7929 8.98466 41.8502 8.67787L39.3959 4.55807C38.9193 3.7637 38.0865 3.28707 37.1607 3.28707ZM47.5917 26.2747C48.5449 26.2747 49.3722 25.7871 49.8543 24.9324C50.3638 24.034 50.3528 22.9711 49.8378 22.0946L47.1424 17.5584L44.0307 12.3265C43.7403 11.8444 43.2801 11.7896 43.0884 11.7896H43.0829C42.8966 11.7896 42.4255 11.8444 42.1406 12.332L38.2454 18.9609C37.1771 20.7743 35.2871 21.8645 33.1833 21.87H33.1669C31.0686 21.87 29.1786 20.7962 28.1048 18.9938L27.2228 17.5146L26.3298 19.0157C25.256 20.8181 23.3659 21.8919 21.2677 21.8919H21.2567C19.153 21.8864 17.2629 20.8072 16.1946 18.9993L12.2776 12.3758C11.9927 11.8882 11.5325 11.828 11.3353 11.8389C11.1435 11.8389 10.6778 11.8937 10.393 12.3758L8.23446 15.9971L6.75528 18.4843L4.60772 22.0946C4.08179 22.9766 4.07084 24.0394 4.58033 24.9324C5.06791 25.7871 5.88968 26.2747 6.84293 26.2747H47.5917ZM139.586 5.01278C138.222 5.01278 137.175 6.08656 137.175 7.4507C137.175 8.81483 138.222 9.86121 139.586 9.86121C140.95 9.86121 142.007 8.81483 142.007 7.4507C142.013 6.08656 140.95 5.01278 139.586 5.01278ZM97.3908 13.603C96.4594 12.458 95.1117 11.6746 93.1833 11.6746C89.3101 11.6746 86.3791 14.8521 86.3791 19.076C86.3791 23.2999 89.3101 26.4774 93.1833 26.4774C95.1117 26.4774 96.4759 25.6939 97.3908 24.5599V26.1103H101.089V12.0526H97.3908V13.603ZM93.8791 22.9492C91.6603 22.9492 90.2524 21.2235 90.2524 19.076C90.2524 16.9284 91.6603 15.2027 93.8791 15.2027C96.0431 15.2027 97.5058 16.8572 97.5058 19.076C97.5058 21.2947 96.0431 22.9492 93.8791 22.9492ZM75.2907 12.0526L78.4846 21.9193L81.5033 12.0526H85.4642L80.7034 26.1158H76.3755L73.2582 16.6107L70.1684 26.1158H65.8733L61.1125 12.0526H65.1446L68.1468 21.8755L71.2969 12.0526H75.2907ZM107.274 12.0526L111.131 19.2787L114.878 12.0526H119.025L109.339 30H105.219L109.043 23.1245L102.973 12.0526H107.274ZM124.542 13.7071C125.545 12.2115 127.084 11.6746 128.678 11.6746C131.867 11.6746 134.146 13.8934 134.146 17.1585V26.1158H130.36V18.3802C130.36 16.3477 129.341 15.2301 127.615 15.2301C125.988 15.2301 124.641 16.2874 124.641 18.4076V26.1158H120.855V12.0526H124.542V13.7071ZM137.718 12.0526H141.503V26.1158H137.718V12.0526ZM162.431 11.6746C160.59 11.6746 158.744 12.2991 157.654 14.0851C156.711 12.5895 155.041 11.6746 153.008 11.6746C151.414 11.6746 149.874 12.2115 148.872 13.7071V12.0526H145.185V26.1158H148.97V18.4076C148.97 16.2874 150.318 15.2301 151.945 15.2301C153.671 15.2301 154.69 16.3477 154.69 18.3802V26.1158H158.476V18.4076C158.476 16.2874 159.823 15.2301 161.45 15.2301C163.165 15.2301 164.195 16.3477 164.195 18.3802V26.1158H167.97V17.1585C167.975 13.8934 165.74 11.6746 162.431 11.6746ZM178.653 5.46202H183.183L179.348 10.0365H175.738L178.653 5.46202ZM178.264 11.6746C173.897 11.6746 170.676 14.8356 170.676 19.076C170.676 23.3163 173.897 26.4774 178.264 26.4774C182.646 26.4774 185.884 23.3163 185.884 19.076C185.879 14.8356 182.646 11.6746 178.264 11.6746ZM178.264 22.9492C176.133 22.9492 174.533 21.355 174.533 19.076C174.533 16.7969 176.127 15.2027 178.264 15.2027C180.395 15.2027 182.005 16.7969 182.005 19.076C182.005 21.355 180.395 22.9492 178.264 22.9492ZM190.667 12.0526L194.31 22.122L197.981 12.0526H201.974L196.474 26.1158H192.108L186.547 12.0526H190.667ZM205.804 5.01278C204.44 5.01278 203.393 6.08656 203.393 7.4507C203.393 8.81483 204.44 9.86121 205.804 9.86121C207.168 9.86121 208.225 8.81483 208.225 7.4507C208.225 6.08656 207.168 5.01278 205.804 5.01278ZM203.93 12.0526H207.716V26.1158H203.93V12.0526ZM215.084 5.21549H211.299V26.1158H215.084V5.21549Z" fill="white"/>
</svg>
