<svg width="196" height="28" viewBox="0 0 196 28" fill="none" xmlns="http://www.w3.org/2000/svg">
<path fill-rule="evenodd" clip-rule="evenodd" d="M37.6947 2.62501L41.9147 9.71502L47.2147 18.625C48.2547 20.37 48.2747 22.47 47.2697 24.235C46.2947 25.9501 44.5497 26.9751 42.5997 26.9751H5.40964C3.46464 26.9751 1.71464 25.9501 0.739634 24.235C-0.265368 22.465 -0.245368 20.37 0.794634 18.625L10.3147 2.62501C11.2897 0.980002 13.0147 0 14.9297 0C16.8447 0 18.5697 0.980002 19.5447 2.62501L22.2447 7.16001C22.6697 7.87001 22.4347 8.79002 21.7247 9.21502C21.0147 9.64002 20.0947 9.40502 19.6697 8.69502L16.9697 4.16001C16.5347 3.43501 15.7747 3.00001 14.9297 3.00001C14.0847 3.00001 13.3247 3.43501 12.8897 4.15501L10.6247 7.96002C11.5897 8.24002 12.4197 8.87002 12.9497 9.76502L16.5297 15.815C16.9597 16.545 17.7247 16.98 18.5697 16.98H18.5747C19.4197 16.98 20.1797 16.545 20.6147 15.82L28.4647 2.62501C29.4397 0.980002 31.1647 0 33.0797 0C34.9947 0 36.7197 0.980002 37.6947 2.62501ZM33.0797 3.00001C32.2347 3.00001 31.4697 3.43501 31.0397 4.16001L25.7547 13.045L27.3897 15.795C27.8197 16.52 28.5847 16.955 29.4297 16.955H29.4347C30.2847 16.955 31.0447 16.515 31.4747 15.785L35.0297 9.73502C35.5597 8.83002 36.3947 8.20002 37.3597 7.92002L35.1197 4.16001C34.6847 3.43501 33.9247 3.00001 33.0797 3.00001ZM42.5997 23.98C43.4697 23.98 44.2247 23.535 44.6647 22.755C45.1297 21.935 45.1197 20.965 44.6497 20.165L42.1897 16.025L39.3497 11.25C39.0847 10.81 38.6647 10.76 38.4897 10.76H38.4847C38.3147 10.76 37.8847 10.81 37.6247 11.255L34.0697 17.305C33.0947 18.96 31.3697 19.955 29.4497 19.96H29.4347C27.5197 19.96 25.7947 18.98 24.8147 17.335L24.0097 15.985L23.1947 17.355C22.2147 19 20.4897 19.98 18.5747 19.98H18.5647C16.6447 19.975 14.9197 18.99 13.9447 17.34L10.3697 11.295C10.1097 10.85 9.68965 10.795 9.50965 10.805C9.33465 10.805 8.90965 10.855 8.64965 11.295L6.67965 14.6L5.32964 16.87L3.36964 20.165C2.88964 20.97 2.87964 21.94 3.34464 22.755C3.78964 23.535 4.53964 23.98 5.40964 23.98H42.5997ZM126.56 4.57501C125.315 4.57501 124.36 5.55501 124.36 6.80001C124.36 8.04502 125.315 9.00002 126.56 9.00002C127.805 9.00002 128.77 8.04502 128.77 6.80001C128.775 5.55501 127.805 4.57501 126.56 4.57501ZM88.0498 12.415C87.1998 11.37 85.9698 10.655 84.2098 10.655C80.6748 10.655 77.9998 13.555 77.9998 17.41C77.9998 21.265 80.6748 24.165 84.2098 24.165C85.9698 24.165 87.2148 23.45 88.0498 22.415V23.83H91.4248V11H88.0498V12.415ZM84.8448 20.945C82.8198 20.945 81.5348 19.37 81.5348 17.41C81.5348 15.45 82.8198 13.875 84.8448 13.875C86.8198 13.875 88.1548 15.385 88.1548 17.41C88.1548 19.435 86.8198 20.945 84.8448 20.945ZM67.8798 11L70.7948 20.005L73.5498 11H77.1648L72.8198 23.835H68.8698L66.0248 15.16L63.2048 23.835H59.2847L54.9397 11H58.6197L61.3598 19.965L64.2348 11H67.8798ZM97.0698 11L100.59 17.595L104.01 11H107.795L98.9548 27.3801H95.1948L98.6848 21.105L93.1448 11H97.0698ZM112.83 12.51C113.745 11.145 115.15 10.655 116.605 10.655C119.515 10.655 121.595 12.68 121.595 15.66V23.835H118.14V16.775C118.14 14.92 117.21 13.9 115.635 13.9C114.15 13.9 112.92 14.865 112.92 16.8V23.835H109.465V11H112.83V12.51ZM124.855 11H128.31V23.835H124.855V11ZM147.41 10.655C145.73 10.655 144.045 11.225 143.05 12.855C142.19 11.49 140.665 10.655 138.81 10.655C137.355 10.655 135.95 11.145 135.035 12.51V11H131.67V23.835H135.125V16.8C135.125 14.865 136.355 13.9 137.84 13.9C139.415 13.9 140.345 14.92 140.345 16.775V23.835H143.8V16.8C143.8 14.865 145.03 13.9 146.515 13.9C148.08 13.9 149.02 14.92 149.02 16.775V23.835H152.465V15.66C152.47 12.68 150.43 10.655 147.41 10.655ZM162.215 4.98501H166.35L162.85 9.16002H159.555L162.215 4.98501ZM161.86 10.655C157.875 10.655 154.935 13.54 154.935 17.41C154.935 21.28 157.875 24.165 161.86 24.165C165.86 24.165 168.815 21.28 168.815 17.41C168.81 13.54 165.86 10.655 161.86 10.655ZM161.86 20.945C159.915 20.945 158.455 19.49 158.455 17.41C158.455 15.33 159.91 13.875 161.86 13.875C163.805 13.875 165.275 15.33 165.275 17.41C165.275 19.49 163.805 20.945 161.86 20.945ZM173.18 11L176.505 20.19L179.855 11H183.5L178.48 23.835H174.495L169.42 11H173.18ZM186.995 4.57501C185.75 4.57501 184.795 5.55501 184.795 6.80001C184.795 8.04502 185.75 9.00002 186.995 9.00002C188.24 9.00002 189.205 8.04502 189.205 6.80001C189.205 5.55501 188.24 4.57501 186.995 4.57501ZM185.285 11H188.74V23.835H185.285V11ZM195.465 4.76001H192.01V23.835H195.465V4.76001Z" fill="#0FD08B"/>
</svg>
